<svg aria-hidden="true" style="position: absolute; width: 0; height: 0; overflow: hidden;" version="1.1" xmlns="http://www.w3.org/2000/svg" xmlns:xlink="http://www.w3.org/1999/xlink">
<defs>
<symbol id="icon-search" viewBox="0 0 32 32">
<path d="M29.092 31.514l-6.85-6.862c-1.077 0.935-2.334 1.663-3.77 2.185s-2.962 0.782-4.578 0.782c-3.877 0-7.163-1.349-9.855-4.046s-4.039-5.952-4.039-9.764c0-3.812 1.346-7.067 4.039-9.764s5.96-4.046 9.801-4.046c3.806 0 7.046 1.349 9.721 4.046s4.012 5.952 4.012 9.764c0 1.546-0.251 3.039-0.754 4.477s-1.257 2.787-2.262 4.046l6.958 6.862c0.323 0.288 0.485 0.656 0.485 1.106s-0.18 0.854-0.539 1.214c-0.323 0.324-0.718 0.486-1.185 0.486s-0.862-0.162-1.185-0.486zM13.84 24.383c2.908 0 5.385-1.034 7.432-3.102s3.070-4.558 3.070-7.471-1.023-5.403-3.070-7.471c-2.046-2.068-4.524-3.102-7.432-3.102-2.944 0-5.448 1.034-7.513 3.102s-3.097 4.558-3.097 7.471c0 2.913 1.032 5.403 3.097 7.471s4.569 3.102 7.513 3.102z"></path>
</symbol>
<symbol id="icon-elements" viewBox="0 0 26 32">
<path fill="#242424" style="fill: var(--color1, #242424)" d="M19.187 5.893c1.39-0.43 2.911 0.035 3.823 1.169-0.43-1.39 0.035-2.911 1.169-3.823-1.39 0.43-2.911-0.035-3.823-1.169 0.43 1.39-0.035 2.911-1.169 3.823zM18.674 6.096c1.562-0.904 2.16-2.86 1.371-4.483l0.108-0.058c0.904 1.562 2.86 2.16 4.483 1.371l0.058 0.108c-1.562 0.904-2.16 2.86-1.371 4.483l-0.108 0.058c-0.904-1.562-2.86-2.16-4.483-1.37l-0.058-0.108z"></path>
<path fill="#242424" style="fill: var(--color1, #242424)" d="M23.144 6.463c0.084 0.296 0.127 0.54 0.129 0.717 0.001 0.088-0.008 0.153-0.023 0.197s-0.031 0.056-0.040 0.061-0.029 0.011-0.073-0.001c-0.045-0.012-0.104-0.041-0.176-0.091-0.145-0.101-0.323-0.273-0.522-0.508-0.397-0.469-0.861-1.167-1.296-1.985s-0.755-1.593-0.921-2.184c-0.084-0.297-0.127-0.54-0.129-0.717-0.001-0.089 0.008-0.153 0.023-0.197s0.031-0.056 0.040-0.061c0.009-0.005 0.029-0.011 0.073 0.001s0.104 0.041 0.176 0.091c0.145 0.101 0.323 0.273 0.522 0.508 0.397 0.469 0.861 1.167 1.296 1.985s0.755 1.593 0.921 2.184zM23.268 7.546c0.358-0.19-0.062-1.679-0.937-3.325s-1.875-2.826-2.233-2.636c-0.358 0.19 0.062 1.679 0.937 3.325s1.875 2.826 2.233 2.636z"></path>
<path fill="#242424" style="fill: var(--color1, #242424)" d="M19.786 6.027c-0.297 0.084-0.54 0.127-0.717 0.129-0.089 0.001-0.153-0.008-0.197-0.023s-0.056-0.031-0.061-0.040c-0.005-0.009-0.011-0.029 0.001-0.073s0.041-0.104 0.091-0.176c0.101-0.145 0.273-0.323 0.508-0.522 0.469-0.397 1.167-0.861 1.985-1.296s1.593-0.755 2.184-0.921c0.297-0.084 0.54-0.127 0.717-0.129 0.088-0.001 0.153 0.008 0.197 0.023s0.057 0.031 0.061 0.040 0.011 0.029-0.001 0.073c-0.012 0.045-0.041 0.104-0.091 0.176-0.101 0.145-0.273 0.323-0.508 0.522-0.469 0.397-1.167 0.861-1.985 1.296s-1.593 0.755-2.184 0.921zM18.702 6.151c0.19 0.358 1.679-0.062 3.325-0.937s2.826-1.875 2.636-2.233c-0.19-0.358-1.679 0.062-3.325 0.937s-2.826 1.875-2.636 2.233z"></path>
<path fill="#242424" style="fill: var(--color1, #242424)" d="M0.776 20.581c0.514-0.164 1.079 0.004 1.42 0.421-0.164-0.514 0.004-1.079 0.421-1.421-0.514 0.164-1.079-0.004-1.42-0.421 0.164 0.514-0.004 1.079-0.421 1.42zM0.586 20.659c0.576-0.34 0.791-1.067 0.493-1.665l0.040-0.022c0.34 0.576 1.067 0.791 1.665 0.493l0.022 0.040c-0.576 0.34-0.791 1.067-0.493 1.665l-0.040 0.022c-0.34-0.576-1.067-0.791-1.665-0.493l-0.022-0.040z"></path>
<path fill="#242424" style="fill: var(--color1, #242424)" d="M2.244 20.78c0.032 0.11 0.049 0.2 0.050 0.265 0.001 0.033-0.002 0.057-0.008 0.073s-0.011 0.021-0.015 0.023-0.011 0.004-0.027-0c-0.017-0.004-0.039-0.015-0.066-0.033-0.054-0.037-0.121-0.1-0.195-0.186-0.149-0.172-0.323-0.43-0.487-0.731s-0.285-0.588-0.348-0.806c-0.032-0.11-0.049-0.2-0.050-0.265-0.001-0.033 0.002-0.057 0.008-0.073s0.011-0.021 0.015-0.023 0.011-0.004 0.027 0c0.017 0.004 0.039 0.015 0.066 0.033 0.054 0.037 0.121 0.1 0.195 0.186 0.149 0.172 0.323 0.43 0.487 0.731s0.285 0.588 0.348 0.806zM2.293 21.181c0.132-0.072-0.028-0.622-0.358-1.229s-0.704-1.041-0.836-0.97c-0.132 0.072 0.028 0.622 0.358 1.229s0.704 1.041 0.836 0.97z"></path>
<path fill="#242424" style="fill: var(--color1, #242424)" d="M0.998 20.629c-0.11 0.032-0.2 0.049-0.265 0.050-0.033 0.001-0.057-0.002-0.073-0.008s-0.021-0.011-0.023-0.015c-0.002-0.003-0.004-0.011 0-0.027s0.015-0.038 0.033-0.066c0.037-0.054 0.1-0.121 0.186-0.195 0.172-0.149 0.43-0.323 0.731-0.487s0.588-0.285 0.806-0.348c0.11-0.032 0.2-0.049 0.265-0.050 0.033-0.001 0.057 0.002 0.073 0.008s0.021 0.011 0.023 0.015 0.004 0.011-0 0.027c-0.004 0.017-0.015 0.038-0.033 0.066-0.037 0.054-0.1 0.121-0.186 0.195-0.172 0.149-0.43 0.323-0.731 0.487s-0.588 0.285-0.806 0.348zM0.597 20.678c0.072 0.132 0.622-0.028 1.229-0.358s1.041-0.704 0.97-0.836c-0.072-0.132-0.622 0.028-1.229 0.358s-1.041 0.704-0.97 0.836z"></path>
<path fill="#7e8fdd" style="fill: var(--color2, #7e8fdd)" d="M6.894 30.272c0 0.315-0.255 0.571-0.571 0.571s-0.571-0.255-0.571-0.571c0-0.315 0.255-0.571 0.571-0.571s0.571 0.255 0.571 0.571z"></path>
<path fill="#7e8fdd" style="fill: var(--color2, #7e8fdd)" d="M17.545 2.885c0 0.236-0.192 0.428-0.428 0.428s-0.428-0.192-0.428-0.428c0-0.236 0.192-0.428 0.428-0.428s0.428 0.192 0.428 0.428z"></path>
<path fill="#9cdfdf" style="fill: var(--color3, #9cdfdf)" d="M20.779 31.556c0 0.236-0.192 0.428-0.428 0.428s-0.428-0.192-0.428-0.428c0-0.236 0.192-0.428 0.428-0.428s0.428 0.192 0.428 0.428z"></path>
</symbol>
</defs>
</svg>
