<svg aria-hidden="true" style="position: absolute; width: 0; height: 0; overflow: hidden;" version="1.1" xmlns="http://www.w3.org/2000/svg" xmlns:xlink="http://www.w3.org/1999/xlink">
<defs>
<symbol id="icon-search" viewBox="0 0 32 32">
<path d="M29.092 31.514l-6.85-6.862c-1.077 0.935-2.334 1.663-3.77 2.185s-2.962 0.782-4.578 0.782c-3.877 0-7.163-1.349-9.855-4.046s-4.039-5.952-4.039-9.764c0-3.812 1.346-7.067 4.039-9.764s5.96-4.046 9.801-4.046c3.806 0 7.046 1.349 9.721 4.046s4.012 5.952 4.012 9.764c0 1.546-0.251 3.039-0.754 4.477s-1.257 2.787-2.262 4.046l6.958 6.862c0.323 0.288 0.485 0.656 0.485 1.106s-0.18 0.854-0.539 1.214c-0.323 0.324-0.718 0.486-1.185 0.486s-0.862-0.162-1.185-0.486zM13.84 24.383c2.908 0 5.385-1.034 7.432-3.102s3.070-4.558 3.070-7.471-1.023-5.403-3.070-7.471c-2.046-2.068-4.524-3.102-7.432-3.102-2.944 0-5.448 1.034-7.513 3.102s-3.097 4.558-3.097 7.471c0 2.913 1.032 5.403 3.097 7.471s4.569 3.102 7.513 3.102z"></path>
</symbol>
<symbol id="icon-star" viewBox="0 0 32 32">
<path d="M7.134 20.673c4.792-1.482 10.034 0.121 13.178 4.029-1.482-4.792 0.121-10.034 4.029-13.178-4.792 1.482-10.034-0.121-13.178-4.029 1.482 4.792-0.121 10.034-4.029 13.178zM5.364 21.375c5.383-3.115 7.445-9.859 4.724-15.451l0.373-0.198c3.115 5.383 9.859 7.445 15.451 4.724l0.198 0.373c-5.383 3.115-7.445 9.859-4.724 15.451l-0.373 0.198c-3.115-5.383-9.859-7.445-15.451-4.724l-0.198-0.373z"></path>
<path d="M20.772 22.638c0.288 1.022 0.436 1.862 0.445 2.471 0.004 0.305-0.027 0.528-0.079 0.68-0.050 0.149-0.108 0.195-0.137 0.21s-0.1 0.037-0.251-0.004c-0.154-0.042-0.357-0.141-0.608-0.315-0.5-0.348-1.113-0.94-1.799-1.75-1.368-1.615-2.968-4.024-4.466-6.842s-2.601-5.492-3.175-7.529c-0.288-1.022-0.437-1.862-0.445-2.471-0.004-0.305 0.027-0.528 0.079-0.68 0.050-0.149 0.108-0.195 0.137-0.211s0.1-0.037 0.251 0.004c0.154 0.042 0.357 0.141 0.608 0.315 0.5 0.347 1.113 0.94 1.799 1.75 1.368 1.615 2.968 4.024 4.466 6.842s2.601 5.492 3.175 7.529zM21.2 26.373c1.234-0.656-0.212-5.788-3.229-11.462s-6.463-9.743-7.697-9.087c-1.234 0.656 0.212 5.788 3.229 11.462s6.463 9.743 7.696 9.087z"></path>
<path d="M9.197 21.134c-1.022 0.288-1.862 0.436-2.471 0.445-0.305 0.004-0.528-0.027-0.68-0.079-0.149-0.050-0.195-0.108-0.211-0.137s-0.037-0.1 0.004-0.251c0.042-0.154 0.141-0.357 0.315-0.608 0.347-0.5 0.94-1.113 1.75-1.799 1.615-1.368 4.024-2.968 6.842-4.466s5.492-2.601 7.529-3.175c1.022-0.288 1.862-0.437 2.471-0.445 0.305-0.004 0.528 0.027 0.68 0.079 0.149 0.050 0.195 0.108 0.211 0.137s0.037 0.1-0.004 0.251c-0.042 0.154-0.141 0.357-0.315 0.608-0.347 0.5-0.94 1.113-1.75 1.799-1.615 1.368-4.024 2.968-6.842 4.466s-5.492 2.601-7.529 3.175zM5.463 21.561c0.656 1.234 5.788-0.212 11.462-3.229s9.743-6.463 9.087-7.697c-0.656-1.234-5.788 0.212-11.462 3.229s-9.743 6.463-9.087 7.697z"></path>
</symbol>
</defs>
</svg>
