<svg aria-hidden="true" style="position: absolute; width: 0; height: 0; overflow: hidden;" version="1.1" xmlns="http://www.w3.org/2000/svg" xmlns:xlink="http://www.w3.org/1999/xlink">
<defs>
<symbol id="icon-youtube-tablet-desktop" viewBox="0 0 32 32">
<path fill="#fdfdff" style="fill: var(--color1, #fdfdff)" d="M20.532 10.5c-0.748-0.044-2.288-0.088-4.62-0.088h-0.308c-2.244 0-3.74 0.044-4.488 0.132-1.012 0.088-1.716 0.352-2.112 0.704-0.352 0.308-0.616 0.88-0.704 1.628-0.044 0.484-0.088 1.496-0.088 3.036v0.22c0 1.452 0.044 2.464 0.132 2.948 0.132 0.704 0.352 1.232 0.792 1.54 0.44 0.352 1.188 0.572 2.244 0.66 0.748 0.044 2.288 0.088 4.62 0.088h0.308c2.244 0 3.74-0.044 4.488-0.132 1.012-0.088 1.716-0.352 2.112-0.704 0.352-0.308 0.616-0.88 0.704-1.628 0.044-0.484 0.088-1.496 0.088-3.036v-0.22c0-1.452-0.044-2.464-0.132-2.948-0.132-0.704-0.352-1.232-0.792-1.54-0.44-0.352-1.188-0.572-2.244-0.66zM18.816 15.912l-4.84 2.904v-5.808l4.84 2.904z"></path>
<path fill="none" stroke="#fdfdff" style="stroke: var(--color1, #fdfdff)" stroke-linejoin="miter" stroke-linecap="butt" stroke-miterlimit="4" stroke-width="0.8" d="M4.8 0.4h22.4c2.43 0 4.4 1.97 4.4 4.4v22.4c0 2.43-1.97 4.4-4.4 4.4h-22.4c-2.43 0-4.4-1.97-4.4-4.4v-22.4c0-2.43 1.97-4.4 4.4-4.4z"></path>
</symbol>
<symbol id="icon-instagram-tablet-desktop" viewBox="0 0 32 32">
<path fill="#fdfdff" style="fill: var(--color1, #fdfdff)" d="M19.991 11.115c-0.177 0-0.35 0.053-0.498 0.151s-0.262 0.238-0.33 0.402c-0.068 0.164-0.086 0.344-0.051 0.518s0.12 0.333 0.245 0.459c0.125 0.125 0.285 0.211 0.459 0.245s0.354 0.017 0.518-0.051c0.164-0.068 0.304-0.183 0.402-0.33s0.151-0.321 0.151-0.498c0-0.238-0.094-0.466-0.262-0.634s-0.396-0.262-0.634-0.262zM23.426 12.922c-0.014-0.62-0.13-1.232-0.343-1.814-0.19-0.498-0.485-0.949-0.866-1.322-0.37-0.383-0.822-0.676-1.322-0.859-0.58-0.219-1.194-0.338-1.814-0.351-0.791-0.045-1.045-0.045-3.076-0.045s-2.285 0-3.076 0.045c-0.62 0.013-1.234 0.132-1.814 0.351-0.499 0.184-0.951 0.478-1.322 0.859-0.383 0.37-0.676 0.822-0.859 1.322-0.219 0.58-0.338 1.194-0.351 1.814-0.045 0.791-0.045 1.045-0.045 3.076s0 2.285 0.045 3.076c0.013 0.62 0.132 1.234 0.351 1.814 0.182 0.5 0.476 0.952 0.859 1.322 0.371 0.381 0.823 0.675 1.322 0.859 0.58 0.219 1.194 0.338 1.814 0.351 0.791 0.045 1.045 0.045 3.076 0.045s2.285 0 3.076-0.045c0.62-0.013 1.234-0.132 1.814-0.351 0.5-0.182 0.952-0.476 1.322-0.859 0.382-0.371 0.678-0.823 0.866-1.322 0.213-0.582 0.329-1.195 0.343-1.814 0-0.791 0.045-1.045 0.045-3.076s0-2.285-0.045-3.076zM22.082 18.985c-0.005 0.474-0.091 0.944-0.254 1.389-0.119 0.325-0.311 0.619-0.56 0.859-0.242 0.247-0.535 0.438-0.859 0.56-0.445 0.163-0.915 0.248-1.389 0.254-0.747 0.037-1.023 0.045-2.987 0.045s-2.24 0-2.987-0.045c-0.492 0.009-0.982-0.067-1.449-0.224-0.309-0.128-0.589-0.319-0.821-0.56-0.248-0.24-0.437-0.534-0.553-0.859-0.182-0.452-0.283-0.932-0.299-1.419 0-0.747-0.045-1.023-0.045-2.987s0-2.24 0.045-2.987c0.003-0.485 0.092-0.965 0.261-1.419 0.132-0.315 0.333-0.596 0.59-0.821 0.227-0.257 0.507-0.461 0.821-0.597 0.455-0.164 0.935-0.25 1.419-0.254 0.747 0 1.023-0.045 2.987-0.045s2.24 0 2.987 0.045c0.474 0.005 0.944 0.091 1.389 0.254 0.339 0.126 0.644 0.331 0.889 0.597 0.245 0.229 0.436 0.51 0.56 0.821 0.166 0.455 0.252 0.935 0.254 1.419 0.037 0.747 0.045 1.023 0.045 2.987s-0.007 2.24-0.045 2.987zM16.004 12.168c-0.757 0.001-1.497 0.227-2.126 0.649s-1.119 1.020-1.408 1.721c-0.289 0.7-0.364 1.47-0.215 2.212s0.514 1.424 1.050 1.959c0.536 0.535 1.219 0.899 1.961 1.046s1.513 0.071 2.212-0.219c0.699-0.29 1.297-0.781 1.718-1.411s0.645-1.37 0.645-2.127c0.001-0.504-0.098-1.003-0.29-1.469s-0.475-0.889-0.832-1.245c-0.357-0.356-0.78-0.638-1.246-0.83s-0.965-0.289-1.469-0.287zM16.004 18.484c-0.492 0-0.972-0.146-1.381-0.419s-0.728-0.662-0.916-1.116c-0.188-0.454-0.237-0.954-0.142-1.437s0.333-0.925 0.68-1.273c0.348-0.348 0.791-0.585 1.273-0.68s0.982-0.047 1.437 0.142c0.454 0.188 0.843 0.507 1.116 0.916s0.419 0.89 0.419 1.381c0 0.326-0.064 0.65-0.189 0.952s-0.308 0.576-0.539 0.807c-0.231 0.231-0.505 0.414-0.807 0.539s-0.625 0.189-0.952 0.189z"></path>
<path fill="none" stroke="#fdfdff" style="stroke: var(--color1, #fdfdff)" stroke-linejoin="miter" stroke-linecap="butt" stroke-miterlimit="4" stroke-width="0.8" d="M4.8 0.4h22.4c2.43 0 4.4 1.97 4.4 4.4v22.4c0 2.43-1.97 4.4-4.4 4.4h-22.4c-2.43 0-4.4-1.97-4.4-4.4v-22.4c0-2.43 1.97-4.4 4.4-4.4z"></path>
</symbol>
<symbol id="icon-facebook-tablet-desktop" viewBox="0 0 32 32">
<path fill="#fdfdff" style="fill: var(--color1, #fdfdff)" d="M18.425 10.801h1.462v-2.473c-0.708-0.074-1.419-0.11-2.131-0.109-2.116 0-3.562 1.291-3.562 3.656v2.038h-2.388v2.769h2.388v7.093h2.862v-7.093h2.38l0.358-2.769h-2.738v-1.766c0-0.817 0.218-1.346 1.369-1.346z"></path>
<path fill="none" stroke="#fdfdff" style="stroke: var(--color1, #fdfdff)" stroke-linejoin="miter" stroke-linecap="butt" stroke-miterlimit="4" stroke-width="0.8" d="M4.8 0.4h22.4c2.43 0 4.4 1.97 4.4 4.4v22.4c0 2.43-1.97 4.4-4.4 4.4h-22.4c-2.43 0-4.4-1.97-4.4-4.4v-22.4c0-2.43 1.97-4.4 4.4-4.4z"></path>
</symbol>
<symbol id="icon-youtube-mobile" viewBox="0 0 32 32">
<path fill="#fdfdff" style="fill: var(--color1, #fdfdff)" d="M20.531 10.5c-0.748-0.044-2.288-0.088-4.62-0.088h-0.308c-2.244 0-3.74 0.044-4.488 0.132-1.012 0.088-1.716 0.352-2.112 0.704-0.352 0.308-0.616 0.88-0.704 1.628-0.044 0.484-0.088 1.496-0.088 3.036v0.22c0 1.452 0.044 2.464 0.132 2.948 0.132 0.704 0.352 1.232 0.792 1.54 0.44 0.352 1.188 0.572 2.244 0.66 0.748 0.044 2.288 0.088 4.62 0.088h0.308c2.244 0 3.74-0.044 4.488-0.132 1.012-0.088 1.716-0.352 2.112-0.704 0.352-0.308 0.616-0.88 0.704-1.628 0.044-0.484 0.088-1.496 0.088-3.036v-0.22c0-1.452-0.044-2.464-0.132-2.948-0.132-0.704-0.352-1.232-0.792-1.54-0.44-0.352-1.188-0.572-2.244-0.66zM18.815 15.912l-4.84 2.904v-5.808l4.84 2.904z"></path>
<path fill="none" stroke="#fdfdff" style="stroke: var(--color1, #fdfdff)" stroke-linejoin="miter" stroke-linecap="butt" stroke-miterlimit="4" stroke-width="1" d="M6 0.5h20c3.038 0 5.5 2.462 5.5 5.5v20c0 3.038-2.462 5.5-5.5 5.5h-20c-3.038 0-5.5-2.462-5.5-5.5v-20c0-3.038 2.462-5.5 5.5-5.5z"></path>
</symbol>
<symbol id="icon-instagram-mobile" viewBox="0 0 32 32">
<path fill="#fdfdff" style="fill: var(--color1, #fdfdff)" d="M19.991 11.115c-0.177 0-0.351 0.053-0.498 0.151s-0.262 0.238-0.33 0.402c-0.068 0.164-0.086 0.344-0.051 0.518s0.12 0.334 0.245 0.459c0.125 0.125 0.285 0.211 0.459 0.245s0.354 0.017 0.518-0.051c0.164-0.068 0.304-0.183 0.402-0.33s0.151-0.321 0.151-0.498c0-0.238-0.094-0.466-0.262-0.634s-0.396-0.262-0.634-0.262zM23.426 12.922c-0.015-0.62-0.131-1.232-0.343-1.815-0.19-0.498-0.485-0.949-0.866-1.322-0.37-0.383-0.822-0.676-1.322-0.859-0.58-0.219-1.194-0.338-1.814-0.351-0.791-0.045-1.045-0.045-3.076-0.045s-2.285 0-3.076 0.045c-0.62 0.013-1.234 0.132-1.814 0.351-0.499 0.184-0.95 0.478-1.322 0.859-0.383 0.37-0.676 0.822-0.859 1.322-0.219 0.581-0.338 1.194-0.351 1.815-0.045 0.791-0.045 1.045-0.045 3.076s0 2.285 0.045 3.076c0.013 0.62 0.132 1.234 0.351 1.814 0.182 0.5 0.476 0.952 0.859 1.322 0.371 0.381 0.823 0.674 1.322 0.859 0.58 0.219 1.194 0.338 1.814 0.351 0.791 0.045 1.045 0.045 3.076 0.045s2.285 0 3.076-0.045c0.62-0.013 1.234-0.131 1.814-0.351 0.5-0.182 0.952-0.476 1.322-0.859 0.383-0.371 0.678-0.823 0.866-1.322 0.213-0.582 0.329-1.195 0.343-1.814 0-0.791 0.045-1.045 0.045-3.076s0-2.285-0.045-3.076zM22.082 18.985c-0.005 0.474-0.091 0.944-0.254 1.389-0.119 0.325-0.311 0.619-0.56 0.859-0.242 0.247-0.535 0.438-0.859 0.56-0.445 0.163-0.915 0.248-1.389 0.254-0.747 0.037-1.023 0.045-2.987 0.045s-2.24 0-2.987-0.045c-0.492 0.009-0.982-0.067-1.449-0.224-0.309-0.128-0.589-0.319-0.821-0.56-0.248-0.24-0.437-0.534-0.553-0.859-0.182-0.452-0.283-0.932-0.299-1.419 0-0.747-0.045-1.023-0.045-2.987s0-2.24 0.045-2.987c0.003-0.485 0.092-0.965 0.261-1.419 0.132-0.315 0.333-0.596 0.59-0.821 0.227-0.257 0.507-0.461 0.821-0.597 0.455-0.164 0.935-0.25 1.419-0.254 0.747 0 1.023-0.045 2.987-0.045s2.24 0 2.987 0.045c0.474 0.005 0.944 0.091 1.389 0.254 0.339 0.126 0.644 0.331 0.889 0.597 0.245 0.229 0.436 0.51 0.56 0.821 0.166 0.455 0.252 0.935 0.254 1.419 0.037 0.747 0.045 1.023 0.045 2.987s-0.007 2.24-0.045 2.987zM16.004 12.168c-0.757 0.002-1.497 0.227-2.126 0.649s-1.119 1.021-1.408 1.721c-0.289 0.7-0.364 1.47-0.215 2.212s0.514 1.424 1.050 1.959c0.536 0.535 1.219 0.899 1.961 1.046s1.513 0.071 2.212-0.219c0.7-0.29 1.297-0.781 1.718-1.411s0.645-1.37 0.645-2.127c0.001-0.504-0.098-1.003-0.29-1.469s-0.475-0.889-0.832-1.245c-0.357-0.356-0.78-0.638-1.246-0.83s-0.965-0.289-1.469-0.287zM16.004 18.484c-0.492 0-0.973-0.146-1.381-0.419s-0.728-0.662-0.916-1.116c-0.188-0.454-0.237-0.954-0.141-1.437s0.333-0.925 0.68-1.273c0.348-0.348 0.791-0.585 1.273-0.681s0.982-0.047 1.437 0.142c0.454 0.188 0.843 0.507 1.116 0.916s0.419 0.89 0.419 1.381c0 0.326-0.064 0.65-0.189 0.951s-0.308 0.576-0.539 0.807-0.505 0.414-0.807 0.539c-0.302 0.125-0.625 0.189-0.951 0.189z"></path>
<path fill="none" stroke="#fdfdff" style="stroke: var(--color1, #fdfdff)" stroke-linejoin="miter" stroke-linecap="butt" stroke-miterlimit="4" stroke-width="1" d="M6 0.5h20c3.038 0 5.5 2.462 5.5 5.5v20c0 3.038-2.462 5.5-5.5 5.5h-20c-3.038 0-5.5-2.462-5.5-5.5v-20c0-3.038 2.462-5.5 5.5-5.5z"></path>
</symbol>
<symbol id="icon-facebook-mobile" viewBox="0 0 32 32">
<path fill="#fdfdff" style="fill: var(--color1, #fdfdff)" d="M18.425 10.801h1.462v-2.473c-0.708-0.074-1.419-0.11-2.131-0.109-2.116 0-3.562 1.291-3.562 3.656v2.038h-2.388v2.769h2.388v7.093h2.862v-7.093h2.38l0.358-2.769h-2.738v-1.765c0-0.817 0.218-1.346 1.369-1.346z"></path>
<path fill="none" stroke="#fdfdff" style="stroke: var(--color1, #fdfdff)" stroke-linejoin="miter" stroke-linecap="butt" stroke-miterlimit="4" stroke-width="1" d="M6 0.5h20c3.038 0 5.5 2.462 5.5 5.5v20c0 3.038-2.462 5.5-5.5 5.5h-20c-3.038 0-5.5-2.462-5.5-5.5v-20c0-3.038 2.462-5.5 5.5-5.5z"></path>
</symbol>
<symbol id="icon-x-close-modal-learn-tablet-desktop-black" viewBox="0 0 32 32">
<path stroke-linejoin="round" stroke-linecap="round" stroke-miterlimit="4" stroke-width="2.6667" d="M24 8l-16 16"></path>
<path stroke-linejoin="round" stroke-linecap="round" stroke-miterlimit="4" stroke-width="2.6667" d="M8 8l16 16"></path>
</symbol>
<symbol id="icon-x-close-modal-learn-tablet-desktop-white" viewBox="0 0 32 32">
<path fill="none" stroke="#fdfdff" style="stroke: var(--color1, #fdfdff)" stroke-linejoin="round" stroke-linecap="round" stroke-miterlimit="4" stroke-width="2.6667" d="M24 8l-16 16"></path>
<path fill="none" stroke="#fdfdff" style="stroke: var(--color1, #fdfdff)" stroke-linejoin="round" stroke-linecap="round" stroke-miterlimit="4" stroke-width="2.6667" d="M8 8l16 16"></path>
</symbol>
<symbol id="icon-x-close-modal-learn-mobile-black" viewBox="0 0 32 32">
<path stroke-linejoin="round" stroke-linecap="round" stroke-miterlimit="4" stroke-width="2.9091" d="M24 8l-16 16"></path>
<path stroke-linejoin="round" stroke-linecap="round" stroke-miterlimit="4" stroke-width="2.9091" d="M8 8l16 16"></path>
</symbol>
<symbol id="icon-x-close-modal-learn-mobile-white" viewBox="0 0 32 32">
<path fill="none" stroke="#fdfdff" style="stroke: var(--color1, #fdfdff)" stroke-linejoin="round" stroke-linecap="round" stroke-miterlimit="4" stroke-width="2.9091" d="M24 8l-16 16"></path>
<path fill="none" stroke="#fdfdff" style="stroke: var(--color1, #fdfdff)" stroke-linejoin="round" stroke-linecap="round" stroke-miterlimit="4" stroke-width="2.9091" d="M8 8l16 16"></path>
</symbol>
<symbol id="icon-search-black" viewBox="0 0 32 32">
<path d="M29.092 31.514l-6.85-6.862c-1.077 0.935-2.334 1.663-3.77 2.185s-2.962 0.782-4.578 0.782c-3.877 0-7.163-1.349-9.855-4.046s-4.039-5.952-4.039-9.764c0-3.812 1.346-7.067 4.039-9.764s5.96-4.046 9.801-4.046c3.806 0 7.046 1.349 9.721 4.046s4.012 5.952 4.012 9.764c0 1.546-0.251 3.039-0.754 4.477s-1.257 2.787-2.262 4.046l6.958 6.862c0.323 0.288 0.485 0.656 0.485 1.106s-0.18 0.854-0.539 1.214c-0.323 0.324-0.718 0.486-1.185 0.486s-0.862-0.162-1.185-0.486zM13.84 24.383c2.908 0 5.385-1.034 7.432-3.102s3.070-4.558 3.070-7.471-1.023-5.403-3.070-7.471c-2.046-2.068-4.524-3.102-7.432-3.102-2.944 0-5.448 1.034-7.513 3.102s-3.097 4.558-3.097 7.471c0 2.913 1.032 5.403 3.097 7.471s4.569 3.102 7.513 3.102z"></path>
</symbol>
<symbol id="icon-search-white" viewBox="0 0 32 32">
<path fill="#fdfdff" style="fill: var(--color1, #fdfdff)" d="M29.092 31.514l-6.85-6.862c-1.077 0.935-2.334 1.663-3.77 2.185s-2.962 0.782-4.578 0.782c-3.877 0-7.163-1.349-9.855-4.046s-4.039-5.952-4.039-9.764c0-3.812 1.346-7.067 4.039-9.764s5.96-4.046 9.801-4.046c3.806 0 7.046 1.349 9.721 4.046s4.012 5.952 4.012 9.764c0 1.546-0.251 3.039-0.754 4.477s-1.257 2.787-2.262 4.046l6.958 6.862c0.323 0.288 0.485 0.656 0.485 1.106s-0.18 0.854-0.539 1.214c-0.323 0.324-0.718 0.486-1.185 0.486s-0.862-0.162-1.185-0.486zM13.84 24.383c2.908 0 5.385-1.034 7.432-3.102s3.070-4.558 3.070-7.471-1.023-5.403-3.070-7.471c-2.046-2.068-4.524-3.102-7.432-3.102-2.944 0-5.448 1.034-7.513 3.102s-3.097 4.558-3.097 7.471c0 2.913 1.032 5.403 3.097 7.471s4.569 3.102 7.513 3.102z"></path>
</symbol>
<symbol id="icon-favorites-fill-tablet-desktop" viewBox="0 0 32 32">
<path fill="#fdfdff" style="fill: var(--color1, #fdfdff); stroke: var(--color1, #fdfdff)" stroke="#fdfdff" stroke-linejoin="round" stroke-linecap="round" stroke-miterlimit="4" stroke-width="2.6667" d="M27.787 6.146c-0.681-0.681-1.49-1.222-2.379-1.591s-1.844-0.559-2.807-0.559-1.917 0.19-2.807 0.559c-0.89 0.369-1.699 0.909-2.38 1.591l-1.413 1.413-1.413-1.413c-1.376-1.376-3.241-2.148-5.187-2.148s-3.811 0.773-5.187 2.148c-1.376 1.376-2.148 3.241-2.148 5.187s0.773 3.811 2.148 5.187l11.787 11.787 11.787-11.787c0.681-0.681 1.222-1.49 1.591-2.38s0.559-1.844 0.559-2.807-0.19-1.917-0.559-2.807c-0.369-0.89-0.909-1.699-1.591-2.38z"></path>
</symbol>
<symbol id="icon-favorites-tablet-desktop-white" viewBox="0 0 32 32">
<path fill="none" stroke="#fdfdff" style="stroke: var(--color1, #fdfdff)" stroke-linejoin="round" stroke-linecap="round" stroke-miterlimit="4" stroke-width="2.6667" d="M27.787 6.146c-0.681-0.681-1.49-1.222-2.379-1.591s-1.844-0.559-2.807-0.559-1.917 0.19-2.807 0.559c-0.89 0.369-1.699 0.909-2.38 1.591l-1.413 1.413-1.413-1.413c-1.376-1.376-3.241-2.148-5.187-2.148s-3.811 0.773-5.187 2.148c-1.376 1.376-2.148 3.241-2.148 5.187s0.773 3.811 2.148 5.187l11.787 11.787 11.787-11.787c0.681-0.681 1.222-1.49 1.591-2.38s0.559-1.844 0.559-2.807-0.19-1.917-0.559-2.807c-0.369-0.89-0.909-1.699-1.591-2.38z"></path>
</symbol>
<symbol id="icon-favorites-fill-mobile" viewBox="0 0 32 32">
<path fill="#fdfdff" style="fill: var(--color1, #fdfdff); stroke: var(--color1, #fdfdff)" stroke="#fdfdff" stroke-linejoin="round" stroke-linecap="round" stroke-miterlimit="4" stroke-width="2.6667" d="M27.788 6.146c-0.681-0.681-1.49-1.222-2.38-1.591s-1.844-0.559-2.807-0.559c-0.963 0-1.917 0.19-2.807 0.559s-1.699 0.909-2.38 1.591l-1.413 1.413-1.413-1.413c-1.376-1.376-3.241-2.148-5.187-2.148s-3.811 0.773-5.187 2.148c-1.376 1.376-2.148 3.241-2.148 5.187s0.773 3.811 2.148 5.187l11.787 11.787 11.787-11.787c0.681-0.681 1.222-1.49 1.591-2.38s0.558-1.844 0.558-2.807-0.19-1.917-0.558-2.807c-0.369-0.89-0.909-1.699-1.591-2.38z"></path>
</symbol>
<symbol id="icon-favorites-mobile-white" viewBox="0 0 32 32">
<path fill="none" stroke="#fdfdff" style="stroke: var(--color1, #fdfdff)" stroke-linejoin="round" stroke-linecap="round" stroke-miterlimit="4" stroke-width="2.6667" d="M27.788 6.146c-0.681-0.681-1.49-1.222-2.38-1.591s-1.844-0.559-2.807-0.559c-0.963 0-1.917 0.19-2.807 0.559s-1.699 0.909-2.38 1.591l-1.413 1.413-1.413-1.413c-1.376-1.376-3.241-2.148-5.187-2.148s-3.811 0.773-5.187 2.148c-1.376 1.376-2.148 3.241-2.148 5.187s0.773 3.811 2.148 5.187l11.787 11.787 11.787-11.787c0.681-0.681 1.222-1.49 1.591-2.38s0.558-1.844 0.558-2.807-0.19-1.917-0.558-2.807c-0.369-0.89-0.909-1.699-1.591-2.38z"></path>
</symbol>
<symbol id="icon-trash-tablet-desktop-white" viewBox="0 0 32 32">
<path fill="none" stroke="#fdfdff" style="stroke: var(--color1, #fdfdff)" stroke-linejoin="round" stroke-linecap="round" stroke-miterlimit="4" stroke-width="2.6667" d="M21.333 8v-1.067c0-1.493 0-2.24-0.291-2.811-0.256-0.502-0.664-0.91-1.165-1.165-0.57-0.291-1.317-0.291-2.811-0.291h-2.133c-1.493 0-2.24 0-2.811 0.291-0.502 0.256-0.91 0.664-1.165 1.165-0.291 0.57-0.291 1.317-0.291 2.811v1.067M13.333 15.333v6.667M18.667 15.333v6.667M4 8h24M25.333 8v14.933c0 2.24 0 3.36-0.436 4.216-0.383 0.753-0.995 1.365-1.748 1.748-0.856 0.436-1.976 0.436-4.216 0.436h-5.867c-2.24 0-3.36 0-4.216-0.436-0.753-0.383-1.365-0.995-1.748-1.748-0.436-0.856-0.436-1.976-0.436-4.216v-14.933"></path>
</symbol>
<symbol id="icon-trash-mobile-white" viewBox="0 0 32 32">
<path fill="none" stroke="#fdfdff" style="stroke: var(--color1, #fdfdff)" stroke-linejoin="round" stroke-linecap="round" stroke-miterlimit="4" stroke-width="2.6667" d="M21.333 8v-1.067c0-1.493 0-2.24-0.291-2.811-0.256-0.502-0.664-0.91-1.165-1.165-0.57-0.291-1.317-0.291-2.811-0.291h-2.133c-1.493 0-2.24 0-2.811 0.291-0.502 0.256-0.91 0.664-1.165 1.165-0.291 0.57-0.291 1.317-0.291 2.811v1.067M13.333 15.333v6.667M18.667 15.333v6.667M4 8h24M25.333 8v14.933c0 2.24 0 3.36-0.436 4.216-0.384 0.753-0.996 1.364-1.748 1.748-0.856 0.436-1.976 0.436-4.216 0.436h-5.867c-2.24 0-3.36 0-4.216-0.436-0.753-0.384-1.365-0.996-1.748-1.748-0.436-0.856-0.436-1.976-0.436-4.216v-14.933"></path>
</symbol>
<symbol id="icon-chevron-up-white" viewBox="0 0 32 32">
<path fill="none" stroke="#fdfdff" style="stroke: var(--color1, #fdfdff)" stroke-linejoin="round" stroke-linecap="round" stroke-miterlimit="4" stroke-width="2.6667" d="M8 20l8-8 8 8"></path>
</symbol>
<symbol id="icon-chevron-down-white" viewBox="0 0 32 32">
<path fill="none" stroke="#fdfdff" style="stroke: var(--color1, #fdfdff)" stroke-linejoin="round" stroke-linecap="round" stroke-miterlimit="4" stroke-width="2.6667" d="M8 12l8 8 8-8"></path>
</symbol>
<symbol id="icon-x-close-tablet-white" viewBox="0 0 32 32">
<path fill="none" stroke="#fdfdff" style="stroke: var(--color1, #fdfdff)" stroke-linejoin="round" stroke-linecap="round" stroke-miterlimit="4" stroke-width="1.6" d="M24 8l-16 16"></path>
<path fill="none" stroke="#fdfdff" style="stroke: var(--color1, #fdfdff)" stroke-linejoin="round" stroke-linecap="round" stroke-miterlimit="4" stroke-width="1.6" d="M8 8l16 16"></path>
</symbol>
<symbol id="icon-x-close-mobile-white" viewBox="0 0 32 32">
<path fill="none" stroke="#fdfdff" style="stroke: var(--color1, #fdfdff)" stroke-linejoin="round" stroke-linecap="round" stroke-miterlimit="4" stroke-width="2" d="M24 8l-16 16"></path>
<path fill="none" stroke="#fdfdff" style="stroke: var(--color1, #fdfdff)" stroke-linejoin="round" stroke-linecap="round" stroke-miterlimit="4" stroke-width="2" d="M8 8l16 16"></path>
</symbol>
<symbol id="icon-burger-tablet-white" viewBox="0 0 32 32">
<path fill="none" stroke="#fdfdff" style="stroke: var(--color1, #fdfdff)" stroke-linejoin="round" stroke-linecap="round" stroke-miterlimit="4" stroke-width="1.6" d="M28 13.333h-24"></path>
<path fill="none" stroke="#fdfdff" style="stroke: var(--color1, #fdfdff)" stroke-linejoin="round" stroke-linecap="round" stroke-miterlimit="4" stroke-width="1.6" d="M28 8h-24"></path>
<path fill="none" stroke="#fdfdff" style="stroke: var(--color1, #fdfdff)" stroke-linejoin="round" stroke-linecap="round" stroke-miterlimit="4" stroke-width="1.6" d="M28 18.667h-24"></path>
<path fill="none" stroke="#fdfdff" style="stroke: var(--color1, #fdfdff)" stroke-linejoin="round" stroke-linecap="round" stroke-miterlimit="4" stroke-width="1.6" d="M28 24h-24"></path>
</symbol>
<symbol id="icon-burger-tablet-black" viewBox="0 0 32 32">
<path stroke-linejoin="round" stroke-linecap="round" stroke-miterlimit="4" stroke-width="1.6" d="M28 13.333h-24"></path>
<path stroke-linejoin="round" stroke-linecap="round" stroke-miterlimit="4" stroke-width="1.6" d="M28 8h-24"></path>
<path stroke-linejoin="round" stroke-linecap="round" stroke-miterlimit="4" stroke-width="1.6" d="M28 18.667h-24"></path>
<path stroke-linejoin="round" stroke-linecap="round" stroke-miterlimit="4" stroke-width="1.6" d="M28 24h-24"></path>
</symbol>
<symbol id="icon-burger-mobile-black" viewBox="0 0 32 32">
<path stroke-linejoin="round" stroke-linecap="round" stroke-miterlimit="4" stroke-width="2" d="M28 13.334h-24"></path>
<path stroke-linejoin="round" stroke-linecap="round" stroke-miterlimit="4" stroke-width="2" d="M28 8h-24"></path>
<path stroke-linejoin="round" stroke-linecap="round" stroke-miterlimit="4" stroke-width="2" d="M28 18.666h-24"></path>
<path stroke-linejoin="round" stroke-linecap="round" stroke-miterlimit="4" stroke-width="2" d="M28 24h-24"></path>
</symbol>
<symbol id="icon-burger-mobile-white" viewBox="0 0 32 32">
<path fill="none" stroke="#fdfdff" style="stroke: var(--color1, #fdfdff)" stroke-linejoin="round" stroke-linecap="round" stroke-miterlimit="4" stroke-width="2" d="M28 13.334h-24"></path>
<path fill="none" stroke="#fdfdff" style="stroke: var(--color1, #fdfdff)" stroke-linejoin="round" stroke-linecap="round" stroke-miterlimit="4" stroke-width="2" d="M28 8h-24"></path>
<path fill="none" stroke="#fdfdff" style="stroke: var(--color1, #fdfdff)" stroke-linejoin="round" stroke-linecap="round" stroke-miterlimit="4" stroke-width="2" d="M28 18.666h-24"></path>
<path fill="none" stroke="#fdfdff" style="stroke: var(--color1, #fdfdff)" stroke-linejoin="round" stroke-linecap="round" stroke-miterlimit="4" stroke-width="2" d="M28 24h-24"></path>
</symbol>
<symbol id="icon-logo-tablet-desktop" viewBox="0 0 32 32">
<path fill="#7e8fdd" style="fill: var(--color2, #7e8fdd)" d="M28.357 2.986c-0.062-0.039-0.122-0.069-0.183-0.1-0.742-0.392-1.568-0.596-2.406-0.593h-0.009c-0.917 0.001-1.817 0.244-2.612 0.703s-1.457 1.12-1.919 1.915l-0.014 0.025c-0.375 0.65-0.602 1.375-0.665 2.123l-0.001 0.020h-10.971l-1.227-2.976c-0.276-0.674-0.781-1.226-1.425-1.559s-1.385-0.423-2.090-0.256l0.021-0.005-3.71 0.848 0.23 1.018 3.71-0.848c0.462-0.106 0.945-0.045 1.366 0.173s0.752 0.578 0.935 1.017l0.005 0.014 1.065 2.575h-6.967l11.649 11.716v8.578c-2.705 0.193-4.571 1.094-4.571 2.213v0.208h11.227v-0.208c0-1.117-1.87-2.023-4.571-2.213v-8.578l7.181-7.222c0.225 0.192 0.477 0.37 0.742 0.526l0.025 0.014c1.201 0.687 2.623 0.868 3.957 0.503s2.469-1.245 3.158-2.449 0.878-2.634 0.523-3.976c-0.355-1.343-1.224-2.49-2.417-3.19l-0.025-0.014-0.008-0.002zM29.499 7.017l-2.85 0.008 1.418-2.483c0.775 0.601 1.287 1.481 1.43 2.454l0.002 0.021zM27.17 4.018l-1.418 2.49-1.433-2.475c0.458-0.19 0.949-0.287 1.445-0.285 0.506 0 0.99 0.099 1.432 0.279l-0.025-0.009zM22.471 5.661c0.249-0.436 0.567-0.802 0.943-1.098l0.008-0.006 1.433 2.475-2.843 0.008c0.064-0.516 0.226-0.983 0.469-1.398l-0.009 0.017v0.001zM4.982 8.536h4.070l0.56 1.364h-3.272l-1.358-1.364zM22.004 9.901h-0.929v0.007h-10.346l-0.56-1.364h13.182l-1.346 1.357zM24.341 11.080l1.418-2.49 1.433 2.475c-0.426 0.182-0.922 0.287-1.442 0.287-0.507 0-0.992-0.1-1.434-0.283l0.025 0.010zM29.039 9.446c-0.241 0.423-0.56 0.796-0.942 1.098l-0.008 0.006-1.433-2.475 2.843-0.007c-0.066 0.491-0.225 0.965-0.47 1.395l0.010-0.018-0.001 0.001z"></path>
</symbol>
<symbol id="icon-logo-tablet-menu" viewBox="0 0 32 32">
<path fill="#9cdfdf" style="fill: var(--color3, #9cdfdf)" d="M28.356 2.986c-0.062-0.039-0.122-0.069-0.183-0.1-0.742-0.392-1.568-0.596-2.406-0.593h-0.009c-0.917 0.001-1.817 0.244-2.612 0.703s-1.456 1.12-1.919 1.915l-0.014 0.025c-0.375 0.65-0.602 1.375-0.665 2.123l-0.001 0.020h-10.971l-1.227-2.976c-0.276-0.674-0.781-1.226-1.425-1.559s-1.385-0.423-2.090-0.256l0.021-0.005-3.71 0.848 0.23 1.018 3.71-0.848c0.462-0.106 0.945-0.045 1.366 0.173s0.752 0.578 0.935 1.017l0.005 0.014 1.065 2.575h-6.967l11.649 11.716v8.578c-2.705 0.193-4.571 1.094-4.571 2.213v0.208h11.227v-0.208c0-1.117-1.87-2.023-4.571-2.213v-8.578l7.181-7.222c0.225 0.192 0.477 0.37 0.742 0.526l0.025 0.014c1.201 0.687 2.623 0.868 3.957 0.503s2.469-1.245 3.158-2.449c0.69-1.204 0.878-2.634 0.523-3.976s-1.224-2.49-2.417-3.19l-0.025-0.014-0.008-0.002zM29.498 7.017l-2.85 0.008 1.418-2.483c0.775 0.601 1.287 1.481 1.43 2.454l0.002 0.021zM27.169 4.018l-1.418 2.49-1.433-2.475c0.458-0.19 0.949-0.287 1.445-0.285 0.506 0 0.99 0.099 1.432 0.279l-0.025-0.009zM22.471 5.661c0.249-0.436 0.567-0.802 0.943-1.098l0.008-0.006 1.433 2.475-2.843 0.008c0.064-0.516 0.226-0.983 0.469-1.398l-0.009 0.017v0.001zM4.982 8.536h4.070l0.56 1.364h-3.272l-1.358-1.364zM22.003 9.901h-0.929v0.007h-10.346l-0.56-1.364h13.182l-1.346 1.357zM24.34 11.080l1.418-2.49 1.433 2.475c-0.426 0.182-0.922 0.287-1.442 0.287-0.507 0-0.992-0.1-1.434-0.283l0.025 0.010zM29.039 9.446c-0.241 0.423-0.56 0.796-0.942 1.098l-0.008 0.006-1.433-2.475 2.843-0.007c-0.066 0.491-0.225 0.965-0.47 1.395l0.010-0.018-0.001 0.001z"></path>
</symbol>
<symbol id="icon-logo-mobile-menu" viewBox="0 0 32 32">
<path fill="#9cdfdf" style="fill: var(--color3, #9cdfdf)" d="M28.355 3.060c-0.062-0.039-0.122-0.069-0.183-0.099-0.742-0.39-1.568-0.592-2.406-0.59h-0.009c-0.917 0.001-1.817 0.242-2.612 0.699s-1.457 1.113-1.919 1.904l-0.014 0.025c-0.375 0.646-0.602 1.367-0.665 2.111l-0.001 0.019h-10.971l-1.227-2.959c-0.276-0.67-0.781-1.219-1.425-1.55s-1.385-0.421-2.090-0.255l0.021-0.005-3.71 0.843 0.23 1.013 3.71-0.843c0.462-0.105 0.945-0.044 1.366 0.172s0.752 0.574 0.935 1.011l0.005 0.014 1.065 2.56h-6.967l11.649 11.649v8.529c-2.705 0.192-4.571 1.088-4.571 2.2v0.207h11.227v-0.207c0-1.111-1.87-2.011-4.571-2.2v-8.529l7.181-7.181c0.225 0.191 0.477 0.368 0.742 0.523l0.025 0.014c1.201 0.683 2.623 0.863 3.957 0.5s2.469-1.238 3.158-2.435c0.69-1.197 0.878-2.618 0.523-3.954s-1.224-2.476-2.417-3.172l-0.025-0.014-0.008-0.002zM29.497 7.068l-2.85 0.008 1.418-2.469c0.775 0.598 1.287 1.472 1.43 2.44l0.002 0.021zM27.168 4.087l-1.418 2.475-1.433-2.461c0.458-0.189 0.949-0.285 1.445-0.283 0.506 0 0.99 0.098 1.432 0.278l-0.025-0.009zM22.47 5.72c0.249-0.433 0.567-0.798 0.943-1.091l0.008-0.006 1.433 2.461-2.843 0.008c0.064-0.513 0.226-0.977 0.469-1.39l-0.009 0.017v0.001zM4.981 8.578h4.070l0.56 1.357h-3.272l-1.358-1.357zM22.002 9.936h-0.929v0.007h-10.346l-0.56-1.357h13.182l-1.346 1.35zM24.34 11.108l1.418-2.475 1.433 2.461c-0.426 0.181-0.922 0.286-1.442 0.286-0.507 0-0.992-0.099-1.434-0.281l0.025 0.010zM29.038 9.483c-0.241 0.421-0.56 0.792-0.942 1.091l-0.008 0.006-1.433-2.461 2.843-0.007c-0.066 0.488-0.225 0.96-0.47 1.387l0.010-0.018-0.001 0.001z"></path>
</symbol>
<symbol id="icon-logo-mobile" viewBox="0 0 32 32">
<path fill="#7e8fdd" style="fill: var(--color2, #7e8fdd)" d="M28.355 3.060c-0.062-0.039-0.122-0.069-0.183-0.099-0.742-0.39-1.568-0.592-2.406-0.59h-0.009c-0.917 0.001-1.817 0.242-2.612 0.699s-1.457 1.113-1.919 1.904l-0.014 0.025c-0.375 0.646-0.602 1.367-0.665 2.111l-0.001 0.019h-10.971l-1.227-2.959c-0.276-0.67-0.781-1.219-1.425-1.55s-1.385-0.421-2.090-0.255l0.021-0.005-3.71 0.843 0.23 1.013 3.71-0.843c0.462-0.105 0.945-0.044 1.366 0.172s0.752 0.574 0.935 1.011l0.005 0.014 1.065 2.56h-6.967l11.649 11.649v8.529c-2.705 0.192-4.571 1.088-4.571 2.2v0.207h11.227v-0.207c0-1.111-1.87-2.011-4.571-2.2v-8.529l7.181-7.181c0.225 0.191 0.477 0.368 0.742 0.523l0.025 0.014c1.201 0.683 2.623 0.863 3.957 0.5s2.469-1.238 3.158-2.435c0.69-1.197 0.878-2.618 0.523-3.954s-1.224-2.476-2.417-3.172l-0.025-0.014-0.008-0.002zM29.497 7.068l-2.85 0.008 1.418-2.469c0.775 0.598 1.287 1.472 1.43 2.44l0.002 0.021zM27.168 4.087l-1.418 2.475-1.433-2.461c0.458-0.189 0.949-0.285 1.445-0.283 0.506 0 0.99 0.098 1.432 0.278l-0.025-0.009zM22.47 5.72c0.249-0.433 0.567-0.798 0.943-1.091l0.008-0.006 1.433 2.461-2.843 0.008c0.064-0.513 0.226-0.977 0.469-1.39l-0.009 0.017v0.001zM4.981 8.578h4.070l0.56 1.357h-3.272l-1.358-1.357zM22.002 9.936h-0.929v0.007h-10.346l-0.56-1.357h13.182l-1.346 1.35zM24.34 11.108l1.418-2.475 1.433 2.461c-0.426 0.181-0.922 0.286-1.442 0.286-0.507 0-0.992-0.099-1.434-0.281l0.025 0.010zM29.038 9.483c-0.241 0.421-0.56 0.792-0.942 1.091l-0.008 0.006-1.433-2.461 2.843-0.007c-0.066 0.488-0.225 0.96-0.47 1.387l0.010-0.018-0.001 0.001z"></path>
</symbol>
</defs>
</svg>
