<svg xmlns="http://www.w3.org/2000/svg" aria-hidden="true" style="position:absolute;width:0;height:0;overflow:hidden"><defs><symbol id="icon-chevron-down-violet" viewBox="0 0 56 32"><path fill="none" stroke="#7e8fdd" stroke-linecap="round" stroke-linejoin="round" stroke-width="8" d="m3.998 4 24 24 24-24" style="stroke:var(--color1, #7e8fdd)"/></symbol><symbol id="icon-arrow-left" viewBox="0 0 32 32"><path fill="#7e8fdd" d="m14.419 16 7.376-7.324-2.107-2.092-9.483 9.417 9.483 9.417 2.107-2.092-7.376-7.324z" style="fill:var(--color1, #7e8fdd)"/></symbol><symbol id="icon-arrow-right" viewBox="0 0 32 32"><path fill="#7e8fdd" d="m17.581 16-7.376-7.324 2.107-2.092 9.483 9.417-9.483 9.417-2.107-2.092 7.376-7.324z" style="fill:var(--color1, #7e8fdd)"/></symbol><symbol id="icon-shaker-tablet-desktop" viewBox="0 0 37 32"><path fill="#e6e6e6" d="M18.824 4.039a.943.943 0 0 0-.896.89h-.118s.035-.814-.896-.857l.005-.129c.074 0 .765-.031.867-.866h.118s-.08.752.92.87v.091zM6.251 17.802a.944.944 0 0 0-.896.89h-.118s.035-.814-.896-.857l.005-.129c.073 0 .765-.031.867-.866h.118s-.08.752.92.87v.091zM37.254 17.302a.944.944 0 0 0-.896.89h-.118s.035-.814-.896-.857l.005-.129c.074 0 .765-.031.867-.866h.118s-.08.752.92.87v.091zM13.973 6.969a.679.679 0 0 0-.645.64h-.084s.025-.585-.645-.616l.003-.093c.053 0 .551-.023.623-.622h.084s-.057.54.661.626v.066h.001zM3.019 13.634a.677.677 0 0 0-.644.64h-.084s.025-.585-.644-.616l.003-.093c.053 0 .551-.023.623-.622h.084s-.057.54.661.626v.066h.001zM12.44 23.968a.679.679 0 0 0-.645.641h-.084s.025-.585-.645-.616l.003-.093c.053 0 .551-.023.623-.622h.084s-.057.541.661.625v.066l.001-.001zM34.964 12.677a.439.439 0 0 0-.417.415h-.055s.016-.379-.417-.4l.003-.06c.035 0 .356-.014.404-.403h.055s-.037.351.428.405v.042zM34.207 24.104a.68.68 0 0 0-.645.64h-.084s.025-.585-.644-.616l.003-.093c.053 0 .551-.023.623-.622h.085s-.057.54.661.625v.066h.001zM13.826.631a.535.535 0 0 0-.507.503h-.067s.019-.46-.506-.485l.003-.073c.041 0 .432-.018.49-.489h.067s-.046.425.519.491v.051h.001zM33.96 2.597a.535.535 0 0 0-.507.503h-.067s.019-.46-.506-.485l.003-.072c.041 0 .433-.018.49-.489h.067s-.046.425.519.491v.051h.001zM10.163 19.317a.311.311 0 0 0-.296.293h-.039s.012-.268-.296-.282l.002-.042c.024 0 .253-.01.286-.286h.039s-.026.248.303.287v.03zM7.166 2.894a.312.312 0 0 0-.296.293h-.039s.012-.268-.296-.282l.002-.042c.024 0 .253-.01.286-.286h.039s-.026.248.303.287v.03zM2.832 23.475a.496.496 0 0 0-.47.466H2.3s.019-.427-.469-.449l.003-.067c.039 0 .401-.016.454-.454h.062s-.042.394.481.455v.048zM33.421 7.692a.312.312 0 0 0-.296.293h-.039s.012-.268-.296-.282l.002-.042c.025 0 .253-.01.286-.286h.039s-.026.248.303.287v.03zM24.915.317a.312.312 0 0 0-.296.293h-.039s.012-.268-.296-.282l.002-.042c.025 0 .253-.01.286-.286h.039s-.026.248.303.287v.03zM17.644 21.694a.312.312 0 0 0-.296.293h-.039s.012-.268-.296-.282l.002-.042c.024 0 .253-.01.286-.286h.039s-.026.248.303.287v.03z" style="fill:var(--color2, #e6e6e6)"/><path fill="#fdfdff" d="M35.287 30.541c0 .286-7.899.517-17.644.517s-17.644-.232-17.644-.517 7.899-.517 17.644-.517c9.744 0 17.644.232 17.644.517z" style="fill:var(--color3, #fdfdff)"/><path fill="#9cdfdf" d="M19.704 9.826s.1 3.674.349 5.581 1.896 15.022 1.896 15.022h4.441V1.966h-3.093v3.209s-2.595.698-2.495 3.768l-1.097.883zM33.076 9.826s-.1 3.674-.349 5.581-1.896 15.022-1.896 15.022H26.39V1.966h3.093v3.209s2.595.698 2.495 3.768l1.097.883z" style="fill:var(--color4, #9cdfdf)"/><path fill="#fdfdff" d="M19.704 9.826s.1 3.674.349 5.581 1.896 15.022 1.896 15.022h4.441V1.966h-3.093v3.209s-2.595.698-2.495 3.768l-1.097.883zM33.076 9.826s-.1 3.674-.349 5.581-1.896 15.022-1.896 15.022H26.39V1.966h3.093v3.209s2.595.698 2.495 3.768l1.097.883z" opacity=".5" style="fill:var(--color3, #fdfdff)"/><path fill="#fdfdff" d="m23.876 5.165-.044-3.199h1.536l-.275 3.199h-1.217zM23.61 9.826h-2.986l2.423 20.604h2.873L23.61 9.826z" opacity=".3" style="fill:var(--color3, #fdfdff)"/><path fill="#9cdfdf" d="M19.704 9.826c4.283-.026 9.089-.026 13.372 0-4.283.026-9.089.026-13.372 0z" style="fill:var(--color4, #9cdfdf)"/><path fill="#fdfdff" d="M22.049 8.92s-.097-1.559.414-2.385 1.412-1.37 1.412-1.37h1.217s-1.796.81-1.526 3.755h-1.518z" opacity=".3" style="fill:var(--color3, #fdfdff)"/><path fill="#9cdfdf" d="M4.914 30.43s.391-1.673.559-2.454.335-1.394.335-1.394h2.403s.584 2.636.759 3.703l.023.145h-4.08z" style="fill:var(--color4, #9cdfdf)"/><path fill="#fdfdff" d="M4.914 30.43s.391-1.673.559-2.454.335-1.394.335-1.394h2.403s.584 2.636.759 3.703l.023.145h-4.08z" opacity=".7" style="fill:var(--color3, #fdfdff)"/><path fill="#fdfdff" d="m5.507 30.43.479-3.473h.74l-.121 3.473H5.507z" opacity=".4" style="fill:var(--color3, #fdfdff)"/><path fill="#9cdfdf" d="M4.718 22.147s.084 1.171.307 2.203.475 2.621.475 2.621h2.934s.391-2.175.53-2.705.252-2.119.252-2.119l-4.498.001z" style="fill:var(--color4, #9cdfdf)"/><path fill="#fdfdff" d="M4.718 22.147s.084 1.171.307 2.203.475 2.621.475 2.621h2.934s.391-2.175.53-2.705.252-2.119.252-2.119l-4.498.001z" opacity=".7" style="fill:var(--color3, #fdfdff)"/><path fill="#242424" d="M8.293 26.975H5.684l-.03.211h2.695l-.057-.211z" opacity=".3" style="fill:var(--color5, #242424)"/><path fill="#fdfdff" d="m5.296 22.147.69 4.809h.74s-.656-4.027-.589-4.809h-.841z" opacity=".4" style="fill:var(--color3, #fdfdff)"/><path fill="#7e8fdd" d="M24.552 27.462c.578-2.185-.833-4.451-3.151-5.062s-4.665.665-5.243 2.85c-.578 2.185.833 4.451 3.151 5.062s4.666-.665 5.244-2.85z" style="fill:var(--color1, #7e8fdd)"/><path fill="#242424" d="M24.552 27.462c.578-2.185-.833-4.451-3.151-5.062s-4.665.665-5.243 2.85c-.578 2.185.833 4.451 3.151 5.062s4.666-.665 5.244-2.85z" opacity=".3" style="fill:var(--color5, #242424)"/><path fill="#7e8fdd" d="M23.453 28.675c1.319-1.836.897-4.392-.943-5.709s-4.401-.895-5.72.941c-1.319 1.836-.897 4.392.943 5.709s4.401.895 5.72-.941z" style="fill:var(--color1, #7e8fdd)"/><path fill="#7e8fdd" d="M20.378 30.204c2.168-.145 3.808-2.016 3.664-4.18s-2.02-3.801-4.188-3.657c-2.168.145-3.808 2.016-3.664 4.18s2.02 3.801 4.188 3.657z" style="fill:var(--color1, #7e8fdd)"/><path fill="#fdfdff" d="M20.378 30.204c2.168-.145 3.808-2.016 3.664-4.18s-2.02-3.801-4.188-3.657c-2.168.145-3.808 2.016-3.664 4.18s2.02 3.801 4.188 3.657z" opacity=".8" style="fill:var(--color3, #fdfdff)"/><path fill="#7e8fdd" d="M16.584 25.769c-.1.666-.008 1.346.266 1.962a.224.224 0 0 0 .297.112l.02-.01 2.353-1.368a.1.1 0 0 0 .043-.136.097.097 0 0 0-.066-.051l-2.637-.693a.224.224 0 0 0-.272.159l-.005.025h.001zM19.668 26.719l-2.354 1.367a.223.223 0 0 0-.066.325c.401.541.949.957 1.578 1.2a.224.224 0 0 0 .297-.15l.695-2.629a.1.1 0 0 0-.149-.113v-.001zM20.103 26.908l-.695 2.629a.222.222 0 0 0 .185.277 3.562 3.562 0 0 0 1.965-.266.222.222 0 0 0 .115-.293l-.012-.023-1.371-2.349a.101.101 0 0 0-.187.025v-.001zM16.937 25.301l2.633.693a.103.103 0 0 0 .125-.072.103.103 0 0 0-.01-.077l-1.371-2.349a.224.224 0 0 0-.305-.08l-.02.013c-.542.401-.96.946-1.202 1.574a.223.223 0 0 0 .128.289l.024.008h-.001zM20.543 26.735l1.371 2.349a.224.224 0 0 0 .305.08c.007-.004.014-.008.02-.014.542-.4.96-.947 1.202-1.575a.221.221 0 0 0-.152-.296l-2.634-.694a.102.102 0 0 0-.114.151l.001-.001zM20.125 25.675l.695-2.629a.223.223 0 0 0-.16-.273l-.024-.005a3.557 3.557 0 0 0-1.966.267.223.223 0 0 0-.114.294l.011.022 1.371 2.349a.102.102 0 0 0 .186-.025h.001zM20.559 25.863l2.353-1.368a.22.22 0 0 0 .067-.324 3.562 3.562 0 0 0-1.578-1.2.223.223 0 0 0-.297.151l-.695 2.629a.102.102 0 0 0 .151.114l-.001-.001zM20.732 26.302l2.633.693a.222.222 0 0 0 .272-.157c.003-.008.004-.018.005-.026.1-.666.008-1.346-.265-1.962a.224.224 0 0 0-.297-.112l-.02.011-2.354 1.367a.101.101 0 0 0-.035.139c.014.023.036.04.062.047z" style="fill:var(--color1, #7e8fdd)"/><path fill="#fdfdff" d="M16.584 25.769c-.1.666-.008 1.346.266 1.963a.224.224 0 0 0 .297.112l.02-.01 2.353-1.368a.1.1 0 0 0 .043-.136.097.097 0 0 0-.066-.051l-2.637-.693a.223.223 0 0 0-.272.159l-.005.024h.001zM19.668 26.719l-2.354 1.367a.223.223 0 0 0-.066.325c.401.541.949.957 1.578 1.2a.224.224 0 0 0 .297-.15l.695-2.629a.1.1 0 0 0-.149-.113v-.001zM20.103 26.908l-.695 2.629a.222.222 0 0 0 .185.277 3.562 3.562 0 0 0 1.965-.266.222.222 0 0 0 .115-.293c-.003-.008-.008-.015-.012-.023l-1.371-2.349a.101.101 0 0 0-.187.025v-.001zM16.937 25.301l2.633.693a.103.103 0 0 0 .125-.072.103.103 0 0 0-.01-.077l-1.371-2.349a.223.223 0 0 0-.305-.08l-.02.013c-.542.401-.96.946-1.202 1.574a.223.223 0 0 0 .128.289l.024.008h-.001zM20.543 26.735l1.371 2.349a.224.224 0 0 0 .305.08c.007-.004.014-.008.02-.014.542-.4.96-.947 1.202-1.575a.221.221 0 0 0-.127-.288c-.008-.003-.016-.006-.025-.007l-2.634-.694a.103.103 0 0 0-.125.072.102.102 0 0 0 .011.078l.001-.001zM20.125 25.675l.695-2.629a.223.223 0 0 0-.16-.273l-.024-.005a3.557 3.557 0 0 0-1.966.267.223.223 0 0 0-.114.294l.011.022 1.371 2.349a.102.102 0 0 0 .186-.025h.001zM20.559 25.863l2.353-1.368a.22.22 0 0 0 .08-.304l-.013-.02a3.562 3.562 0 0 0-1.578-1.2.223.223 0 0 0-.297.151l-.695 2.628a.102.102 0 0 0 .151.114l-.001-.001zM20.732 26.302l2.633.693a.222.222 0 0 0 .272-.157c.003-.008.004-.018.005-.026.1-.666.008-1.346-.265-1.962a.224.224 0 0 0-.297-.112l-.02.011-2.354 1.367a.101.101 0 0 0 .027.185z" opacity=".3" style="fill:var(--color3, #fdfdff)"/><path fill="#7e8fdd" d="M18.145 26.48c.112-.014.209.017.216.071s-.078.109-.191.123c-.112.014-.209-.017-.216-.071s.078-.11.191-.123z" style="fill:var(--color1, #7e8fdd)"/><path fill="#fdfdff" d="M18.145 26.48c.112-.014.209.017.216.071s-.078.109-.191.123c-.112.014-.209-.017-.216-.071s.078-.11.191-.123z" opacity=".6" style="fill:var(--color3, #fdfdff)"/><path fill="#7e8fdd" d="M18.824 27.57c.084-.075.182-.103.218-.063s-.003.134-.088.209c-.085.074-.182.104-.219.063s.006-.131.089-.209z" style="fill:var(--color1, #7e8fdd)"/><path fill="#fdfdff" d="M18.824 27.57c.084-.075.182-.103.218-.063s-.003.134-.088.209c-.085.074-.182.104-.219.063s.006-.131.089-.209z" opacity=".6" style="fill:var(--color3, #fdfdff)"/><path fill="#7e8fdd" d="M18.781 28.475c.067-.091.155-.14.199-.108s.025.131-.04.223c-.066.092-.156.14-.199.108s-.026-.131.041-.223z" style="fill:var(--color1, #7e8fdd)"/><path fill="#fdfdff" d="M18.781 28.475c.067-.091.155-.14.199-.108s.025.131-.04.223c-.066.092-.156.14-.199.108s-.026-.131.041-.223z" opacity=".6" style="fill:var(--color3, #fdfdff)"/><path fill="#7e8fdd" d="M21.276 24.023c.061-.096.146-.15.192-.122s.035.129-.025.226c-.06.097-.146.15-.192.122s-.033-.128.025-.226z" style="fill:var(--color1, #7e8fdd)"/><path fill="#fdfdff" d="M21.276 24.023c.061-.096.146-.15.192-.122s.035.129-.025.226c-.06.097-.146.15-.192.122s-.033-.128.025-.226z" opacity=".6" style="fill:var(--color3, #fdfdff)"/><path fill="#7e8fdd" d="M21.251 24.907c.066-.092.155-.14.199-.109s.025.131-.041.223-.155.14-.199.109-.026-.131.041-.223z" style="fill:var(--color1, #7e8fdd)"/><path fill="#fdfdff" d="M21.251 24.907c.066-.092.155-.14.199-.109s.025.131-.041.223-.155.14-.199.109-.026-.131.041-.223zM22.422 26.111c.112-.018.209.011.218.064s-.075.11-.188.129c-.111.019-.209-.011-.218-.064s.074-.111.188-.129zM18.157 24.639c-.072-.088-.095-.186-.053-.22s.134.01.205.097c.072.088.096.186.053.22s-.133-.009-.205-.097zM18.426 25.375c-.113-.006-.202-.056-.199-.109s.098-.092.21-.086c.113.006.202.056.199.11s-.097.093-.21.086v-.001zM19.483 23.987c-.012-.112.024-.207.077-.213.053-.005.106.082.117.194s-.024.207-.077.213c-.053.005-.106-.081-.117-.194z" opacity=".6" style="fill:var(--color3, #fdfdff)"/><path fill="#7e8fdd" d="M20.639 28.754c-.012-.111.022-.207.074-.213s.107.081.119.194c.013.112-.022.207-.074.213s-.106-.081-.119-.194z" style="fill:var(--color1, #7e8fdd)"/><path fill="#fdfdff" d="M20.639 28.754c-.012-.111.022-.207.074-.213s.107.081.119.194c.013.112-.022.207-.074.213s-.106-.081-.119-.194z" opacity=".6" style="fill:var(--color3, #fdfdff)"/><path fill="#7e8fdd" d="M21.516 27.356c-.095-.063-.146-.15-.117-.195s.131-.031.226.031.146.149.117.195-.132.03-.226-.031z" style="fill:var(--color1, #7e8fdd)"/><path fill="#fdfdff" d="M21.516 27.356c-.095-.063-.146-.15-.117-.195s.131-.031.226.031.146.149.117.195-.132.03-.226-.031z" opacity=".6" style="fill:var(--color3, #fdfdff)"/><path fill="#7e8fdd" d="M22.297 10.996H6.42s.091 4.781 5.064 5.828c0 0-.33 3.322 2.464 3.659v7.954c-2.952.189-4.185 1.994-4.185 1.994h9.555s-1.395-1.806-4.366-1.994v-7.979c2.599-.456 2.282-3.633 2.282-3.633 4.973-1.047 5.064-5.828 5.064-5.828v-.001z" style="fill:var(--color1, #7e8fdd)"/><path fill="#fdfdff" d="M22.297 10.996H6.42s.091 4.781 5.064 5.828c0 0-.33 3.322 2.464 3.659v7.954c-2.952.189-4.185 1.994-4.185 1.994h9.555s-1.395-1.806-4.366-1.994v-7.979c2.599-.456 2.282-3.633 2.282-3.633 4.973-1.047 5.064-5.828 5.064-5.828v-.001z" opacity=".7" style="fill:var(--color3, #fdfdff)"/><path fill="#fdfdff" d="M21.459 10.996H7.662s.145 4.25 4.467 5.164c0 0-.473 3.613 2.35 3.613h.209c2.259-.398 2.004-3.708 2.004-3.708 4.562-1.133 4.768-5.07 4.768-5.07h-.001z" opacity=".4" style="fill:var(--color3, #fdfdff)"/><path fill="#7e8fdd" d="M22.297 10.996c0 .305-3.554.553-7.938.553s-7.938-.248-7.938-.553 3.554-.553 7.938-.553 7.938.248 7.938.553z" opacity=".9" style="fill:var(--color1, #7e8fdd)"/><path fill="#fdfdff" d="M22.297 10.996c0 .305-3.554.553-7.938.553s-7.938-.248-7.938-.553 3.554-.553 7.938-.553 7.938.248 7.938.553z" opacity=".7" style="fill:var(--color3, #fdfdff)"/><path fill="#7e8fdd" d="M20.332 13.819c-.678 1.098-1.93 1.822-3.641 2.247 0 0 .255 3.311-2.004 3.708h-.209c-2.823 0-2.35-3.613-2.35-3.613-1.621-.343-2.869-1.079-3.565-2.407 0 0 2.254-.159 4.233.156s3.262.561 5.287.18a15.851 15.851 0 0 1 2.249-.271l.001.001z" opacity=".9" style="fill:var(--color1, #7e8fdd)"/><path fill="#242424" d="M8.563 13.753s2.875 1.315 6.949 1.064 4.82-.998 4.82-.998-1.227.028-2.248.271c-1.021.243-2.619.191-3.324.11-.686-.078-3.651-.683-6.197-.446v-.001z" opacity=".3" style="fill:var(--color5, #242424)"/><path fill="#7e8fdd" d="M11.309 15.546 2.926 4.518l.417-.344 8.441 11.073s.007.405-.476.299v-.001z" style="fill:var(--color1, #7e8fdd)"/><path fill="#242424" d="M11.309 15.546 2.926 4.518l.417-.344 8.441 11.073s.007.405-.476.299v-.001z" opacity=".3" style="fill:var(--color5, #242424)"/><path fill="#7e8fdd" d="M10.565 8.279a4.063 4.063 0 0 0-.182-.3c-1.27-1.902-3.758-2.473-5.557-1.276s-2.227 3.71-.957 5.61c.065.099.135.192.208.284l6.489-4.319z" style="fill:var(--color1, #7e8fdd)"/><path fill="#242424" d="M10.565 8.279a4.063 4.063 0 0 0-.182-.3c-1.27-1.902-3.758-2.473-5.557-1.276s-2.227 3.71-.957 5.61c.065.099.135.192.208.284l6.489-4.319z" opacity=".3" style="fill:var(--color5, #242424)"/><path fill="#7e8fdd" d="m10.575 8.273-.064-.102c-1.199-1.796-3.63-2.28-5.429-1.083s-2.285 3.623-1.085 5.418l.069.099 6.509-4.332z" style="fill:var(--color1, #7e8fdd)"/><path fill="#fdfdff" d="M10.439 8.358a3.762 3.762 0 0 0-5.271-1.135 3.746 3.746 0 0 0-1.042 5.201c.022.032.044.062.063.092l6.25-4.157z" opacity=".8" style="fill:var(--color3, #fdfdff)"/><path fill="#7e8fdd" d="m7.656 9.911 2.16-1.443a.214.214 0 0 0 .056-.298c-.003-.006-.008-.011-.012-.016a3.396 3.396 0 0 0-1.574-1.052.215.215 0 0 0-.268.138l-.006.023-.509 2.545a.098.098 0 0 0 .075.117c.027.006.056 0 .079-.016v.002zM7.232 9.756l.51-2.546a.212.212 0 0 0-.19-.253 3.4 3.4 0 0 0-1.858.368.211.211 0 0 0-.08.307L7.06 9.794a.099.099 0 0 0 .173-.036zM6.668 10.37l-2.551-.51a.214.214 0 0 0-.255.192 3.389 3.389 0 0 0 .368 1.855.213.213 0 0 0 .287.092c.007-.003.014-.008.02-.012l2.164-1.441a.098.098 0 0 0-.035-.174l.001-.001zM6.822 9.945l-1.444-2.16a.215.215 0 0 0-.298-.056c-.006.003-.011.008-.016.012A3.384 3.384 0 0 0 4.01 9.312a.214.214 0 0 0 .139.268c.007.003.014.004.022.006l2.55.508a.097.097 0 0 0 .113-.081.098.098 0 0 0-.014-.069h.002z" style="fill:var(--color1, #7e8fdd)"/><path fill="#fdfdff" d="m7.656 9.911 2.16-1.443a.214.214 0 0 0 .056-.298c-.003-.006-.008-.011-.012-.016a3.396 3.396 0 0 0-1.574-1.052.215.215 0 0 0-.268.138l-.006.023-.509 2.545a.098.098 0 0 0 .075.117c.027.006.056 0 .079-.016v.002zM7.232 9.756l.51-2.546a.212.212 0 0 0-.19-.253 3.4 3.4 0 0 0-1.858.368.211.211 0 0 0-.08.307L7.06 9.794a.099.099 0 0 0 .173-.036zM6.668 10.37l-2.551-.51a.214.214 0 0 0-.255.192 3.389 3.389 0 0 0 .368 1.855.213.213 0 0 0 .287.092c.007-.003.014-.008.02-.012l2.164-1.441a.098.098 0 0 0-.035-.174l.001-.001zM6.822 9.945l-1.444-2.16a.215.215 0 0 0-.298-.056c-.006.003-.011.008-.016.012A3.384 3.384 0 0 0 4.01 9.312a.214.214 0 0 0 .139.268c.007.003.014.004.022.006l2.55.508a.097.097 0 0 0 .113-.081.098.098 0 0 0-.014-.069h.002z" opacity=".3" style="fill:var(--color3, #fdfdff)"/><path fill="#7e8fdd" d="M4.987 11.231c-.104.031-.199.016-.214-.033s.057-.116.16-.146c.104-.031.2-.015.215.035s-.058.116-.16.145l-.001-.001z" style="fill:var(--color1, #7e8fdd)"/><path fill="#fdfdff" d="M4.987 11.231c-.104.031-.199.016-.214-.033s.057-.116.16-.146c.104-.031.2-.015.215.035s-.058.116-.16.145l-.001-.001z" opacity=".6" style="fill:var(--color3, #fdfdff)"/><path fill="#7e8fdd" d="M5.566 10.615c-.106.024-.201.003-.211-.048s.062-.112.169-.132c.107-.02.201-.003.212.049s-.064.109-.17.132v-.001z" style="fill:var(--color1, #7e8fdd)"/><path fill="#fdfdff" d="M5.566 10.615c-.106.024-.201.003-.211-.048s.062-.112.169-.132c.107-.02.201-.003.212.049s-.064.109-.17.132v-.001z" opacity=".6" style="fill:var(--color3, #fdfdff)"/><path fill="#7e8fdd" d="M8.444 8.252c-.063.087-.149.135-.191.105s-.024-.126.037-.213.148-.135.19-.105c.042.03.025.126-.036.214z" style="fill:var(--color1, #7e8fdd)"/><path fill="#fdfdff" d="M8.444 8.252c-.063.087-.149.135-.191.105s-.024-.126.037-.213.148-.135.19-.105c.042.03.025.126-.036.214zM5.611 9.095c.08.073.118.163.083.201s-.128.011-.208-.061c-.08-.072-.117-.162-.083-.201s.128-.011.208.061z" opacity=".6" style="fill:var(--color3, #fdfdff)"/><path fill="#7e8fdd" d="M5.289 6.007a.841.841 0 1 1-1.674.166.841.841 0 0 1 1.674-.166z" style="fill:var(--color1, #7e8fdd)"/><path fill="#fdfdff" d="M3.803 5.766s-.202.328-.024.649.438.384.438.384.005-.325-.02-.639-.394-.395-.394-.395h.001z" opacity=".3" style="fill:var(--color3, #fdfdff)"/><path fill="#fdfdff" d="M21.432 11.282c-4.462.361-9.048.348-13.743.002 0 0 .012 2.129 1.872 3.71.622.529 1.492.937 2.574 1.165 0 0-.473 3.613 2.35 3.613h.209c2.259-.398 2.004-3.708 2.004-3.708 1.011-.251 1.802-.53 2.431-.983 2.207-1.592 2.303-3.8 2.303-3.8z" opacity=".27" style="fill:var(--color3, #fdfdff)"/><path fill="#9cdfdf" d="M22.297 10.996c-.005.044-.052.064-.087.082-.271.109-.568.137-.855.18-.993.124-1.994.175-2.994.22-3.663.12-7.35.156-10.999-.22-.287-.043-.584-.072-.855-.18-.035-.019-.081-.039-.087-.082.005.044.052.063.087.082.271.108.568.136.855.178 3.651.366 7.335.315 10.999.212.999-.042 2-.091 2.994-.212.287-.042.584-.07.855-.178.035-.019.081-.038.087-.082z" style="fill:var(--color4, #9cdfdf)"/><path fill="#242424" d="M13.948 20.482v.21s.547.105 1.003-.032v-.203c-.371.091-.593.087-.981.03z" opacity=".3" style="fill:var(--color5, #242424)"/><path fill="#9cdfdf" d="M12.941 28.593a6.196 6.196 0 0 1 2.837-.071 7.025 7.025 0 0 0-2.837.071z" style="fill:var(--color4, #9cdfdf)"/><path fill="#fdfdff" d="M14.359 17.242a.228.228 0 1 0 0-.455.228.228 0 0 0 0 .455zM13.72 17.766a.174.174 0 1 1-.348 0 .174.174 0 0 1 .348 0zM15.881 18.303c.062 0 .112-.05.112-.111a.112.112 0 0 0-.223 0c0 .061.05.111.111.111zM13.398 16.855a.11.11 0 1 0 0-.222.11.11 0 1 0 0 .222zM15.424 18.719a.281.281 0 1 1-.562 0 .281.281 0 0 1 .562 0z" opacity=".3" style="fill:var(--color3, #fdfdff)"/></symbol><symbol id="icon-shaker-mobile" viewBox="0 0 37 32"><path fill="#fdfdff" d="M18.822 4.039a.944.944 0 0 0-.896.89h-.118s.035-.813-.896-.856l.005-.129c.073 0 .765-.031.867-.865h.118s-.08.752.92.87v.091zM6.262 17.793a.944.944 0 0 0-.896.89h-.118s.035-.813-.896-.856l.005-.129c.073 0 .765-.031.867-.866h.118s-.08.752.92.87v.091zM37.246 17.294a.944.944 0 0 0-.896.89h-.118s.036-.813-.896-.856l.005-.129c.073 0 .765-.031.867-.866h.118s-.08.752.92.87v.091zM13.977 6.966a.677.677 0 0 0-.644.64h-.084s.025-.585-.644-.616l.003-.093c.053 0 .551-.023.623-.622h.084s-.057.54.661.625v.066h.001zM3.029 13.626a.677.677 0 0 0-.644.64h-.084s.025-.585-.644-.616l.003-.093c.053 0 .551-.023.623-.622h.084s-.057.54.661.625v.066h.001zM12.447 23.959a.677.677 0 0 0-.644.64h-.084s.025-.585-.644-.616l.003-.093c.053 0 .551-.023.623-.622h.084s-.057.54.661.625v.066l.001-.001zM34.954 12.67a.439.439 0 0 0-.417.415h-.055s.016-.379-.417-.399l.003-.06c.035 0 .356-.014.403-.403h.055s-.037.351.428.405v.042zM34.2 24.093a.678.678 0 0 0-.644.64h-.084s.025-.585-.644-.616l.003-.093c.053 0 .551-.023.623-.622h.084s-.057.54.661.625v.066h.001zM13.829.629a.535.535 0 0 0-.507.503h-.067s.019-.46-.506-.485l.003-.072c.041 0 .432-.018.49-.489h.067s-.046.425.519.491v.051h.001zM33.953 2.595a.535.535 0 0 0-.507.503h-.067s.019-.46-.506-.485l.003-.072c.041 0 .432-.018.49-.489h.067s-.046.425.519.491v.051h.001zM10.176 19.308a.312.312 0 0 0-.296.293h-.039s.012-.268-.296-.282l.002-.042c.024 0 .253-.01.286-.286h.039s-.026.248.303.287v.03zM7.181 2.892a.312.312 0 0 0-.296.293h-.039s.012-.268-.296-.282l.002-.042c.024 0 .253-.01.286-.286h.039s-.026.248.303.287v.03zM2.837 23.465a.493.493 0 0 0-.469.466h-.062s.019-.426-.469-.448l.003-.067c.039 0 .401-.016.454-.453h.062s-.042.394.481.455v.048zM33.413 7.688a.312.312 0 0 0-.296.293h-.039s.012-.268-.296-.282l.002-.042c.024 0 .253-.01.286-.286h.039s-.026.248.303.287v.03zM24.916.317a.312.312 0 0 0-.296.293h-.039s.012-.268-.296-.282l.002-.042c.024 0 .253-.01.286-.286h.039s-.026.248.303.287v.03zM17.652 21.684a.312.312 0 0 0-.296.293h-.039s.012-.268-.296-.282l.002-.042c.024 0 .253-.01.286-.286h.039s-.026.248.303.287v.03zM35.27 30.526c0 .286-7.896.517-17.635.517S0 30.811 0 30.526c0-.285 7.895-.516 17.635-.516s17.635.232 17.635.516z" style="fill:var(--color3, #fdfdff)"/><path fill="#9cdfdf" d="M19.704 9.82s.1 3.672.349 5.578 1.895 15.015 1.895 15.015h4.438V1.963h-3.092v3.208S20.7 5.869 20.8 8.937l-1.097.883zM33.068 9.82s-.1 3.672-.349 5.578-1.895 15.015-1.895 15.015h-4.438V1.963h3.092v3.208s2.594.698 2.494 3.766l1.097.883z" style="fill:var(--color4, #9cdfdf)"/><path fill="#fdfdff" d="M19.704 9.82s.1 3.672.349 5.578 1.895 15.015 1.895 15.015h4.438V1.963h-3.092v3.208S20.7 5.869 20.8 8.937l-1.097.883zM33.068 9.82s-.1 3.672-.349 5.578-1.895 15.015-1.895 15.015h-4.438V1.963h3.092v3.208s2.594.698 2.494 3.766l1.097.883z" opacity=".5" style="fill:var(--color3, #fdfdff)"/><path fill="#fdfdff" d="m23.869 5.162-.044-3.198h1.535l-.274 3.198h-1.217zM23.603 9.82h-2.985l2.422 20.596h2.872L23.603 9.82z" opacity=".3" style="fill:var(--color3, #fdfdff)"/><path fill="#9cdfdf" d="M19.704 9.82c4.282-.026 9.086-.026 13.367 0-4.282.026-9.085.026-13.367 0z" style="fill:var(--color4, #9cdfdf)"/><path fill="#fdfdff" d="M22.049 8.914s-.097-1.558.414-2.384 1.412-1.369 1.412-1.369h1.217s-1.795.81-1.525 3.754H22.05z" opacity=".3" style="fill:var(--color3, #fdfdff)"/><path fill="#9cdfdf" d="M4.91 30.417s.391-1.673.559-2.453.335-1.394.335-1.394h2.402s.583 2.635.759 3.702l.023.145H4.91z" style="fill:var(--color4, #9cdfdf)"/><path fill="#fdfdff" d="M4.91 30.417s.391-1.673.559-2.453.335-1.394.335-1.394h2.402s.583 2.635.759 3.702l.023.145H4.91z" opacity=".7" style="fill:var(--color3, #fdfdff)"/><path fill="#fdfdff" d="m5.504 30.418.479-3.472h.74l-.121 3.472H5.504z" opacity=".4" style="fill:var(--color3, #fdfdff)"/><path fill="#9cdfdf" d="M4.721 22.139s.084 1.171.307 2.202.475 2.62.475 2.62h2.933s.391-2.174.53-2.704.252-2.119.252-2.119l-4.496.001z" style="fill:var(--color4, #9cdfdf)"/><path fill="#fdfdff" d="M4.721 22.139s.084 1.171.307 2.202.475 2.62.475 2.62h2.933s.391-2.174.53-2.704.252-2.119.252-2.119l-4.496.001z" opacity=".7" style="fill:var(--color3, #fdfdff)"/><path fill="#242424" d="M8.289 26.963H5.681l-.03.211h2.694l-.057-.211z" opacity=".3" style="fill:var(--color5, #242424)"/><path fill="#fdfdff" d="m5.296 22.139.69 4.807h.74s-.656-4.026-.589-4.807h-.841z" opacity=".4" style="fill:var(--color3, #fdfdff)"/><path fill="#7e8fdd" d="M24.534 27.45c.578-2.184-.832-4.449-3.149-5.06s-4.664.665-5.242 2.849c-.578 2.184.832 4.449 3.149 5.06s4.664-.665 5.242-2.849z" style="fill:var(--color1, #7e8fdd)"/><path fill="#242424" d="M24.534 27.45c.578-2.184-.832-4.449-3.149-5.06s-4.664.665-5.242 2.849c-.578 2.184.832 4.449 3.149 5.06s4.664-.665 5.242-2.849z" opacity=".3" style="fill:var(--color5, #242424)"/><path fill="#7e8fdd" d="M23.442 28.663c1.319-1.836.897-4.391-.942-5.707s-4.399-.895-5.718.941c-1.319 1.836-.897 4.391.942 5.707s4.399.895 5.718-.941z" style="fill:var(--color1, #7e8fdd)"/><path fill="#7e8fdd" d="M20.366 30.192c2.167-.144 3.807-2.015 3.662-4.178s-2.019-3.8-4.186-3.655c-2.167.144-3.807 2.015-3.662 4.178s2.019 3.8 4.186 3.655z" style="fill:var(--color1, #7e8fdd)"/><path fill="#fdfdff" d="M20.366 30.192c2.167-.144 3.807-2.015 3.662-4.178s-2.019-3.8-4.186-3.655c-2.167.144-3.807 2.015-3.662 4.178s2.019 3.8 4.186 3.655z" opacity=".8" style="fill:var(--color3, #fdfdff)"/><path fill="#7e8fdd" d="M16.579 25.758c-.1.666-.008 1.346.266 1.962a.223.223 0 0 0 .296.112l.02-.01 2.352-1.368a.1.1 0 0 0 .043-.136.097.097 0 0 0-.066-.051l-2.636-.693a.223.223 0 0 0-.272.159l-.005.024h.001zM19.658 26.708l-2.353 1.367a.223.223 0 0 0-.066.325 3.55 3.55 0 0 0 1.577 1.199.224.224 0 0 0 .29-.128l.008-.022.695-2.628a.1.1 0 0 0-.15-.113v-.001zM20.084 26.897l-.695 2.628a.222.222 0 0 0 .185.277 3.566 3.566 0 0 0 1.964-.265.222.222 0 0 0 .115-.293c-.003-.008-.008-.015-.012-.023l-1.37-2.348a.101.101 0 0 0-.187.025v-.001zM16.924 25.291l2.632.693a.103.103 0 0 0 .125-.072.103.103 0 0 0-.01-.077l-1.37-2.348a.223.223 0 0 0-.305-.08c-.007.004-.014.008-.02.014a3.55 3.55 0 0 0-1.202 1.573.223.223 0 0 0 .128.289l.024.008h-.001zM20.539 26.725l1.37 2.348a.223.223 0 0 0 .305.08l.02-.013c.542-.4.959-.946 1.202-1.574a.222.222 0 0 0-.151-.296l-2.633-.694a.103.103 0 0 0-.125.072.102.102 0 0 0 .011.078l.001-.001zM20.109 25.664l.695-2.628a.224.224 0 0 0-.16-.273l-.024-.005a3.561 3.561 0 0 0-1.965.266.223.223 0 0 0-.114.294l.011.022 1.37 2.348a.102.102 0 0 0 .185-.025h.001zM20.548 25.852l2.352-1.368a.221.221 0 0 0 .066-.324 3.557 3.557 0 0 0-1.577-1.199.223.223 0 0 0-.297.15l-.695 2.628a.102.102 0 0 0 .151.114l-.001-.001zM20.72 26.29l2.632.693a.222.222 0 0 0 .272-.157c.003-.009.004-.018.005-.026a3.529 3.529 0 0 0-.265-1.961.223.223 0 0 0-.316-.101l-2.353 1.367a.101.101 0 0 0 .027.185z" style="fill:var(--color1, #7e8fdd)"/><path fill="#fdfdff" d="M16.569 25.757c-.1.666-.008 1.346.266 1.962a.223.223 0 0 0 .296.112l.02-.01 2.352-1.368a.1.1 0 0 0 .043-.136.097.097 0 0 0-.066-.051l-2.636-.693a.223.223 0 0 0-.272.159l-.005.024h.001zM19.654 26.707l-2.353 1.367a.223.223 0 0 0-.066.325 3.55 3.55 0 0 0 1.577 1.199.224.224 0 0 0 .29-.128l.008-.022.695-2.627a.1.1 0 0 0-.149-.113v-.001zM20.093 26.896l-.695 2.628a.222.222 0 0 0 .185.277 3.566 3.566 0 0 0 1.964-.265.222.222 0 0 0 .115-.293c-.003-.008-.008-.015-.012-.023l-1.37-2.348a.101.101 0 0 0-.187.025v-.001zM16.925 25.292l2.632.693a.103.103 0 0 0 .125-.072.103.103 0 0 0-.01-.077l-1.37-2.348a.223.223 0 0 0-.305-.08l-.02.013a3.55 3.55 0 0 0-1.202 1.573.223.223 0 0 0 .128.289l.024.008h-.001zM20.518 26.723l1.37 2.348a.223.223 0 0 0 .305.08l.02-.013c.542-.4.959-.946 1.202-1.574a.222.222 0 0 0-.127-.288c-.008-.003-.016-.006-.024-.007l-2.633-.694a.103.103 0 0 0-.125.073.099.099 0 0 0 .011.077l.001-.001zM20.117 25.664l.695-2.628a.224.224 0 0 0-.16-.273l-.024-.005a3.561 3.561 0 0 0-1.965.266.223.223 0 0 0-.114.294l.011.022 1.37 2.348a.102.102 0 0 0 .185-.025h.001zM20.545 25.853l2.352-1.368a.221.221 0 0 0 .066-.324 3.557 3.557 0 0 0-1.577-1.199.223.223 0 0 0-.297.15l-.695 2.628a.102.102 0 0 0 .151.114l-.001-.001zM20.715 26.292l2.632.693a.222.222 0 0 0 .272-.157c.003-.008.004-.018.005-.026.1-.666.008-1.346-.265-1.961a.223.223 0 0 0-.316-.101l-2.353 1.367a.101.101 0 0 0 .027.185z" opacity=".3" style="fill:var(--color3, #fdfdff)"/><path fill="#7e8fdd" d="M18.13 26.469c.112-.014.209.017.216.071s-.079.109-.191.123-.209-.017-.216-.071c-.008-.054.078-.11.191-.123z" style="fill:var(--color1, #7e8fdd)"/><path fill="#fdfdff" d="M18.13 26.469c.112-.014.209.017.216.071s-.079.109-.191.123-.209-.017-.216-.071c-.008-.054.078-.11.191-.123z" opacity=".6" style="fill:var(--color3, #fdfdff)"/><path fill="#7e8fdd" d="M18.823 27.559c.084-.075.182-.103.218-.063s-.003.134-.088.209c-.084.074-.182.104-.219.063s.006-.131.089-.209z" style="fill:var(--color1, #7e8fdd)"/><path fill="#fdfdff" d="M18.823 27.559c.084-.075.182-.103.218-.063s-.003.134-.088.209c-.084.074-.182.104-.219.063s.006-.131.089-.209z" opacity=".6" style="fill:var(--color3, #fdfdff)"/><path fill="#7e8fdd" d="M18.781 28.464c.067-.091.155-.14.199-.108s.025.132-.041.223c-.066.092-.155.14-.199.108s-.026-.131.041-.223z" style="fill:var(--color1, #7e8fdd)"/><path fill="#fdfdff" d="M18.781 28.464c.067-.091.155-.14.199-.108s.025.132-.041.223c-.066.092-.155.14-.199.108s-.026-.131.041-.223z" opacity=".6" style="fill:var(--color3, #fdfdff)"/><path fill="#7e8fdd" d="M21.258 24.013c.061-.096.146-.15.192-.122s.035.129-.025.226-.146.15-.192.122c-.046-.029-.033-.128.025-.226z" style="fill:var(--color1, #7e8fdd)"/><path fill="#fdfdff" d="M21.258 24.013c.061-.096.146-.15.192-.122s.035.129-.025.226-.146.15-.192.122c-.046-.029-.033-.128.025-.226z" opacity=".6" style="fill:var(--color3, #fdfdff)"/><path fill="#7e8fdd" d="M21.249 24.896c.066-.092.155-.14.199-.109s.025.131-.041.223-.155.14-.199.109-.026-.131.041-.223z" style="fill:var(--color1, #7e8fdd)"/><path fill="#fdfdff" d="M21.249 24.896c.066-.092.155-.14.199-.109s.025.131-.041.223-.155.14-.199.109-.026-.131.041-.223zM22.405 26.1c.111-.019.209.011.218.064s-.075.11-.188.129c-.111.018-.209-.011-.218-.064s.074-.111.188-.129zM18.142 24.627c-.072-.088-.095-.186-.053-.22s.134.01.205.097c.072.088.095.186.053.22s-.133-.009-.205-.097zM18.413 25.365c-.113-.006-.202-.056-.199-.109s.098-.092.21-.086c.113.006.202.056.199.11s-.097.093-.21.086v-.001zM19.467 23.977c-.012-.112.024-.207.077-.213s.106.082.117.194c.012.112-.024.207-.077.213s-.106-.081-.117-.194z" opacity=".6" style="fill:var(--color3, #fdfdff)"/><path fill="#7e8fdd" d="M20.62 28.743c-.012-.111.022-.207.074-.212s.106.081.119.194c.013.112-.022.207-.074.212s-.106-.081-.119-.194z" style="fill:var(--color1, #7e8fdd)"/><path fill="#fdfdff" d="M20.62 28.743c-.012-.111.022-.207.074-.212s.106.081.119.194c.013.112-.022.207-.074.212s-.106-.081-.119-.194z" opacity=".6" style="fill:var(--color3, #fdfdff)"/><path fill="#7e8fdd" d="M21.509 27.344c-.095-.063-.146-.15-.117-.195s.131-.031.226.031.146.149.117.195c-.03.045-.132.03-.226-.031z" style="fill:var(--color1, #7e8fdd)"/><path fill="#fdfdff" d="M21.509 27.344c-.095-.063-.146-.15-.117-.195s.131-.031.226.031.146.149.117.195c-.03.045-.132.03-.226-.031z" opacity=".6" style="fill:var(--color3, #fdfdff)"/><path fill="#7e8fdd" d="M22.28 10.99H6.41s.091 4.779 5.062 5.826c0 0-.33 3.32 2.463 3.657v7.951c-2.951.189-4.184 1.993-4.184 1.993h9.551s-1.395-1.805-4.364-1.993v-7.975c2.598-.456 2.281-3.632 2.281-3.632 4.971-1.047 5.062-5.826 5.062-5.826v-.001z" style="fill:var(--color1, #7e8fdd)"/><path fill="#fdfdff" d="M22.28 10.99H6.41s.091 4.779 5.062 5.826c0 0-.33 3.32 2.463 3.657v7.951c-2.951.189-4.184 1.993-4.184 1.993h9.551s-1.395-1.805-4.364-1.993v-7.975c2.598-.456 2.281-3.632 2.281-3.632 4.971-1.047 5.062-5.826 5.062-5.826v-.001z" opacity=".7" style="fill:var(--color3, #fdfdff)"/><path fill="#fdfdff" d="M21.446 10.989H7.654s.145 4.248 4.465 5.163c0 0-.473 3.612 2.349 3.612h.209c2.258-.398 2.003-3.706 2.003-3.706 4.561-1.133 4.767-5.068 4.767-5.068h-.001z" opacity=".4" style="fill:var(--color3, #fdfdff)"/><path fill="#7e8fdd" d="M22.282 10.991c0 .305-3.553.553-7.935.553s-7.935-.248-7.935-.553c0-.305 3.553-.553 7.935-.553s7.935.248 7.935.553z" opacity=".9" style="fill:var(--color1, #7e8fdd)"/><path fill="#fdfdff" d="M22.282 10.991c0 .305-3.553.553-7.935.553s-7.935-.248-7.935-.553c0-.305 3.553-.553 7.935-.553s7.935.248 7.935.553z" opacity=".7" style="fill:var(--color3, #fdfdff)"/><path fill="#7e8fdd" d="M20.317 13.813c-.678 1.098-1.929 1.821-3.639 2.246 0 0 .255 3.309-2.003 3.706h-.209c-2.822 0-2.349-3.612-2.349-3.612-1.62-.343-2.868-1.079-3.564-2.406 0 0 2.253-.158 4.231.156s3.261.561 5.285.18a15.847 15.847 0 0 1 2.248-.271l.001.001z" opacity=".9" style="fill:var(--color1, #7e8fdd)"/><path fill="#242424" d="M8.552 13.746s2.874 1.315 6.947 1.064 4.818-.998 4.818-.998-1.227.028-2.248.271-2.618.191-3.323.11c-.686-.078-3.649-.683-6.194-.446v-.001z" opacity=".3" style="fill:var(--color5, #242424)"/><path fill="#7e8fdd" d="M11.295 15.542 2.915 4.518l.417-.344 8.438 11.069s.007.405-.475.299v-.001z" style="fill:var(--color1, #7e8fdd)"/><path fill="#242424" d="M11.295 15.542 2.915 4.518l.417-.344 8.438 11.069s.007.405-.475.299v-.001z" opacity=".3" style="fill:var(--color5, #242424)"/><path fill="#7e8fdd" d="M10.55 8.277a4.063 4.063 0 0 0-.182-.3C9.099 6.076 6.611 5.505 4.813 6.702s-2.227 3.709-.957 5.608c.065.099.135.192.208.284l6.487-4.317z" style="fill:var(--color1, #7e8fdd)"/><path fill="#242424" d="M10.55 8.277a4.063 4.063 0 0 0-.182-.3C9.099 6.076 6.611 5.505 4.813 6.702s-2.227 3.709-.957 5.608c.065.099.135.192.208.284l6.487-4.317z" opacity=".3" style="fill:var(--color5, #242424)"/><path fill="#7e8fdd" d="m10.552 8.27-.064-.102c-1.199-1.795-3.629-2.28-5.427-1.083s-2.284 3.622-1.085 5.416l.069.099 6.507-4.33z" style="fill:var(--color1, #7e8fdd)"/><path fill="#fdfdff" d="M10.421 8.354a3.76 3.76 0 0 0-5.269-1.135 3.744 3.744 0 0 0-1.041 5.199c.022.032.044.062.062.092l6.248-4.156z" opacity=".8" style="fill:var(--color3, #fdfdff)"/><path fill="#7e8fdd" d="m7.64 9.906 2.159-1.443a.214.214 0 0 0 .056-.297c-.003-.006-.008-.011-.012-.016a3.391 3.391 0 0 0-1.574-1.052.215.215 0 0 0-.268.138l-.006.023-.509 2.544a.098.098 0 0 0 .075.117c.027.006.056 0 .079-.016v.002zM7.218 9.751l.51-2.545a.212.212 0 0 0-.19-.253 3.408 3.408 0 0 0-1.858.367.211.211 0 0 0-.08.307l1.446 2.161c.034.043.096.05.138.016a.092.092 0 0 0 .034-.052zM6.646 10.365l-2.55-.51a.214.214 0 0 0-.255.192c-.056.64.072 1.284.368 1.854a.213.213 0 0 0 .287.092c.007-.003.013-.008.02-.012l2.163-1.44a.098.098 0 0 0-.035-.174l.001-.001zM6.802 9.941 5.359 7.782a.215.215 0 0 0-.298-.056c-.006.003-.011.008-.016.012a3.379 3.379 0 0 0-1.054 1.571.214.214 0 0 0 .139.268c.007.003.014.004.022.006l2.549.508a.097.097 0 0 0 .113-.081.098.098 0 0 0-.014-.069h.002z" style="fill:var(--color1, #7e8fdd)"/><path fill="#fdfdff" d="m7.65 9.909 2.159-1.443a.214.214 0 0 0 .056-.297c-.003-.006-.008-.011-.012-.016a3.391 3.391 0 0 0-1.574-1.052.215.215 0 0 0-.268.138l-.006.023-.509 2.544a.098.098 0 0 0 .075.117c.027.006.056 0 .079-.016v.002zM7.214 9.752l.51-2.545a.212.212 0 0 0-.19-.253 3.408 3.408 0 0 0-1.858.367.211.211 0 0 0-.08.307l1.446 2.161c.034.043.096.05.138.016a.092.092 0 0 0 .034-.052zM6.656 10.367l-2.55-.51a.214.214 0 0 0-.255.192c-.056.64.072 1.284.368 1.854a.213.213 0 0 0 .287.092c.007-.003.013-.008.02-.012l2.163-1.44a.098.098 0 0 0-.035-.174l.001-.001zM6.814 9.943 5.371 7.784a.215.215 0 0 0-.298-.056c-.006.003-.011.008-.016.012a3.379 3.379 0 0 0-1.054 1.571.214.214 0 0 0 .139.268c.007.003.014.004.022.006l2.549.508a.097.097 0 0 0 .113-.081.098.098 0 0 0-.014-.069h.002z" opacity=".3" style="fill:var(--color3, #fdfdff)"/><path fill="#7e8fdd" d="M4.979 11.226c-.104.031-.199.016-.214-.033s.057-.116.16-.146c.104-.031.2-.015.215.035s-.058.116-.16.145l-.001-.001z" style="fill:var(--color1, #7e8fdd)"/><path fill="#fdfdff" d="M4.979 11.226c-.104.031-.199.016-.214-.033s.057-.116.16-.146c.104-.031.2-.015.215.035s-.058.116-.16.145l-.001-.001z" opacity=".6" style="fill:var(--color3, #fdfdff)"/><path fill="#7e8fdd" d="M5.556 10.609c-.106.024-.201.003-.211-.048s.062-.112.169-.132c.107-.02.201-.003.212.049s-.064.109-.17.132v-.001z" style="fill:var(--color1, #7e8fdd)"/><path fill="#fdfdff" d="M5.556 10.609c-.106.024-.201.003-.211-.048s.062-.112.169-.132c.107-.02.201-.003.212.049s-.064.109-.17.132v-.001z" opacity=".6" style="fill:var(--color3, #fdfdff)"/><path fill="#7e8fdd" d="M8.43 8.248c-.063.087-.149.135-.191.105s-.024-.126.037-.213.148-.135.19-.105c.042.03.025.126-.036.214z" style="fill:var(--color1, #7e8fdd)"/><path fill="#fdfdff" d="M8.43 8.248c-.063.087-.149.135-.191.105s-.024-.126.037-.213.148-.135.19-.105c.042.03.025.126-.036.214zM5.596 9.09c.08.073.118.163.083.201s-.128.011-.208-.061c-.08-.072-.117-.162-.083-.201s.128-.011.208.061z" opacity=".6" style="fill:var(--color3, #fdfdff)"/><path fill="#7e8fdd" d="M5.28 6.005a.84.84 0 1 1-1.676.166.84.84 0 0 1 1.676-.166z" style="fill:var(--color1, #7e8fdd)"/><path fill="#fdfdff" d="M3.786 5.764s-.202.328-.024.649.437.384.437.384.005-.325-.02-.639-.394-.394-.394-.394h.001z" opacity=".3" style="fill:var(--color3, #fdfdff)"/><path fill="#fdfdff" d="M21.428 11.277c-4.461.361-9.045.348-13.738.002 0 0 .012 2.128 1.871 3.709.621.528 1.491.936 2.573 1.165 0 0-.473 3.612 2.349 3.612h.209c2.258-.398 2.003-3.706 2.003-3.706 1.011-.251 1.802-.53 2.43-.983 2.206-1.591 2.303-3.798 2.303-3.798z" opacity=".27" style="fill:var(--color3, #fdfdff)"/><path fill="#9cdfdf" d="M22.282 10.99c-.005.044-.052.064-.087.082-.271.109-.567.137-.855.18-.993.124-1.994.175-2.992.22-3.662.12-7.347.156-10.995-.22-.287-.043-.583-.072-.854-.18-.035-.019-.081-.039-.087-.082.005.044.052.063.087.082.271.108.567.136.854.178 3.649.366 7.332.315 10.995.212.999-.042 1.999-.091 2.993-.212.287-.042.583-.07.855-.178.035-.019.081-.038.087-.082z" style="fill:var(--color4, #9cdfdf)"/><path fill="#242424" d="M13.935 20.473v.21s.547.105 1.003-.032v-.203c-.371.091-.593.087-.98.03z" opacity=".3" style="fill:var(--color5, #242424)"/><path fill="#9cdfdf" d="M12.928 28.582a6.191 6.191 0 0 1 2.836-.071 7.02 7.02 0 0 0-2.836.071z" style="fill:var(--color4, #9cdfdf)"/><path fill="#fdfdff" d="M14.346 17.235a.228.228 0 1 0 0-.456.228.228 0 0 0 0 .456zM13.708 17.758a.174.174 0 1 1-.348 0 .174.174 0 0 1 .348 0zM15.868 18.294a.11.11 0 1 0 0-.222.11.11 0 1 0 0 .222zM13.389 16.848a.11.11 0 1 0 0-.222.11.11 0 1 0 0 .222zM15.412 18.711a.281.281 0 1 1-.562 0 .281.281 0 0 1 .562 0z" opacity=".3" style="fill:var(--color3, #fdfdff)"/></symbol><symbol id="icon-youtube-tablet-desktop" viewBox="0 0 32 32"><path fill="#fdfdff" d="M20.532 10.5c-.748-.044-2.288-.088-4.62-.088h-.308c-2.244 0-3.74.044-4.488.132-1.012.088-1.716.352-2.112.704-.352.308-.616.88-.704 1.628-.044.484-.088 1.496-.088 3.036v.22c0 1.452.044 2.464.132 2.948.132.704.352 1.232.792 1.54.44.352 1.188.572 2.244.66.748.044 2.288.088 4.62.088h.308c2.244 0 3.74-.044 4.488-.132 1.012-.088 1.716-.352 2.112-.704.352-.308.616-.88.704-1.628.044-.484.088-1.496.088-3.036v-.22c0-1.452-.044-2.464-.132-2.948-.132-.704-.352-1.232-.792-1.54-.44-.352-1.188-.572-2.244-.66zm-1.716 5.412-4.84 2.904v-5.808l4.84 2.904z" style="fill:var(--color3, #fdfdff)"/><path fill="none" stroke="#fdfdff" stroke-width=".8" d="M4.8.4h22.4a4.4 4.4 0 0 1 4.4 4.4v22.4a4.4 4.4 0 0 1-4.4 4.4H4.8a4.4 4.4 0 0 1-4.4-4.4V4.8A4.4 4.4 0 0 1 4.8.4z" style="stroke:var(--color3, #fdfdff)"/></symbol><symbol id="icon-instagram-tablet-desktop" viewBox="0 0 32 32"><path fill="#fdfdff" d="M19.991 11.115a.902.902 0 0 0-.828.553.892.892 0 0 0 .194.977.892.892 0 0 0 .977.194.895.895 0 0 0-.343-1.724zm3.435 1.807a5.646 5.646 0 0 0-.343-1.814 3.69 3.69 0 0 0-.866-1.322 3.518 3.518 0 0 0-1.322-.859 5.462 5.462 0 0 0-1.814-.351c-.791-.045-1.045-.045-3.076-.045s-2.285 0-3.076.045a5.462 5.462 0 0 0-1.814.351 3.57 3.57 0 0 0-1.322.859c-.383.37-.676.822-.859 1.322a5.462 5.462 0 0 0-.351 1.814c-.045.791-.045 1.045-.045 3.076s0 2.285.045 3.076c.013.62.132 1.234.351 1.814.182.5.476.952.859 1.322a3.57 3.57 0 0 0 1.322.859c.58.219 1.194.338 1.814.351.791.045 1.045.045 3.076.045s2.285 0 3.076-.045a5.462 5.462 0 0 0 1.814-.351c.5-.182.952-.476 1.322-.859.382-.371.678-.823.866-1.322a5.65 5.65 0 0 0 .343-1.814c0-.791.045-1.045.045-3.076s0-2.285-.045-3.076zm-1.344 6.063a4.167 4.167 0 0 1-.254 1.389 2.286 2.286 0 0 1-.56.859 2.373 2.373 0 0 1-.859.56 4.193 4.193 0 0 1-1.389.254c-.747.037-1.023.045-2.987.045s-2.24 0-2.987-.045a4.3 4.3 0 0 1-1.449-.224 2.433 2.433 0 0 1-.821-.56 2.245 2.245 0 0 1-.553-.859 4.164 4.164 0 0 1-.299-1.419c0-.747-.045-1.023-.045-2.987s0-2.24.045-2.987a4.14 4.14 0 0 1 .261-1.419 2.24 2.24 0 0 1 .59-.821c.227-.257.507-.461.821-.597a4.29 4.29 0 0 1 1.419-.254c.747 0 1.023-.045 2.987-.045s2.24 0 2.987.045c.474.005.944.091 1.389.254.339.126.644.331.889.597.245.229.436.51.56.821.166.455.252.935.254 1.419.037.747.045 1.023.045 2.987s-.007 2.24-.045 2.987zm-6.078-6.817a3.826 3.826 0 0 0-3.534 2.37 3.824 3.824 0 0 0 .835 4.171 3.83 3.83 0 0 0 6.246-4.18 3.831 3.831 0 0 0-3.547-2.362zm0 6.316a2.487 2.487 0 1 1 .003-4.975 2.487 2.487 0 0 1-.004 4.976z" style="fill:var(--color3, #fdfdff)"/><path fill="none" stroke="#fdfdff" stroke-width=".8" d="M4.8.4h22.4a4.4 4.4 0 0 1 4.4 4.4v22.4a4.4 4.4 0 0 1-4.4 4.4H4.8a4.4 4.4 0 0 1-4.4-4.4V4.8A4.4 4.4 0 0 1 4.8.4z" style="stroke:var(--color3, #fdfdff)"/></symbol><symbol id="icon-facebook-tablet-desktop" viewBox="0 0 32 32"><path fill="#fdfdff" d="M18.425 10.801h1.462V8.328a20.221 20.221 0 0 0-2.131-.109c-2.116 0-3.562 1.291-3.562 3.656v2.038h-2.388v2.769h2.388v7.093h2.862v-7.093h2.38l.358-2.769h-2.738v-1.766c0-.817.218-1.346 1.369-1.346z" style="fill:var(--color3, #fdfdff)"/><path fill="none" stroke="#fdfdff" stroke-width=".8" d="M4.8.4h22.4a4.4 4.4 0 0 1 4.4 4.4v22.4a4.4 4.4 0 0 1-4.4 4.4H4.8a4.4 4.4 0 0 1-4.4-4.4V4.8A4.4 4.4 0 0 1 4.8.4z" style="stroke:var(--color3, #fdfdff)"/></symbol><symbol id="icon-youtube-mobile" viewBox="0 0 32 32"><path fill="#fdfdff" d="M20.531 10.5c-.748-.044-2.288-.088-4.62-.088h-.308c-2.244 0-3.74.044-4.488.132-1.012.088-1.716.352-2.112.704-.352.308-.616.88-.704 1.628-.044.484-.088 1.496-.088 3.036v.22c0 1.452.044 2.464.132 2.948.132.704.352 1.232.792 1.54.44.352 1.188.572 2.244.66.748.044 2.288.088 4.62.088h.308c2.244 0 3.74-.044 4.488-.132 1.012-.088 1.716-.352 2.112-.704.352-.308.616-.88.704-1.628.044-.484.088-1.496.088-3.036v-.22c0-1.452-.044-2.464-.132-2.948-.132-.704-.352-1.232-.792-1.54-.44-.352-1.188-.572-2.244-.66zm-1.716 5.412-4.84 2.904v-5.808l4.84 2.904z" style="fill:var(--color3, #fdfdff)"/><path fill="none" stroke="#fdfdff" d="M6 .5h20A5.5 5.5 0 0 1 31.5 6v20a5.5 5.5 0 0 1-5.5 5.5H6A5.5 5.5 0 0 1 .5 26V6A5.5 5.5 0 0 1 6 .5z" style="stroke:var(--color3, #fdfdff)"/></symbol><symbol id="icon-instagram-mobile" viewBox="0 0 32 32"><path fill="#fdfdff" d="M19.991 11.115a.9.9 0 0 0-.828.553.892.892 0 0 0 .194.977.892.892 0 0 0 .977.194.895.895 0 0 0-.343-1.724zm3.435 1.807a5.711 5.711 0 0 0-.343-1.815 3.69 3.69 0 0 0-.866-1.322 3.518 3.518 0 0 0-1.322-.859 5.462 5.462 0 0 0-1.814-.351c-.791-.045-1.045-.045-3.076-.045s-2.285 0-3.076.045a5.462 5.462 0 0 0-1.814.351c-.499.184-.95.478-1.322.859-.383.37-.676.822-.859 1.322a5.468 5.468 0 0 0-.351 1.815c-.045.791-.045 1.045-.045 3.076s0 2.285.045 3.076c.013.62.132 1.234.351 1.814.182.5.476.952.859 1.322.371.381.823.674 1.322.859.58.219 1.194.338 1.814.351.791.045 1.045.045 3.076.045s2.285 0 3.076-.045a5.437 5.437 0 0 0 1.814-.351c.5-.182.952-.476 1.322-.859.383-.371.678-.823.866-1.322a5.65 5.65 0 0 0 .343-1.814c0-.791.045-1.045.045-3.076s0-2.285-.045-3.076zm-1.344 6.063a4.167 4.167 0 0 1-.254 1.389 2.286 2.286 0 0 1-.56.859 2.373 2.373 0 0 1-.859.56 4.193 4.193 0 0 1-1.389.254c-.747.037-1.023.045-2.987.045s-2.24 0-2.987-.045a4.3 4.3 0 0 1-1.449-.224 2.433 2.433 0 0 1-.821-.56 2.245 2.245 0 0 1-.553-.859 4.164 4.164 0 0 1-.299-1.419c0-.747-.045-1.023-.045-2.987s0-2.24.045-2.987a4.14 4.14 0 0 1 .261-1.419 2.24 2.24 0 0 1 .59-.821c.227-.257.507-.461.821-.597a4.29 4.29 0 0 1 1.419-.254c.747 0 1.023-.045 2.987-.045s2.24 0 2.987.045c.474.005.944.091 1.389.254.339.126.644.331.889.597.245.229.436.51.56.821.166.455.252.935.254 1.419.037.747.045 1.023.045 2.987s-.007 2.24-.045 2.987zm-6.078-6.817a3.833 3.833 0 0 0-3.749 4.582 3.834 3.834 0 0 0 3.011 3.005 3.833 3.833 0 0 0 3.93-1.63 3.836 3.836 0 0 0-.477-4.841 3.831 3.831 0 0 0-2.715-1.117zm0 6.316a2.484 2.484 0 0 1-2.438-2.972 2.49 2.49 0 0 1 1.953-1.954 2.482 2.482 0 0 1 2.553 1.058 2.489 2.489 0 0 1-.309 3.139 2.484 2.484 0 0 1-1.758.728z" style="fill:var(--color3, #fdfdff)"/><path fill="none" stroke="#fdfdff" d="M6 .5h20A5.5 5.5 0 0 1 31.5 6v20a5.5 5.5 0 0 1-5.5 5.5H6A5.5 5.5 0 0 1 .5 26V6A5.5 5.5 0 0 1 6 .5z" style="stroke:var(--color3, #fdfdff)"/></symbol><symbol id="icon-facebook-mobile" viewBox="0 0 32 32"><path fill="#fdfdff" d="M18.425 10.801h1.462V8.328a20.221 20.221 0 0 0-2.131-.109c-2.116 0-3.562 1.291-3.562 3.656v2.038h-2.388v2.769h2.388v7.093h2.862v-7.093h2.38l.358-2.769h-2.738v-1.765c0-.817.218-1.346 1.369-1.346z" style="fill:var(--color3, #fdfdff)"/><path fill="none" stroke="#fdfdff" d="M6 .5h20A5.5 5.5 0 0 1 31.5 6v20a5.5 5.5 0 0 1-5.5 5.5H6A5.5 5.5 0 0 1 .5 26V6A5.5 5.5 0 0 1 6 .5z" style="stroke:var(--color3, #fdfdff)"/></symbol><symbol id="icon-x-close-modal-learn-tablet-desktop-black" viewBox="0 0 32 32"><path stroke-linecap="round" stroke-linejoin="round" stroke-width="2.667" d="M24 8 8 24M8 8l16 16"/></symbol><symbol id="icon-x-close-modal-learn-tablet-desktop-white" viewBox="0 0 32 32"><path fill="none" stroke="#fdfdff" stroke-linecap="round" stroke-linejoin="round" stroke-width="2.667" d="M24 8 8 24M8 8l16 16" style="stroke:var(--color3, #fdfdff)"/></symbol><symbol id="icon-x-close-modal-learn-mobile-black" viewBox="0 0 32 32"><path stroke-linecap="round" stroke-linejoin="round" stroke-width="2.909" d="M24 8 8 24M8 8l16 16"/></symbol><symbol id="icon-x-close-modal-learn-mobile-white" viewBox="0 0 32 32"><path fill="none" stroke="#fdfdff" stroke-linecap="round" stroke-linejoin="round" stroke-width="2.909" d="M24 8 8 24M8 8l16 16" style="stroke:var(--color3, #fdfdff)"/></symbol><symbol id="icon-search-black" viewBox="0 0 32 32"><path d="m29.092 31.514-6.85-6.862c-1.077.935-2.334 1.663-3.77 2.185s-2.962.782-4.578.782c-3.877 0-7.163-1.349-9.855-4.046S0 17.621 0 13.809c0-3.812 1.346-7.067 4.039-9.764S9.999-.001 13.84-.001c3.806 0 7.046 1.349 9.721 4.046s4.012 5.952 4.012 9.764c0 1.546-.251 3.039-.754 4.477s-1.257 2.787-2.262 4.046l6.958 6.862c.323.288.485.656.485 1.106s-.18.854-.539 1.214c-.323.324-.718.486-1.185.486s-.862-.162-1.185-.486zM13.84 24.383c2.908 0 5.385-1.034 7.432-3.102s3.07-4.558 3.07-7.471-1.023-5.403-3.07-7.471c-2.046-2.068-4.524-3.102-7.432-3.102-2.944 0-5.448 1.034-7.513 3.102S3.23 10.897 3.23 13.81c0 2.913 1.032 5.403 3.097 7.471s4.569 3.102 7.513 3.102z"/></symbol><symbol id="icon-search-white" viewBox="0 0 32 32"><path fill="#fdfdff" d="m29.092 31.514-6.85-6.862c-1.077.935-2.334 1.663-3.77 2.185s-2.962.782-4.578.782c-3.877 0-7.163-1.349-9.855-4.046S0 17.621 0 13.809c0-3.812 1.346-7.067 4.039-9.764S9.999-.001 13.84-.001c3.806 0 7.046 1.349 9.721 4.046s4.012 5.952 4.012 9.764c0 1.546-.251 3.039-.754 4.477s-1.257 2.787-2.262 4.046l6.958 6.862c.323.288.485.656.485 1.106s-.18.854-.539 1.214c-.323.324-.718.486-1.185.486s-.862-.162-1.185-.486zM13.84 24.383c2.908 0 5.385-1.034 7.432-3.102s3.07-4.558 3.07-7.471-1.023-5.403-3.07-7.471c-2.046-2.068-4.524-3.102-7.432-3.102-2.944 0-5.448 1.034-7.513 3.102S3.23 10.897 3.23 13.81c0 2.913 1.032 5.403 3.097 7.471s4.569 3.102 7.513 3.102z" style="fill:var(--color3, #fdfdff)"/></symbol><symbol id="icon-favorites-fill-tablet-desktop" viewBox="0 0 32 32"><path fill="#fdfdff" stroke="#fdfdff" stroke-linecap="round" stroke-linejoin="round" stroke-width="2.667" d="M27.787 6.146a7.326 7.326 0 0 0-10.373 0l-1.413 1.413-1.413-1.413a7.333 7.333 0 0 0-10.374 0 7.333 7.333 0 0 0 0 10.374l11.787 11.787L27.788 16.52a7.345 7.345 0 0 0 2.15-5.187 7.33 7.33 0 0 0-2.15-5.187z" style="fill:var(--color3, #fdfdff);stroke:var(--color3, #fdfdff)"/></symbol><symbol id="icon-favorites-tablet-desktop-white" viewBox="0 0 32 32"><path fill="none" stroke="#fdfdff" stroke-linecap="round" stroke-linejoin="round" stroke-width="2.667" d="M27.787 6.146a7.326 7.326 0 0 0-10.373 0l-1.413 1.413-1.413-1.413a7.333 7.333 0 0 0-10.374 0 7.333 7.333 0 0 0 0 10.374l11.787 11.787L27.788 16.52a7.345 7.345 0 0 0 2.15-5.187 7.33 7.33 0 0 0-2.15-5.187z" style="stroke:var(--color3, #fdfdff)"/></symbol><symbol id="icon-favorites-fill-mobile" viewBox="0 0 32 32"><path fill="#fdfdff" stroke="#fdfdff" stroke-linecap="round" stroke-linejoin="round" stroke-width="2.667" d="M27.788 6.146a7.345 7.345 0 0 0-5.187-2.15 7.33 7.33 0 0 0-5.187 2.15l-1.413 1.413-1.413-1.413a7.333 7.333 0 0 0-10.374 0 7.333 7.333 0 0 0 0 10.374l11.787 11.787L27.788 16.52a7.345 7.345 0 0 0 2.149-5.187 7.33 7.33 0 0 0-2.149-5.187z" style="fill:var(--color3, #fdfdff);stroke:var(--color3, #fdfdff)"/></symbol><symbol id="icon-favorites-mobile-white" viewBox="0 0 32 32"><path fill="none" stroke="#fdfdff" stroke-linecap="round" stroke-linejoin="round" stroke-width="2.667" d="M27.788 6.146a7.345 7.345 0 0 0-5.187-2.15 7.33 7.33 0 0 0-5.187 2.15l-1.413 1.413-1.413-1.413a7.333 7.333 0 0 0-10.374 0 7.333 7.333 0 0 0 0 10.374l11.787 11.787L27.788 16.52a7.345 7.345 0 0 0 2.149-5.187 7.33 7.33 0 0 0-2.149-5.187z" style="stroke:var(--color3, #fdfdff)"/></symbol><symbol id="icon-trash-tablet-desktop-white" viewBox="0 0 32 32"><path fill="none" stroke="#fdfdff" stroke-linecap="round" stroke-linejoin="round" stroke-width="2.667" d="M21.333 8V6.933c0-1.493 0-2.24-.291-2.811a2.666 2.666 0 0 0-1.165-1.165c-.57-.291-1.317-.291-2.811-.291h-2.133c-1.493 0-2.24 0-2.811.291-.502.256-.91.664-1.165 1.165-.291.57-.291 1.317-.291 2.811V8m2.667 7.333V22m5.334-6.667V22M4 8h24m-2.667 0v14.933c0 2.24 0 3.36-.436 4.216a3.991 3.991 0 0 1-1.748 1.748c-.856.436-1.976.436-4.216.436h-5.867c-2.24 0-3.36 0-4.216-.436a3.991 3.991 0 0 1-1.748-1.748c-.436-.856-.436-1.976-.436-4.216V8" style="stroke:var(--color3, #fdfdff)"/></symbol><symbol id="icon-trash-mobile-white" viewBox="0 0 32 32"><path fill="none" stroke="#fdfdff" stroke-linecap="round" stroke-linejoin="round" stroke-width="2.667" d="M21.333 8V6.933c0-1.493 0-2.24-.291-2.811a2.666 2.666 0 0 0-1.165-1.165c-.57-.291-1.317-.291-2.811-.291h-2.133c-1.493 0-2.24 0-2.811.291-.502.256-.91.664-1.165 1.165-.291.57-.291 1.317-.291 2.811V8m2.667 7.333V22m5.334-6.667V22M4 8h24m-2.667 0v14.933c0 2.24 0 3.36-.436 4.216a4.006 4.006 0 0 1-1.748 1.748c-.856.436-1.976.436-4.216.436h-5.867c-2.24 0-3.36 0-4.216-.436a4.001 4.001 0 0 1-1.748-1.748c-.436-.856-.436-1.976-.436-4.216V8" style="stroke:var(--color3, #fdfdff)"/></symbol><symbol id="icon-chevron-up-white" viewBox="0 0 32 32"><path fill="none" stroke="#fdfdff" stroke-linecap="round" stroke-linejoin="round" stroke-width="2.667" d="m8 20 8-8 8 8" style="stroke:var(--color3, #fdfdff)"/></symbol><symbol id="icon-chevron-down-white" viewBox="0 0 32 32"><path fill="none" stroke="#fdfdff" stroke-linecap="round" stroke-linejoin="round" stroke-width="2.667" d="m8 12 8 8 8-8" style="stroke:var(--color3, #fdfdff)"/></symbol><symbol id="icon-x-close-tablet-white" viewBox="0 0 32 32"><path fill="none" stroke="#fdfdff" stroke-linecap="round" stroke-linejoin="round" stroke-width="1.6" d="M24 8 8 24M8 8l16 16" style="stroke:var(--color3, #fdfdff)"/></symbol><symbol id="icon-x-close-mobile-white" viewBox="0 0 32 32"><path fill="none" stroke="#fdfdff" stroke-linecap="round" stroke-linejoin="round" stroke-width="2" d="M24 8 8 24M8 8l16 16" style="stroke:var(--color3, #fdfdff)"/></symbol><symbol id="icon-burger-tablet-white" viewBox="0 0 32 32"><path fill="none" stroke="#fdfdff" stroke-linecap="round" stroke-linejoin="round" stroke-width="1.6" d="M28 13.333H4M28 8H4M28 18.667H4M28 24H4" style="stroke:var(--color3, #fdfdff)"/></symbol><symbol id="icon-burger-tablet-black" viewBox="0 0 32 32"><path stroke-linecap="round" stroke-linejoin="round" stroke-width="1.6" d="M28 13.333H4M28 8H4M28 18.667H4M28 24H4"/></symbol><symbol id="icon-burger-mobile-black" viewBox="0 0 32 32"><path stroke-linecap="round" stroke-linejoin="round" stroke-width="2" d="M28 13.334H4M28 8H4M28 18.666H4M28 24H4"/></symbol><symbol id="icon-burger-mobile-white" viewBox="0 0 32 32"><path fill="none" stroke="#fdfdff" stroke-linecap="round" stroke-linejoin="round" stroke-width="2" d="M28 13.334H4M28 8H4M28 18.666H4M28 24H4" style="stroke:var(--color3, #fdfdff)"/></symbol><symbol id="icon-logo-tablet-desktop" viewBox="0 0 32 32"><path fill="#7e8fdd" d="M28.357 2.986c-.062-.039-.122-.069-.183-.1a5.112 5.112 0 0 0-2.406-.593h-.009c-.917.001-1.817.244-2.612.703s-1.457 1.12-1.919 1.915l-.014.025a5.106 5.106 0 0 0-.665 2.123l-.001.02H9.577L8.35 4.103c-.276-.674-.781-1.226-1.425-1.559s-1.385-.423-2.09-.256l.021-.005-3.71.848.23 1.018 3.71-.848c.462-.106.945-.045 1.366.173s.752.578.935 1.017l.005.014L8.457 7.08H1.49l11.649 11.716v8.578c-2.705.193-4.571 1.094-4.571 2.213v.208h11.227v-.208c0-1.117-1.87-2.023-4.571-2.213v-8.578l7.181-7.222c.225.192.477.37.742.526l.025.014c1.201.687 2.623.868 3.957.503s2.469-1.245 3.158-2.449.878-2.634.523-3.976a5.253 5.253 0 0 0-2.417-3.19l-.025-.014-.008-.002zm1.142 4.031-2.85.008 1.418-2.483a3.804 3.804 0 0 1 1.43 2.454l.002.021zM27.17 4.018l-1.418 2.49-1.433-2.475c.458-.19.949-.287 1.445-.285.506 0 .99.099 1.432.279l-.025-.009zm-4.699 1.643c.249-.436.567-.802.943-1.098l.008-.006 1.433 2.475-2.843.008c.064-.516.226-.983.469-1.398l-.009.017v.001zM4.982 8.536h4.07l.56 1.364H6.34L4.982 8.536zm17.022 1.365h-.929v.007H10.729l-.56-1.364h13.182l-1.346 1.357zm2.337 1.179 1.418-2.49 1.433 2.475a3.694 3.694 0 0 1-1.442.287c-.507 0-.992-.1-1.434-.283l.025.01zm4.698-1.634a3.79 3.79 0 0 1-.942 1.098l-.008.006-1.433-2.475 2.843-.007a3.855 3.855 0 0 1-.47 1.395l.01-.018-.001.001z" style="fill:var(--color1, #7e8fdd)"/></symbol><symbol id="icon-logo-tablet-menu" viewBox="0 0 32 32"><path fill="#9cdfdf" d="M28.356 2.986c-.062-.039-.122-.069-.183-.1a5.112 5.112 0 0 0-2.406-.593h-.009c-.917.001-1.817.244-2.612.703s-1.456 1.12-1.919 1.915l-.014.025a5.106 5.106 0 0 0-.665 2.123l-.001.02H9.576L8.349 4.103c-.276-.674-.781-1.226-1.425-1.559s-1.385-.423-2.09-.256l.021-.005-3.71.848.23 1.018 3.71-.848c.462-.106.945-.045 1.366.173s.752.578.935 1.017l.005.014L8.456 7.08H1.489l11.649 11.716v8.578c-2.705.193-4.571 1.094-4.571 2.213v.208h11.227v-.208c0-1.117-1.87-2.023-4.571-2.213v-8.578l7.181-7.222c.225.192.477.37.742.526l.025.014c1.201.687 2.623.868 3.957.503s2.469-1.245 3.158-2.449c.69-1.204.878-2.634.523-3.976s-1.224-2.49-2.417-3.19l-.025-.014-.008-.002zm1.142 4.031-2.85.008 1.418-2.483a3.804 3.804 0 0 1 1.43 2.454l.002.021zm-2.329-2.999-1.418 2.49-1.433-2.475c.458-.19.949-.287 1.445-.285.506 0 .99.099 1.432.279l-.025-.009zm-4.698 1.643c.249-.436.567-.802.943-1.098l.008-.006 1.433 2.475-2.843.008c.064-.516.226-.983.469-1.398l-.009.017v.001zM4.982 8.536h4.07l.56 1.364H6.34L4.982 8.536zm17.021 1.365h-.929v.007H10.728l-.56-1.364H23.35l-1.346 1.357zm2.337 1.179 1.418-2.49 1.433 2.475a3.694 3.694 0 0 1-1.442.287c-.507 0-.992-.1-1.434-.283l.025.01zm4.699-1.634a3.79 3.79 0 0 1-.942 1.098l-.008.006-1.433-2.475 2.843-.007a3.855 3.855 0 0 1-.47 1.395l.01-.018-.001.001z" style="fill:var(--color4, #9cdfdf)"/></symbol><symbol id="icon-logo-mobile-menu" viewBox="0 0 32 32"><path fill="#9cdfdf" d="M28.355 3.06a1.94 1.94 0 0 0-.183-.099 5.144 5.144 0 0 0-2.406-.59h-.009a5.251 5.251 0 0 0-4.531 2.603l-.014.025a5.054 5.054 0 0 0-.665 2.111l-.001.019H9.575L8.348 4.17a3.047 3.047 0 0 0-3.515-1.805l.021-.005-3.71.843.23 1.013 3.71-.843a2.013 2.013 0 0 1 2.301 1.183l.005.014 1.065 2.56H1.488l11.649 11.649v8.529c-2.705.192-4.571 1.088-4.571 2.2v.207h11.227v-.207c0-1.111-1.87-2.011-4.571-2.2v-8.529l7.181-7.181c.225.191.477.368.742.523l.025.014a5.227 5.227 0 0 0 7.115-1.935 5.228 5.228 0 0 0-1.894-7.126l-.025-.014-.008-.002zm1.142 4.008-2.85.008 1.418-2.469a3.778 3.778 0 0 1 1.43 2.44l.002.021zm-2.329-2.981L25.75 6.562l-1.433-2.461a3.748 3.748 0 0 1 1.445-.283c.506 0 .99.098 1.432.278l-.025-.009zM22.47 5.72c.249-.433.567-.798.943-1.091l.008-.006 1.433 2.461-2.843.008c.064-.513.226-.977.469-1.39l-.009.017v.001zM4.981 8.578h4.07l.56 1.357H6.339L4.981 8.578zm17.021 1.358h-.929v.007H10.727l-.56-1.357h13.182l-1.346 1.35zm2.338 1.172 1.418-2.475 1.433 2.461a3.712 3.712 0 0 1-1.442.286 3.76 3.76 0 0 1-1.434-.281l.025.01zm4.698-1.625a3.75 3.75 0 0 1-.942 1.091l-.008.006-1.433-2.461 2.843-.007c-.066.488-.225.96-.47 1.387l.01-.018-.001.001z" style="fill:var(--color4, #9cdfdf)"/></symbol><symbol id="icon-logo-mobile" viewBox="0 0 32 32"><path fill="#7e8fdd" d="M28.355 3.06a1.94 1.94 0 0 0-.183-.099 5.144 5.144 0 0 0-2.406-.59h-.009a5.251 5.251 0 0 0-4.531 2.603l-.014.025a5.054 5.054 0 0 0-.665 2.111l-.001.019H9.575L8.348 4.17a3.047 3.047 0 0 0-3.515-1.805l.021-.005-3.71.843.23 1.013 3.71-.843a2.013 2.013 0 0 1 2.301 1.183l.005.014 1.065 2.56H1.488l11.649 11.649v8.529c-2.705.192-4.571 1.088-4.571 2.2v.207h11.227v-.207c0-1.111-1.87-2.011-4.571-2.2v-8.529l7.181-7.181c.225.191.477.368.742.523l.025.014a5.227 5.227 0 0 0 7.115-1.935 5.228 5.228 0 0 0-1.894-7.126l-.025-.014-.008-.002zm1.142 4.008-2.85.008 1.418-2.469a3.778 3.778 0 0 1 1.43 2.44l.002.021zm-2.329-2.981L25.75 6.562l-1.433-2.461a3.748 3.748 0 0 1 1.445-.283c.506 0 .99.098 1.432.278l-.025-.009zM22.47 5.72c.249-.433.567-.798.943-1.091l.008-.006 1.433 2.461-2.843.008c.064-.513.226-.977.469-1.39l-.009.017v.001zM4.981 8.578h4.07l.56 1.357H6.339L4.981 8.578zm17.021 1.358h-.929v.007H10.727l-.56-1.357h13.182l-1.346 1.35zm2.338 1.172 1.418-2.475 1.433 2.461a3.712 3.712 0 0 1-1.442.286 3.76 3.76 0 0 1-1.434-.281l.025.01zm4.698-1.625a3.75 3.75 0 0 1-.942 1.091l-.008.006-1.433-2.461 2.843-.007c-.066.488-.225.96-.47 1.387l.01-.018-.001.001z" style="fill:var(--color1, #7e8fdd)"/></symbol></defs></svg>
