<svg aria-hidden="true" style="position: absolute; width: 0; height: 0; overflow: hidden;" version="1.1" xmlns="http://www.w3.org/2000/svg" xmlns:xlink="http://www.w3.org/1999/xlink">
<defs>
<symbol id="icon-chevron-down-violet" viewBox="0 0 56 32">
<path fill="none" stroke="#7e8fdd" style="stroke: var(--color1, #7e8fdd)" stroke-linejoin="round" stroke-linecap="round" stroke-miterlimit="4" stroke-width="8" d="M3.998 4l24 24 24-24"></path>
</symbol>
<symbol id="icon-arrow-left" viewBox="0 0 32 32">
<path fill="#7e8fdd" style="fill: var(--color1, #7e8fdd)" d="M14.419 16l7.376-7.324-2.107-2.092-9.483 9.417 9.483 9.417 2.107-2.092-7.376-7.324z"></path>
</symbol>
<symbol id="icon-arrow-right" viewBox="0 0 32 32">
<path fill="#7e8fdd" style="fill: var(--color1, #7e8fdd)" d="M17.581 16l-7.376-7.324 2.107-2.092 9.483 9.417-9.483 9.417-2.107-2.092 7.376-7.324z"></path>
</symbol>
<symbol id="icon-shaker-tablet-desktop" viewBox="0 0 37 32">
<path fill="#e6e6e6" style="fill: var(--color2, #e6e6e6)" d="M18.824 4.039c-0.074 0-0.795 0.056-0.896 0.89h-0.118c0 0 0.035-0.814-0.896-0.857l0.005-0.129c0.074 0 0.765-0.031 0.867-0.866h0.118c0 0-0.080 0.752 0.92 0.87v0.091z"></path>
<path fill="#e6e6e6" style="fill: var(--color2, #e6e6e6)" d="M6.251 17.802c-0.074 0-0.795 0.057-0.896 0.89h-0.118c0 0 0.035-0.814-0.896-0.857l0.005-0.129c0.073 0 0.765-0.031 0.867-0.866h0.118c0 0-0.080 0.752 0.92 0.87v0.091z"></path>
<path fill="#e6e6e6" style="fill: var(--color2, #e6e6e6)" d="M37.254 17.302c-0.074 0-0.795 0.057-0.896 0.89h-0.118c0 0 0.035-0.814-0.896-0.857l0.005-0.129c0.074 0 0.765-0.031 0.867-0.866h0.118c0 0-0.080 0.752 0.92 0.87v0.091z"></path>
<path fill="#e6e6e6" style="fill: var(--color2, #e6e6e6)" d="M13.973 6.969c-0.053 0-0.572 0.040-0.645 0.64h-0.084c0 0 0.025-0.585-0.645-0.616l0.003-0.093c0.053 0 0.551-0.023 0.623-0.622h0.084c0 0-0.057 0.54 0.661 0.626v0.066h0.001z"></path>
<path fill="#e6e6e6" style="fill: var(--color2, #e6e6e6)" d="M3.019 13.634c-0.053 0-0.572 0.040-0.644 0.64h-0.084c0 0 0.025-0.585-0.644-0.616l0.003-0.093c0.053 0 0.551-0.023 0.623-0.622h0.084c0 0-0.057 0.54 0.661 0.626v0.066h0.001z"></path>
<path fill="#e6e6e6" style="fill: var(--color2, #e6e6e6)" d="M12.44 23.968c-0.053 0-0.572 0.040-0.645 0.641h-0.084c0 0 0.025-0.585-0.645-0.616l0.003-0.093c0.053 0 0.551-0.023 0.623-0.622h0.084c0 0-0.057 0.541 0.661 0.625v0.066l0.001-0.001z"></path>
<path fill="#e6e6e6" style="fill: var(--color2, #e6e6e6)" d="M34.964 12.677c-0.035 0-0.37 0.026-0.417 0.415h-0.055c0 0 0.016-0.379-0.417-0.4l0.003-0.060c0.035 0 0.356-0.014 0.404-0.403h0.055c0 0-0.037 0.351 0.428 0.405v0.042z"></path>
<path fill="#e6e6e6" style="fill: var(--color2, #e6e6e6)" d="M34.207 24.104c-0.053 0-0.571 0.040-0.645 0.64h-0.084c0 0 0.025-0.585-0.644-0.616l0.003-0.093c0.053 0 0.551-0.023 0.623-0.622h0.085c0 0-0.057 0.54 0.661 0.625v0.066h0.001z"></path>
<path fill="#e6e6e6" style="fill: var(--color2, #e6e6e6)" d="M13.826 0.631c-0.041 0-0.449 0.032-0.507 0.503h-0.067c0 0 0.019-0.46-0.506-0.485l0.003-0.073c0.041 0 0.432-0.018 0.49-0.489h0.067c0 0-0.046 0.425 0.519 0.491v0.051h0.001z"></path>
<path fill="#e6e6e6" style="fill: var(--color2, #e6e6e6)" d="M33.96 2.597c-0.041 0-0.449 0.032-0.507 0.503h-0.067c0 0 0.019-0.46-0.506-0.485l0.003-0.072c0.041 0 0.433-0.018 0.49-0.489h0.067c0 0-0.046 0.425 0.519 0.491v0.051h0.001z"></path>
<path fill="#e6e6e6" style="fill: var(--color2, #e6e6e6)" d="M10.163 19.317c-0.024 0-0.262 0.018-0.296 0.293h-0.039c0 0 0.012-0.268-0.296-0.282l0.002-0.042c0.024 0 0.253-0.010 0.286-0.286h0.039c0 0-0.026 0.248 0.303 0.287v0.030z"></path>
<path fill="#e6e6e6" style="fill: var(--color2, #e6e6e6)" d="M7.166 2.894c-0.024 0-0.262 0.019-0.296 0.293h-0.039c0 0 0.012-0.268-0.296-0.282l0.002-0.042c0.024 0 0.253-0.010 0.286-0.286h0.039c0 0-0.026 0.248 0.303 0.287v0.030z"></path>
<path fill="#e6e6e6" style="fill: var(--color2, #e6e6e6)" d="M2.832 23.475c-0.039 0-0.416 0.030-0.47 0.466h-0.062c0 0 0.019-0.427-0.469-0.449l0.003-0.067c0.039 0 0.401-0.016 0.454-0.454h0.062c0 0-0.042 0.394 0.481 0.455v0.048z"></path>
<path fill="#e6e6e6" style="fill: var(--color2, #e6e6e6)" d="M33.421 7.692c-0.025 0-0.262 0.019-0.296 0.293h-0.039c0 0 0.012-0.268-0.296-0.282l0.002-0.042c0.025 0 0.253-0.010 0.286-0.286h0.039c0 0-0.026 0.248 0.303 0.287v0.030z"></path>
<path fill="#e6e6e6" style="fill: var(--color2, #e6e6e6)" d="M24.915 0.317c-0.025 0-0.262 0.019-0.296 0.293h-0.039c0 0 0.012-0.268-0.296-0.282l0.002-0.042c0.025 0 0.253-0.010 0.286-0.286h0.039c0 0-0.026 0.248 0.303 0.287v0.030z"></path>
<path fill="#e6e6e6" style="fill: var(--color2, #e6e6e6)" d="M17.644 21.694c-0.025 0-0.262 0.019-0.296 0.293h-0.039c0 0 0.012-0.268-0.296-0.282l0.002-0.042c0.024 0 0.253-0.010 0.286-0.286h0.039c0 0-0.026 0.248 0.303 0.287v0.030z"></path>
<path fill="#fdfdff" style="fill: var(--color3, #fdfdff)" d="M35.287 30.541c0 0.286-7.899 0.517-17.644 0.517s-17.644-0.232-17.644-0.517 7.899-0.517 17.644-0.517c9.744 0 17.644 0.232 17.644 0.517z"></path>
<path fill="#9cdfdf" style="fill: var(--color4, #9cdfdf)" d="M19.704 9.826c0 0 0.1 3.674 0.349 5.581s1.896 15.022 1.896 15.022h4.441v-28.463h-3.093v3.209c0 0-2.595 0.698-2.495 3.768l-1.097 0.883z"></path>
<path fill="#9cdfdf" style="fill: var(--color4, #9cdfdf)" d="M33.076 9.826c0 0-0.1 3.674-0.349 5.581s-1.896 15.022-1.896 15.022h-4.441v-28.463h3.093v3.209c0 0 2.595 0.698 2.495 3.768l1.097 0.883z"></path>
<path fill="#fdfdff" style="fill: var(--color3, #fdfdff)" opacity="0.5" d="M19.704 9.826c0 0 0.1 3.674 0.349 5.581s1.896 15.022 1.896 15.022h4.441v-28.463h-3.093v3.209c0 0-2.595 0.698-2.495 3.768l-1.097 0.883z"></path>
<path fill="#fdfdff" style="fill: var(--color3, #fdfdff)" opacity="0.5" d="M33.076 9.826c0 0-0.1 3.674-0.349 5.581s-1.896 15.022-1.896 15.022h-4.441v-28.463h3.093v3.209c0 0 2.595 0.698 2.495 3.768l1.097 0.883z"></path>
<path fill="#fdfdff" style="fill: var(--color3, #fdfdff)" opacity="0.3" d="M23.876 5.165l-0.044-3.199h1.536l-0.275 3.199h-1.217z"></path>
<path fill="#fdfdff" style="fill: var(--color3, #fdfdff)" opacity="0.3" d="M23.61 9.826h-2.986l2.423 20.604h2.873l-2.31-20.604z"></path>
<path fill="#9cdfdf" style="fill: var(--color4, #9cdfdf)" d="M19.704 9.826c4.283-0.026 9.089-0.026 13.372 0-4.283 0.026-9.089 0.026-13.372 0z"></path>
<path fill="#fdfdff" style="fill: var(--color3, #fdfdff)" opacity="0.3" d="M22.049 8.92c0 0-0.097-1.559 0.414-2.385s1.412-1.37 1.412-1.37h1.217c0 0-1.796 0.81-1.526 3.755h-1.518z"></path>
<path fill="#9cdfdf" style="fill: var(--color4, #9cdfdf)" d="M4.914 30.43c0 0 0.391-1.673 0.559-2.454s0.335-1.394 0.335-1.394h2.403c0 0 0.584 2.636 0.759 3.703 0.008 0.052 0.016 0.1 0.023 0.145h-4.080z"></path>
<path fill="#fdfdff" style="fill: var(--color3, #fdfdff)" opacity="0.7" d="M4.914 30.43c0 0 0.391-1.673 0.559-2.454s0.335-1.394 0.335-1.394h2.403c0 0 0.584 2.636 0.759 3.703 0.008 0.052 0.016 0.1 0.023 0.145h-4.080z"></path>
<path fill="#fdfdff" style="fill: var(--color3, #fdfdff)" opacity="0.4" d="M5.507 30.43l0.479-3.473h0.74l-0.121 3.473h-1.098z"></path>
<path fill="#9cdfdf" style="fill: var(--color4, #9cdfdf)" d="M4.718 22.147c0 0 0.084 1.171 0.307 2.203s0.475 2.621 0.475 2.621h2.934c0 0 0.391-2.175 0.53-2.705s0.252-2.119 0.252-2.119l-4.498 0.001z"></path>
<path fill="#fdfdff" style="fill: var(--color3, #fdfdff)" opacity="0.7" d="M4.718 22.147c0 0 0.084 1.171 0.307 2.203s0.475 2.621 0.475 2.621h2.934c0 0 0.391-2.175 0.53-2.705s0.252-2.119 0.252-2.119l-4.498 0.001z"></path>
<path fill="#242424" style="fill: var(--color5, #242424)" opacity="0.3" d="M8.293 26.975h-2.609l-0.030 0.211h2.695l-0.057-0.211z"></path>
<path fill="#fdfdff" style="fill: var(--color3, #fdfdff)" opacity="0.4" d="M5.296 22.147l0.69 4.809h0.74c0 0-0.656-4.027-0.589-4.809h-0.841z"></path>
<path fill="#7e8fdd" style="fill: var(--color1, #7e8fdd)" d="M24.552 27.462c0.578-2.185-0.833-4.451-3.151-5.062s-4.665 0.665-5.243 2.85c-0.578 2.185 0.833 4.451 3.151 5.062s4.666-0.665 5.244-2.85z"></path>
<path fill="#242424" style="fill: var(--color5, #242424)" opacity="0.3" d="M24.552 27.462c0.578-2.185-0.833-4.451-3.151-5.062s-4.665 0.665-5.243 2.85c-0.578 2.185 0.833 4.451 3.151 5.062s4.666-0.665 5.244-2.85z"></path>
<path fill="#7e8fdd" style="fill: var(--color1, #7e8fdd)" d="M23.453 28.675c1.319-1.836 0.897-4.392-0.943-5.709s-4.401-0.895-5.72 0.941c-1.319 1.836-0.897 4.392 0.943 5.709s4.401 0.895 5.72-0.941z"></path>
<path fill="#7e8fdd" style="fill: var(--color1, #7e8fdd)" d="M20.378 30.204c2.168-0.145 3.808-2.016 3.664-4.18s-2.020-3.801-4.188-3.657c-2.168 0.145-3.808 2.016-3.664 4.18s2.020 3.801 4.188 3.657z"></path>
<path fill="#fdfdff" style="fill: var(--color3, #fdfdff)" opacity="0.8" d="M20.378 30.204c2.168-0.145 3.808-2.016 3.664-4.18s-2.020-3.801-4.188-3.657c-2.168 0.145-3.808 2.016-3.664 4.18s2.020 3.801 4.188 3.657z"></path>
<path fill="#7e8fdd" style="fill: var(--color1, #7e8fdd)" d="M16.584 25.769c-0.1 0.666-0.008 1.346 0.266 1.962 0.051 0.113 0.183 0.163 0.297 0.112 0.007-0.003 0.013-0.007 0.020-0.010l2.353-1.368c0.050-0.025 0.068-0.087 0.043-0.136-0.014-0.026-0.037-0.045-0.066-0.051l-2.637-0.693c-0.119-0.031-0.241 0.041-0.272 0.159-0.002 0.008-0.003 0.016-0.005 0.025h0.001z"></path>
<path fill="#7e8fdd" style="fill: var(--color1, #7e8fdd)" d="M19.668 26.719l-2.354 1.367c-0.107 0.062-0.142 0.2-0.079 0.306 0.004 0.007 0.008 0.013 0.013 0.019 0.401 0.541 0.949 0.957 1.578 1.2 0.116 0.045 0.245-0.013 0.29-0.128 0.003-0.008 0.005-0.014 0.007-0.022l0.695-2.629c0.015-0.054-0.017-0.109-0.071-0.124-0.027-0.008-0.055-0.003-0.078 0.011v-0.001z"></path>
<path fill="#7e8fdd" style="fill: var(--color1, #7e8fdd)" d="M20.103 26.908l-0.695 2.629c-0.031 0.119 0.039 0.241 0.159 0.272 0.008 0.003 0.017 0.004 0.026 0.005 0.667 0.099 1.348 0.007 1.965-0.266 0.113-0.050 0.165-0.181 0.115-0.293-0.003-0.007-0.008-0.015-0.012-0.023l-1.371-2.349c-0.027-0.049-0.089-0.066-0.138-0.039-0.025 0.014-0.042 0.036-0.049 0.064v-0.001z"></path>
<path fill="#7e8fdd" style="fill: var(--color1, #7e8fdd)" d="M16.937 25.301l2.633 0.693c0.054 0.014 0.11-0.018 0.125-0.072 0.007-0.026 0.003-0.054-0.010-0.077l-1.371-2.349c-0.063-0.106-0.199-0.142-0.305-0.080-0.007 0.004-0.014 0.008-0.020 0.013-0.542 0.401-0.96 0.946-1.202 1.574-0.045 0.115 0.013 0.244 0.128 0.289 0.008 0.003 0.015 0.006 0.024 0.008h-0.001z"></path>
<path fill="#7e8fdd" style="fill: var(--color1, #7e8fdd)" d="M20.543 26.735l1.371 2.349c0.063 0.106 0.199 0.142 0.305 0.080 0.007-0.004 0.014-0.008 0.020-0.014 0.542-0.4 0.96-0.947 1.202-1.575 0.045-0.115-0.012-0.244-0.127-0.288-0.008-0.003-0.016-0.006-0.025-0.008l-2.634-0.694c-0.054-0.014-0.11 0.018-0.125 0.073-0.007 0.026-0.003 0.054 0.011 0.078l0.001-0.001z"></path>
<path fill="#7e8fdd" style="fill: var(--color1, #7e8fdd)" d="M20.125 25.675l0.695-2.629c0.031-0.12-0.040-0.242-0.16-0.273-0.007-0.002-0.016-0.003-0.024-0.005-0.667-0.099-1.349-0.007-1.966 0.267-0.112 0.050-0.164 0.181-0.114 0.294 0.003 0.007 0.007 0.014 0.011 0.022l1.371 2.349c0.029 0.048 0.091 0.065 0.139 0.036 0.023-0.014 0.040-0.035 0.047-0.061h0.001z"></path>
<path fill="#7e8fdd" style="fill: var(--color1, #7e8fdd)" d="M20.559 25.863l2.353-1.368c0.107-0.062 0.143-0.198 0.080-0.304-0.004-0.007-0.008-0.013-0.013-0.020-0.401-0.541-0.949-0.957-1.578-1.2-0.115-0.045-0.244 0.012-0.289 0.126-0.003 0.008-0.006 0.016-0.008 0.025l-0.695 2.629c-0.014 0.054 0.018 0.11 0.073 0.125 0.026 0.007 0.054 0.003 0.078-0.011l-0.001-0.001z"></path>
<path fill="#7e8fdd" style="fill: var(--color1, #7e8fdd)" d="M20.732 26.302l2.633 0.693c0.118 0.032 0.241-0.039 0.272-0.157 0.003-0.008 0.004-0.018 0.005-0.026 0.1-0.666 0.008-1.346-0.265-1.962-0.051-0.113-0.183-0.163-0.297-0.112-0.007 0.003-0.013 0.007-0.020 0.011l-2.354 1.367c-0.048 0.029-0.064 0.091-0.035 0.139 0.014 0.023 0.036 0.040 0.062 0.047z"></path>
<path fill="#fdfdff" style="fill: var(--color3, #fdfdff)" opacity="0.3" d="M16.584 25.769c-0.1 0.666-0.008 1.346 0.266 1.963 0.051 0.113 0.183 0.163 0.297 0.112 0.007-0.003 0.013-0.007 0.020-0.010l2.353-1.368c0.050-0.025 0.068-0.087 0.043-0.136-0.014-0.026-0.037-0.045-0.066-0.051l-2.637-0.693c-0.119-0.031-0.241 0.040-0.272 0.159-0.002 0.008-0.003 0.016-0.005 0.024h0.001z"></path>
<path fill="#fdfdff" style="fill: var(--color3, #fdfdff)" opacity="0.3" d="M19.668 26.719l-2.354 1.367c-0.107 0.062-0.142 0.2-0.079 0.306 0.004 0.007 0.008 0.014 0.013 0.019 0.401 0.541 0.949 0.957 1.578 1.2 0.116 0.045 0.245-0.013 0.29-0.128 0.003-0.007 0.005-0.014 0.007-0.022l0.695-2.629c0.015-0.054-0.017-0.109-0.071-0.124-0.027-0.008-0.055-0.003-0.078 0.011v-0.001z"></path>
<path fill="#fdfdff" style="fill: var(--color3, #fdfdff)" opacity="0.3" d="M20.103 26.908l-0.695 2.629c-0.031 0.119 0.039 0.241 0.159 0.272 0.008 0.003 0.017 0.004 0.026 0.005 0.667 0.099 1.348 0.007 1.965-0.266 0.113-0.050 0.165-0.181 0.115-0.293-0.003-0.008-0.008-0.015-0.012-0.023l-1.371-2.349c-0.027-0.049-0.089-0.066-0.138-0.039-0.025 0.013-0.042 0.036-0.049 0.064v-0.001z"></path>
<path fill="#fdfdff" style="fill: var(--color3, #fdfdff)" opacity="0.3" d="M16.937 25.301l2.633 0.693c0.054 0.014 0.11-0.018 0.125-0.072 0.007-0.026 0.003-0.054-0.010-0.077l-1.371-2.349c-0.062-0.106-0.198-0.142-0.305-0.080-0.007 0.004-0.014 0.008-0.020 0.013-0.542 0.401-0.96 0.946-1.202 1.574-0.045 0.115 0.013 0.244 0.128 0.289 0.008 0.003 0.015 0.006 0.024 0.008h-0.001z"></path>
<path fill="#fdfdff" style="fill: var(--color3, #fdfdff)" opacity="0.3" d="M20.543 26.735l1.371 2.349c0.063 0.106 0.199 0.142 0.305 0.080 0.007-0.004 0.014-0.008 0.020-0.014 0.542-0.4 0.96-0.947 1.202-1.575 0.045-0.115-0.012-0.244-0.127-0.288-0.008-0.003-0.016-0.006-0.025-0.007l-2.634-0.694c-0.054-0.014-0.11 0.018-0.125 0.072-0.007 0.026-0.003 0.054 0.011 0.078l0.001-0.001z"></path>
<path fill="#fdfdff" style="fill: var(--color3, #fdfdff)" opacity="0.3" d="M20.125 25.675l0.695-2.629c0.031-0.12-0.040-0.242-0.16-0.273-0.007-0.002-0.016-0.003-0.024-0.005-0.667-0.099-1.349-0.007-1.966 0.267-0.112 0.050-0.164 0.181-0.114 0.294 0.003 0.007 0.007 0.014 0.011 0.022l1.371 2.349c0.029 0.048 0.091 0.065 0.139 0.036 0.023-0.014 0.040-0.035 0.047-0.061h0.001z"></path>
<path fill="#fdfdff" style="fill: var(--color3, #fdfdff)" opacity="0.3" d="M20.559 25.863l2.353-1.368c0.107-0.062 0.143-0.198 0.080-0.304-0.004-0.007-0.008-0.014-0.013-0.020-0.401-0.541-0.949-0.957-1.578-1.2-0.115-0.045-0.244 0.012-0.289 0.126-0.003 0.008-0.006 0.016-0.008 0.025l-0.695 2.628c-0.014 0.054 0.018 0.11 0.073 0.125 0.026 0.007 0.054 0.003 0.078-0.011l-0.001-0.001z"></path>
<path fill="#fdfdff" style="fill: var(--color3, #fdfdff)" opacity="0.3" d="M20.732 26.302l2.633 0.693c0.118 0.032 0.241-0.039 0.272-0.157 0.003-0.008 0.004-0.018 0.005-0.026 0.1-0.666 0.008-1.346-0.265-1.962-0.051-0.113-0.183-0.163-0.297-0.112-0.007 0.003-0.013 0.007-0.020 0.011l-2.354 1.367c-0.048 0.029-0.064 0.091-0.035 0.139 0.014 0.023 0.036 0.040 0.062 0.046z"></path>
<path fill="#7e8fdd" style="fill: var(--color1, #7e8fdd)" d="M18.145 26.48c0.112-0.014 0.209 0.017 0.216 0.071s-0.078 0.109-0.191 0.123c-0.112 0.014-0.209-0.017-0.216-0.071s0.078-0.11 0.191-0.123z"></path>
<path fill="#fdfdff" style="fill: var(--color3, #fdfdff)" opacity="0.6" d="M18.145 26.48c0.112-0.014 0.209 0.017 0.216 0.071s-0.078 0.109-0.191 0.123c-0.112 0.014-0.209-0.017-0.216-0.071s0.078-0.11 0.191-0.123z"></path>
<path fill="#7e8fdd" style="fill: var(--color1, #7e8fdd)" d="M18.824 27.57c0.084-0.075 0.182-0.103 0.218-0.063s-0.003 0.134-0.088 0.209c-0.085 0.074-0.182 0.104-0.219 0.063s0.006-0.131 0.089-0.209z"></path>
<path fill="#fdfdff" style="fill: var(--color3, #fdfdff)" opacity="0.6" d="M18.824 27.57c0.084-0.075 0.182-0.103 0.218-0.063s-0.003 0.134-0.088 0.209c-0.085 0.074-0.182 0.104-0.219 0.063s0.006-0.131 0.089-0.209z"></path>
<path fill="#7e8fdd" style="fill: var(--color1, #7e8fdd)" d="M18.781 28.475c0.067-0.091 0.155-0.14 0.199-0.108s0.025 0.131-0.040 0.223c-0.066 0.092-0.156 0.14-0.199 0.108s-0.026-0.131 0.041-0.223z"></path>
<path fill="#fdfdff" style="fill: var(--color3, #fdfdff)" opacity="0.6" d="M18.781 28.475c0.067-0.091 0.155-0.14 0.199-0.108s0.025 0.131-0.040 0.223c-0.066 0.092-0.156 0.14-0.199 0.108s-0.026-0.131 0.041-0.223z"></path>
<path fill="#7e8fdd" style="fill: var(--color1, #7e8fdd)" d="M21.276 24.023c0.061-0.096 0.146-0.15 0.192-0.122s0.035 0.129-0.025 0.226c-0.060 0.097-0.146 0.15-0.192 0.122s-0.033-0.128 0.025-0.226z"></path>
<path fill="#fdfdff" style="fill: var(--color3, #fdfdff)" opacity="0.6" d="M21.276 24.023c0.061-0.096 0.146-0.15 0.192-0.122s0.035 0.129-0.025 0.226c-0.060 0.097-0.146 0.15-0.192 0.122s-0.033-0.128 0.025-0.226z"></path>
<path fill="#7e8fdd" style="fill: var(--color1, #7e8fdd)" d="M21.251 24.907c0.066-0.092 0.155-0.14 0.199-0.109s0.025 0.131-0.041 0.223c-0.066 0.092-0.155 0.14-0.199 0.109s-0.026-0.131 0.041-0.223z"></path>
<path fill="#fdfdff" style="fill: var(--color3, #fdfdff)" opacity="0.6" d="M21.251 24.907c0.066-0.092 0.155-0.14 0.199-0.109s0.025 0.131-0.041 0.223c-0.066 0.092-0.155 0.14-0.199 0.109s-0.026-0.131 0.041-0.223z"></path>
<path fill="#fdfdff" style="fill: var(--color3, #fdfdff)" opacity="0.6" d="M22.422 26.111c0.112-0.018 0.209 0.011 0.218 0.064s-0.075 0.11-0.188 0.129c-0.111 0.019-0.209-0.011-0.218-0.064s0.074-0.111 0.188-0.129z"></path>
<path fill="#fdfdff" style="fill: var(--color3, #fdfdff)" opacity="0.6" d="M18.157 24.639c-0.072-0.088-0.095-0.186-0.053-0.22s0.134 0.010 0.205 0.097c0.072 0.088 0.096 0.186 0.053 0.22s-0.133-0.009-0.205-0.097z"></path>
<path fill="#fdfdff" style="fill: var(--color3, #fdfdff)" opacity="0.6" d="M18.426 25.375c-0.113-0.006-0.202-0.056-0.199-0.109s0.098-0.092 0.21-0.086c0.113 0.006 0.202 0.056 0.199 0.11s-0.097 0.093-0.21 0.086v-0.001z"></path>
<path fill="#fdfdff" style="fill: var(--color3, #fdfdff)" opacity="0.6" d="M19.483 23.987c-0.012-0.112 0.024-0.207 0.077-0.213 0.053-0.005 0.106 0.082 0.117 0.194s-0.024 0.207-0.077 0.213c-0.053 0.005-0.106-0.081-0.117-0.194z"></path>
<path fill="#7e8fdd" style="fill: var(--color1, #7e8fdd)" d="M20.639 28.754c-0.012-0.111 0.022-0.207 0.074-0.213s0.107 0.081 0.119 0.194c0.013 0.112-0.022 0.207-0.074 0.213s-0.106-0.081-0.119-0.194z"></path>
<path fill="#fdfdff" style="fill: var(--color3, #fdfdff)" opacity="0.6" d="M20.639 28.754c-0.012-0.111 0.022-0.207 0.074-0.213s0.107 0.081 0.119 0.194c0.013 0.112-0.022 0.207-0.074 0.213s-0.106-0.081-0.119-0.194z"></path>
<path fill="#7e8fdd" style="fill: var(--color1, #7e8fdd)" d="M21.516 27.356c-0.095-0.063-0.146-0.15-0.117-0.195s0.131-0.031 0.226 0.031c0.095 0.062 0.146 0.149 0.117 0.195s-0.132 0.030-0.226-0.031z"></path>
<path fill="#fdfdff" style="fill: var(--color3, #fdfdff)" opacity="0.6" d="M21.516 27.356c-0.095-0.063-0.146-0.15-0.117-0.195s0.131-0.031 0.226 0.031c0.095 0.062 0.146 0.149 0.117 0.195s-0.132 0.030-0.226-0.031z"></path>
<path fill="#7e8fdd" style="fill: var(--color1, #7e8fdd)" d="M22.297 10.996h-15.877c0 0 0.091 4.781 5.064 5.828 0 0-0.33 3.322 2.464 3.659v7.954c-2.952 0.189-4.185 1.994-4.185 1.994h9.555c0 0-1.395-1.806-4.366-1.994v-7.979c2.599-0.456 2.282-3.633 2.282-3.633 4.973-1.047 5.064-5.828 5.064-5.828v-0.001z"></path>
<path fill="#fdfdff" style="fill: var(--color3, #fdfdff)" opacity="0.7" d="M22.297 10.996h-15.877c0 0 0.091 4.781 5.064 5.828 0 0-0.33 3.322 2.464 3.659v7.954c-2.952 0.189-4.185 1.994-4.185 1.994h9.555c0 0-1.395-1.806-4.366-1.994v-7.979c2.599-0.456 2.282-3.633 2.282-3.633 4.973-1.047 5.064-5.828 5.064-5.828v-0.001z"></path>
<path fill="#fdfdff" style="fill: var(--color3, #fdfdff)" opacity="0.4" d="M21.459 10.996h-13.797c0 0 0.145 4.25 4.467 5.164 0 0-0.473 3.613 2.35 3.613h0.209c2.259-0.398 2.004-3.708 2.004-3.708 4.562-1.133 4.768-5.070 4.768-5.070h-0.001z"></path>
<path fill="#7e8fdd" style="fill: var(--color1, #7e8fdd)" opacity="0.9" d="M22.297 10.996c0 0.305-3.554 0.553-7.938 0.553s-7.938-0.248-7.938-0.553 3.554-0.553 7.938-0.553c4.384 0 7.938 0.248 7.938 0.553z"></path>
<path fill="#fdfdff" style="fill: var(--color3, #fdfdff)" opacity="0.7" d="M22.297 10.996c0 0.305-3.554 0.553-7.938 0.553s-7.938-0.248-7.938-0.553 3.554-0.553 7.938-0.553c4.384 0 7.938 0.248 7.938 0.553z"></path>
<path fill="#7e8fdd" style="fill: var(--color1, #7e8fdd)" opacity="0.9" d="M20.332 13.819c-0.678 1.098-1.93 1.822-3.641 2.247 0 0 0.255 3.311-2.004 3.708h-0.209c-2.823 0-2.35-3.613-2.35-3.613-1.621-0.343-2.869-1.079-3.565-2.407 0 0 2.254-0.159 4.233 0.156s3.262 0.561 5.287 0.18c1.292-0.244 2.249-0.271 2.249-0.271l0.001 0.001z"></path>
<path fill="#242424" style="fill: var(--color5, #242424)" opacity="0.3" d="M8.563 13.753c0 0 2.875 1.315 6.949 1.064s4.82-0.998 4.82-0.998-1.227 0.028-2.248 0.271c-1.021 0.243-2.619 0.191-3.324 0.11-0.686-0.078-3.651-0.683-6.197-0.446v-0.001z"></path>
<path fill="#7e8fdd" style="fill: var(--color1, #7e8fdd)" d="M11.309 15.546l-8.383-11.028 0.417-0.344 8.441 11.073c0 0 0.007 0.405-0.476 0.299v-0.001z"></path>
<path fill="#242424" style="fill: var(--color5, #242424)" opacity="0.3" d="M11.309 15.546l-8.383-11.028 0.417-0.344 8.441 11.073c0 0 0.007 0.405-0.476 0.299v-0.001z"></path>
<path fill="#7e8fdd" style="fill: var(--color1, #7e8fdd)" d="M10.565 8.279c-0.057-0.102-0.115-0.201-0.182-0.3-1.27-1.902-3.758-2.473-5.557-1.276s-2.227 3.71-0.957 5.61c0.065 0.099 0.135 0.192 0.208 0.284l6.489-4.319z"></path>
<path fill="#242424" style="fill: var(--color5, #242424)" opacity="0.3" d="M10.565 8.279c-0.057-0.102-0.115-0.201-0.182-0.3-1.27-1.902-3.758-2.473-5.557-1.276s-2.227 3.71-0.957 5.61c0.065 0.099 0.135 0.192 0.208 0.284l6.489-4.319z"></path>
<path fill="#7e8fdd" style="fill: var(--color1, #7e8fdd)" d="M10.575 8.273c-0.022-0.035-0.042-0.068-0.064-0.102-1.199-1.796-3.63-2.28-5.429-1.083s-2.285 3.623-1.085 5.418c0.023 0.034 0.046 0.066 0.069 0.099l6.509-4.332z"></path>
<path fill="#fdfdff" style="fill: var(--color3, #fdfdff)" opacity="0.8" d="M10.439 8.358c-0.019-0.032-0.040-0.065-0.060-0.096-1.151-1.723-3.484-2.188-5.211-1.039s-2.193 3.478-1.042 5.201c0.022 0.032 0.044 0.062 0.063 0.092l6.25-4.157z"></path>
<path fill="#7e8fdd" style="fill: var(--color1, #7e8fdd)" d="M7.656 9.911l2.16-1.443c0.098-0.067 0.123-0.2 0.056-0.298-0.003-0.006-0.008-0.011-0.012-0.016-0.414-0.493-0.96-0.857-1.574-1.052-0.112-0.035-0.232 0.027-0.268 0.138-0.003 0.008-0.004 0.015-0.006 0.023l-0.509 2.545c-0.012 0.053 0.022 0.105 0.075 0.117 0.027 0.006 0.056 0 0.079-0.016v0.002z"></path>
<path fill="#7e8fdd" style="fill: var(--color1, #7e8fdd)" d="M7.232 9.756l0.51-2.546c0.023-0.115-0.052-0.228-0.167-0.25-0.008-0.002-0.015-0.003-0.023-0.003-0.642-0.056-1.286 0.072-1.858 0.368-0.105 0.053-0.146 0.18-0.093 0.285 0.004 0.008 0.008 0.015 0.013 0.022l1.446 2.162c0.034 0.043 0.096 0.050 0.139 0.016 0.017-0.014 0.029-0.031 0.034-0.052z"></path>
<path fill="#7e8fdd" style="fill: var(--color1, #7e8fdd)" d="M6.668 10.37l-2.551-0.51c-0.116-0.023-0.229 0.052-0.252 0.169-0.002 0.008-0.003 0.015-0.003 0.023-0.056 0.641 0.072 1.284 0.368 1.855 0.054 0.105 0.182 0.146 0.287 0.092 0.007-0.003 0.014-0.008 0.020-0.012l2.164-1.441c0.044-0.032 0.053-0.094 0.021-0.137-0.013-0.019-0.033-0.032-0.056-0.037l0.001-0.001z"></path>
<path fill="#7e8fdd" style="fill: var(--color1, #7e8fdd)" d="M6.822 9.945l-1.444-2.16c-0.067-0.098-0.2-0.122-0.298-0.056-0.006 0.003-0.011 0.008-0.016 0.012-0.494 0.413-0.859 0.958-1.054 1.571-0.035 0.113 0.027 0.233 0.139 0.268 0.007 0.003 0.014 0.004 0.022 0.006l2.55 0.508c0.054 0.009 0.105-0.027 0.113-0.081 0.004-0.024-0.001-0.049-0.014-0.069h0.002z"></path>
<path fill="#fdfdff" style="fill: var(--color3, #fdfdff)" opacity="0.3" d="M7.656 9.911l2.16-1.443c0.098-0.067 0.123-0.2 0.056-0.298-0.003-0.006-0.008-0.011-0.012-0.016-0.414-0.493-0.96-0.857-1.574-1.052-0.112-0.035-0.232 0.027-0.268 0.138-0.003 0.008-0.004 0.015-0.006 0.023l-0.509 2.545c-0.012 0.053 0.022 0.105 0.075 0.117 0.027 0.006 0.056 0 0.079-0.016v0.002z"></path>
<path fill="#fdfdff" style="fill: var(--color3, #fdfdff)" opacity="0.3" d="M7.232 9.756l0.51-2.546c0.023-0.115-0.052-0.228-0.167-0.25-0.008-0.002-0.015-0.003-0.023-0.003-0.642-0.056-1.286 0.072-1.858 0.368-0.105 0.053-0.146 0.18-0.093 0.285 0.004 0.008 0.008 0.015 0.013 0.022l1.446 2.162c0.034 0.043 0.096 0.050 0.139 0.016 0.017-0.014 0.029-0.031 0.034-0.052z"></path>
<path fill="#fdfdff" style="fill: var(--color3, #fdfdff)" opacity="0.3" d="M6.668 10.37l-2.551-0.51c-0.116-0.023-0.229 0.052-0.252 0.169-0.002 0.008-0.003 0.015-0.003 0.023-0.056 0.641 0.072 1.284 0.368 1.855 0.054 0.105 0.182 0.146 0.287 0.092 0.007-0.003 0.014-0.008 0.020-0.012l2.164-1.441c0.044-0.032 0.053-0.094 0.021-0.137-0.013-0.019-0.033-0.032-0.056-0.037l0.001-0.001z"></path>
<path fill="#fdfdff" style="fill: var(--color3, #fdfdff)" opacity="0.3" d="M6.822 9.945l-1.444-2.16c-0.067-0.098-0.2-0.122-0.298-0.056-0.006 0.003-0.011 0.008-0.016 0.012-0.494 0.413-0.859 0.958-1.054 1.571-0.035 0.113 0.027 0.233 0.139 0.268 0.007 0.003 0.014 0.004 0.022 0.006l2.55 0.508c0.054 0.009 0.105-0.027 0.113-0.081 0.004-0.024-0.001-0.049-0.014-0.069h0.002z"></path>
<path fill="#7e8fdd" style="fill: var(--color1, #7e8fdd)" d="M4.987 11.231c-0.104 0.031-0.199 0.016-0.214-0.033s0.057-0.116 0.16-0.146c0.104-0.031 0.2-0.015 0.215 0.035s-0.058 0.116-0.16 0.145l-0.001-0.001z"></path>
<path fill="#fdfdff" style="fill: var(--color3, #fdfdff)" opacity="0.6" d="M4.987 11.231c-0.104 0.031-0.199 0.016-0.214-0.033s0.057-0.116 0.16-0.146c0.104-0.031 0.2-0.015 0.215 0.035s-0.058 0.116-0.16 0.145l-0.001-0.001z"></path>
<path fill="#7e8fdd" style="fill: var(--color1, #7e8fdd)" d="M5.566 10.615c-0.106 0.024-0.201 0.003-0.211-0.048s0.062-0.112 0.169-0.132c0.107-0.020 0.201-0.003 0.212 0.049s-0.064 0.109-0.17 0.132v-0.001z"></path>
<path fill="#fdfdff" style="fill: var(--color3, #fdfdff)" opacity="0.6" d="M5.566 10.615c-0.106 0.024-0.201 0.003-0.211-0.048s0.062-0.112 0.169-0.132c0.107-0.020 0.201-0.003 0.212 0.049s-0.064 0.109-0.17 0.132v-0.001z"></path>
<path fill="#7e8fdd" style="fill: var(--color1, #7e8fdd)" d="M8.444 8.252c-0.063 0.087-0.149 0.135-0.191 0.105s-0.024-0.126 0.037-0.213 0.148-0.135 0.19-0.105c0.042 0.030 0.025 0.126-0.036 0.214z"></path>
<path fill="#fdfdff" style="fill: var(--color3, #fdfdff)" opacity="0.6" d="M8.444 8.252c-0.063 0.087-0.149 0.135-0.191 0.105s-0.024-0.126 0.037-0.213 0.148-0.135 0.19-0.105c0.042 0.030 0.025 0.126-0.036 0.214z"></path>
<path fill="#fdfdff" style="fill: var(--color3, #fdfdff)" opacity="0.6" d="M5.611 9.095c0.080 0.073 0.118 0.163 0.083 0.201s-0.128 0.011-0.208-0.061c-0.080-0.072-0.117-0.162-0.083-0.201s0.128-0.011 0.208 0.061z"></path>
<path fill="#7e8fdd" style="fill: var(--color1, #7e8fdd)" d="M5.289 6.007c0.046 0.462-0.291 0.873-0.753 0.92s-0.875-0.29-0.922-0.752 0.291-0.873 0.753-0.92c0.463-0.046 0.875 0.29 0.922 0.752z"></path>
<path fill="#fdfdff" style="fill: var(--color3, #fdfdff)" opacity="0.3" d="M3.803 5.766c0 0-0.202 0.328-0.024 0.649s0.438 0.384 0.438 0.384 0.005-0.325-0.020-0.639c-0.025-0.314-0.394-0.395-0.394-0.395h0.001z"></path>
<path fill="#fdfdff" style="fill: var(--color3, #fdfdff)" opacity="0.27" d="M21.432 11.282c-4.462 0.361-9.048 0.348-13.743 0.002 0 0 0.012 2.129 1.872 3.71 0.622 0.529 1.492 0.937 2.574 1.165 0 0-0.473 3.613 2.35 3.613h0.209c2.259-0.398 2.004-3.708 2.004-3.708 1.011-0.251 1.802-0.53 2.431-0.983 2.207-1.592 2.303-3.8 2.303-3.8z"></path>
<path fill="#9cdfdf" style="fill: var(--color4, #9cdfdf)" d="M22.297 10.996c-0.005 0.044-0.052 0.064-0.087 0.082-0.271 0.109-0.568 0.137-0.855 0.18-0.993 0.124-1.994 0.175-2.994 0.22-3.663 0.12-7.35 0.156-10.999-0.22-0.287-0.043-0.584-0.072-0.855-0.18-0.035-0.019-0.081-0.039-0.087-0.082 0.005 0.044 0.052 0.063 0.087 0.082 0.271 0.108 0.568 0.136 0.855 0.178 3.651 0.366 7.335 0.315 10.999 0.212 0.999-0.042 2-0.091 2.994-0.212 0.287-0.042 0.584-0.070 0.855-0.178 0.035-0.019 0.081-0.038 0.087-0.082z"></path>
<path fill="#242424" style="fill: var(--color5, #242424)" opacity="0.3" d="M13.948 20.482v0.21c0 0 0.547 0.105 1.003-0.032v-0.203c-0.371 0.091-0.593 0.087-0.981 0.030z"></path>
<path fill="#9cdfdf" style="fill: var(--color4, #9cdfdf)" d="M12.941 28.593c0.922-0.243 1.905-0.267 2.837-0.071-0.938-0.169-1.908-0.146-2.837 0.071z"></path>
<path fill="#fdfdff" style="fill: var(--color3, #fdfdff)" opacity="0.3" d="M14.359 17.242c0.126 0 0.228-0.102 0.228-0.227s-0.102-0.228-0.228-0.228-0.228 0.102-0.228 0.228c0 0.126 0.102 0.227 0.228 0.227z"></path>
<path fill="#fdfdff" style="fill: var(--color3, #fdfdff)" opacity="0.3" d="M13.72 17.766c0 0.096-0.078 0.174-0.174 0.174s-0.174-0.078-0.174-0.174c0-0.096 0.078-0.174 0.174-0.174s0.174 0.078 0.174 0.174z"></path>
<path fill="#fdfdff" style="fill: var(--color3, #fdfdff)" opacity="0.3" d="M15.881 18.303c0.062 0 0.112-0.050 0.112-0.111s-0.050-0.111-0.112-0.111c-0.062 0-0.111 0.050-0.111 0.111s0.050 0.111 0.111 0.111z"></path>
<path fill="#fdfdff" style="fill: var(--color3, #fdfdff)" opacity="0.3" d="M13.398 16.855c0.062 0 0.111-0.050 0.111-0.111s-0.050-0.111-0.111-0.111c-0.062 0-0.111 0.050-0.111 0.111s0.050 0.111 0.111 0.111z"></path>
<path fill="#fdfdff" style="fill: var(--color3, #fdfdff)" opacity="0.3" d="M15.424 18.719c0 0.155-0.126 0.281-0.281 0.281s-0.281-0.126-0.281-0.281c0-0.155 0.126-0.281 0.281-0.281s0.281 0.126 0.281 0.281z"></path>
</symbol>
<symbol id="icon-shaker-mobile" viewBox="0 0 37 32">
<path fill="#fdfdff" style="fill: var(--color3, #fdfdff)" d="M18.822 4.039c-0.073 0-0.795 0.056-0.896 0.89h-0.118c0 0 0.035-0.813-0.896-0.856l0.005-0.129c0.073 0 0.765-0.031 0.867-0.865h0.118c0 0-0.080 0.752 0.92 0.87v0.091z"></path>
<path fill="#fdfdff" style="fill: var(--color3, #fdfdff)" d="M6.262 17.793c-0.073 0-0.795 0.056-0.896 0.89h-0.118c0 0 0.035-0.813-0.896-0.856l0.005-0.129c0.073 0 0.765-0.031 0.867-0.866h0.118c0 0-0.080 0.752 0.92 0.87v0.091z"></path>
<path fill="#fdfdff" style="fill: var(--color3, #fdfdff)" d="M37.246 17.294c-0.073 0-0.795 0.056-0.896 0.89h-0.118c0 0 0.036-0.813-0.896-0.856l0.005-0.129c0.073 0 0.765-0.031 0.867-0.866h0.118c0 0-0.080 0.752 0.92 0.87v0.091z"></path>
<path fill="#fdfdff" style="fill: var(--color3, #fdfdff)" d="M13.977 6.966c-0.053 0-0.572 0.040-0.644 0.64h-0.084c0 0 0.025-0.585-0.644-0.616l0.003-0.093c0.053 0 0.551-0.023 0.623-0.622h0.084c0 0-0.057 0.54 0.661 0.625v0.066h0.001z"></path>
<path fill="#fdfdff" style="fill: var(--color3, #fdfdff)" d="M3.029 13.626c-0.053 0-0.572 0.040-0.644 0.64h-0.084c0 0 0.025-0.585-0.644-0.616l0.003-0.093c0.053 0 0.551-0.023 0.623-0.622h0.084c0 0-0.057 0.54 0.661 0.625v0.066h0.001z"></path>
<path fill="#fdfdff" style="fill: var(--color3, #fdfdff)" d="M12.447 23.959c-0.053 0-0.572 0.040-0.644 0.64h-0.084c0 0 0.025-0.585-0.644-0.616l0.003-0.093c0.053 0 0.551-0.023 0.623-0.622h0.084c0 0-0.057 0.54 0.661 0.625v0.066l0.001-0.001z"></path>
<path fill="#fdfdff" style="fill: var(--color3, #fdfdff)" d="M34.954 12.67c-0.035 0-0.37 0.026-0.417 0.415h-0.055c0 0 0.016-0.379-0.417-0.399l0.003-0.060c0.035 0 0.356-0.014 0.403-0.403h0.055c0 0-0.037 0.351 0.428 0.405v0.042z"></path>
<path fill="#fdfdff" style="fill: var(--color3, #fdfdff)" d="M34.2 24.093c-0.053 0-0.571 0.040-0.644 0.64h-0.084c0 0 0.025-0.585-0.644-0.616l0.003-0.093c0.053 0 0.551-0.023 0.623-0.622h0.084c0 0-0.057 0.54 0.661 0.625v0.066h0.001z"></path>
<path fill="#fdfdff" style="fill: var(--color3, #fdfdff)" d="M13.829 0.629c-0.041 0-0.449 0.032-0.507 0.503h-0.067c0 0 0.019-0.46-0.506-0.485l0.003-0.072c0.041 0 0.432-0.018 0.49-0.489h0.067c0 0-0.046 0.425 0.519 0.491v0.051h0.001z"></path>
<path fill="#fdfdff" style="fill: var(--color3, #fdfdff)" d="M33.953 2.595c-0.041 0-0.449 0.032-0.507 0.503h-0.067c0 0 0.019-0.46-0.506-0.485l0.003-0.072c0.041 0 0.432-0.018 0.49-0.489h0.067c0 0-0.046 0.425 0.519 0.491v0.051h0.001z"></path>
<path fill="#fdfdff" style="fill: var(--color3, #fdfdff)" d="M10.176 19.308c-0.024 0-0.262 0.019-0.296 0.293h-0.039c0 0 0.012-0.268-0.296-0.282l0.002-0.042c0.024 0 0.253-0.010 0.286-0.286h0.039c0 0-0.026 0.248 0.303 0.287v0.030z"></path>
<path fill="#fdfdff" style="fill: var(--color3, #fdfdff)" d="M7.181 2.892c-0.024 0-0.262 0.019-0.296 0.293h-0.039c0 0 0.012-0.268-0.296-0.282l0.002-0.042c0.024 0 0.253-0.010 0.286-0.286h0.039c0 0-0.026 0.248 0.303 0.287v0.030z"></path>
<path fill="#fdfdff" style="fill: var(--color3, #fdfdff)" d="M2.837 23.465c-0.039 0-0.416 0.029-0.469 0.466h-0.062c0 0 0.019-0.426-0.469-0.448l0.003-0.067c0.039 0 0.401-0.016 0.454-0.453h0.062c0 0-0.042 0.394 0.481 0.455v0.048z"></path>
<path fill="#fdfdff" style="fill: var(--color3, #fdfdff)" d="M33.413 7.688c-0.025 0-0.262 0.019-0.296 0.293h-0.039c0 0 0.012-0.268-0.296-0.282l0.002-0.042c0.024 0 0.253-0.010 0.286-0.286h0.039c0 0-0.026 0.248 0.303 0.287v0.030z"></path>
<path fill="#fdfdff" style="fill: var(--color3, #fdfdff)" d="M24.916 0.317c-0.024 0-0.262 0.019-0.296 0.293h-0.039c0 0 0.012-0.268-0.296-0.282l0.002-0.042c0.024 0 0.253-0.010 0.286-0.286h0.039c0 0-0.026 0.248 0.303 0.287v0.030z"></path>
<path fill="#fdfdff" style="fill: var(--color3, #fdfdff)" d="M17.652 21.684c-0.024 0-0.262 0.019-0.296 0.293h-0.039c0 0 0.012-0.268-0.296-0.282l0.002-0.042c0.024 0 0.253-0.010 0.286-0.286h0.039c0 0-0.026 0.248 0.303 0.287v0.030z"></path>
<path fill="#fdfdff" style="fill: var(--color3, #fdfdff)" d="M35.27 30.526c0 0.286-7.896 0.517-17.635 0.517s-17.635-0.232-17.635-0.517c0-0.285 7.895-0.516 17.635-0.516s17.635 0.232 17.635 0.516z"></path>
<path fill="#9cdfdf" style="fill: var(--color4, #9cdfdf)" d="M19.704 9.82c0 0 0.1 3.672 0.349 5.578s1.895 15.015 1.895 15.015h4.438v-28.45h-3.092v3.208c0 0-2.594 0.698-2.494 3.766l-1.097 0.883z"></path>
<path fill="#9cdfdf" style="fill: var(--color4, #9cdfdf)" d="M33.068 9.82c0 0-0.1 3.672-0.349 5.578s-1.895 15.015-1.895 15.015h-4.438v-28.45h3.092v3.208c0 0 2.594 0.698 2.494 3.766l1.097 0.883z"></path>
<path fill="#fdfdff" style="fill: var(--color3, #fdfdff)" opacity="0.5" d="M19.704 9.82c0 0 0.1 3.672 0.349 5.578s1.895 15.015 1.895 15.015h4.438v-28.45h-3.092v3.208c0 0-2.594 0.698-2.494 3.766l-1.097 0.883z"></path>
<path fill="#fdfdff" style="fill: var(--color3, #fdfdff)" opacity="0.5" d="M33.068 9.82c0 0-0.1 3.672-0.349 5.578s-1.895 15.015-1.895 15.015h-4.438v-28.45h3.092v3.208c0 0 2.594 0.698 2.494 3.766l1.097 0.883z"></path>
<path fill="#fdfdff" style="fill: var(--color3, #fdfdff)" opacity="0.3" d="M23.869 5.162l-0.044-3.198h1.535l-0.274 3.198h-1.217z"></path>
<path fill="#fdfdff" style="fill: var(--color3, #fdfdff)" opacity="0.3" d="M23.603 9.82h-2.985l2.422 20.596h2.872l-2.309-20.596z"></path>
<path fill="#9cdfdf" style="fill: var(--color4, #9cdfdf)" d="M19.704 9.82c4.282-0.026 9.086-0.026 13.367 0-4.282 0.026-9.085 0.026-13.367 0z"></path>
<path fill="#fdfdff" style="fill: var(--color3, #fdfdff)" opacity="0.3" d="M22.049 8.914c0 0-0.097-1.558 0.414-2.384s1.412-1.369 1.412-1.369h1.217c0 0-1.795 0.81-1.525 3.754h-1.517z"></path>
<path fill="#9cdfdf" style="fill: var(--color4, #9cdfdf)" d="M4.91 30.417c0 0 0.391-1.673 0.559-2.453s0.335-1.394 0.335-1.394h2.402c0 0 0.583 2.635 0.759 3.702 0.008 0.052 0.016 0.1 0.023 0.145h-4.078z"></path>
<path fill="#fdfdff" style="fill: var(--color3, #fdfdff)" opacity="0.7" d="M4.91 30.417c0 0 0.391-1.673 0.559-2.453s0.335-1.394 0.335-1.394h2.402c0 0 0.583 2.635 0.759 3.702 0.008 0.052 0.016 0.1 0.023 0.145h-4.078z"></path>
<path fill="#fdfdff" style="fill: var(--color3, #fdfdff)" opacity="0.4" d="M5.504 30.418l0.479-3.472h0.74l-0.121 3.472h-1.098z"></path>
<path fill="#9cdfdf" style="fill: var(--color4, #9cdfdf)" d="M4.721 22.139c0 0 0.084 1.171 0.307 2.202s0.475 2.62 0.475 2.62h2.933c0 0 0.391-2.174 0.53-2.704s0.252-2.119 0.252-2.119l-4.496 0.001z"></path>
<path fill="#fdfdff" style="fill: var(--color3, #fdfdff)" opacity="0.7" d="M4.721 22.139c0 0 0.084 1.171 0.307 2.202s0.475 2.62 0.475 2.62h2.933c0 0 0.391-2.174 0.53-2.704s0.252-2.119 0.252-2.119l-4.496 0.001z"></path>
<path fill="#242424" style="fill: var(--color5, #242424)" opacity="0.3" d="M8.289 26.963h-2.608l-0.030 0.211h2.694l-0.057-0.211z"></path>
<path fill="#fdfdff" style="fill: var(--color3, #fdfdff)" opacity="0.4" d="M5.296 22.139l0.69 4.807h0.74c0 0-0.656-4.026-0.589-4.807h-0.841z"></path>
<path fill="#7e8fdd" style="fill: var(--color1, #7e8fdd)" d="M24.534 27.45c0.578-2.184-0.832-4.449-3.149-5.060s-4.664 0.665-5.242 2.849c-0.578 2.184 0.832 4.449 3.149 5.060s4.664-0.665 5.242-2.849z"></path>
<path fill="#242424" style="fill: var(--color5, #242424)" opacity="0.3" d="M24.534 27.45c0.578-2.184-0.832-4.449-3.149-5.060s-4.664 0.665-5.242 2.849c-0.578 2.184 0.832 4.449 3.149 5.060s4.664-0.665 5.242-2.849z"></path>
<path fill="#7e8fdd" style="fill: var(--color1, #7e8fdd)" d="M23.442 28.663c1.319-1.836 0.897-4.391-0.942-5.707s-4.399-0.895-5.718 0.941c-1.319 1.836-0.897 4.391 0.942 5.707s4.399 0.895 5.718-0.941z"></path>
<path fill="#7e8fdd" style="fill: var(--color1, #7e8fdd)" d="M20.366 30.192c2.167-0.144 3.807-2.015 3.662-4.178s-2.019-3.8-4.186-3.655c-2.167 0.144-3.807 2.015-3.662 4.178s2.019 3.8 4.186 3.655z"></path>
<path fill="#fdfdff" style="fill: var(--color3, #fdfdff)" opacity="0.8" d="M20.366 30.192c2.167-0.144 3.807-2.015 3.662-4.178s-2.019-3.8-4.186-3.655c-2.167 0.144-3.807 2.015-3.662 4.178s2.019 3.8 4.186 3.655z"></path>
<path fill="#7e8fdd" style="fill: var(--color1, #7e8fdd)" d="M16.579 25.758c-0.1 0.666-0.008 1.346 0.266 1.962 0.051 0.113 0.183 0.163 0.296 0.112 0.007-0.003 0.014-0.007 0.020-0.010l2.352-1.368c0.050-0.025 0.068-0.087 0.043-0.136-0.014-0.026-0.037-0.045-0.066-0.051l-2.636-0.693c-0.119-0.031-0.241 0.040-0.272 0.159-0.002 0.008-0.003 0.016-0.005 0.024h0.001z"></path>
<path fill="#7e8fdd" style="fill: var(--color1, #7e8fdd)" d="M19.658 26.708l-2.353 1.367c-0.106 0.062-0.142 0.2-0.079 0.306 0.004 0.007 0.008 0.014 0.013 0.019 0.401 0.541 0.948 0.957 1.577 1.199 0.116 0.045 0.245-0.013 0.29-0.128 0.003-0.008 0.005-0.014 0.008-0.022l0.695-2.628c0.015-0.054-0.017-0.109-0.071-0.124-0.027-0.008-0.055-0.003-0.079 0.011v-0.001z"></path>
<path fill="#7e8fdd" style="fill: var(--color1, #7e8fdd)" d="M20.084 26.897l-0.695 2.628c-0.031 0.119 0.039 0.241 0.159 0.272 0.008 0.003 0.017 0.004 0.026 0.005 0.667 0.099 1.348 0.007 1.964-0.265 0.113-0.050 0.165-0.181 0.115-0.293-0.003-0.008-0.008-0.015-0.012-0.023l-1.37-2.348c-0.027-0.049-0.089-0.066-0.138-0.039-0.024 0.014-0.042 0.036-0.049 0.064v-0.001z"></path>
<path fill="#7e8fdd" style="fill: var(--color1, #7e8fdd)" d="M16.924 25.291l2.632 0.693c0.054 0.014 0.11-0.018 0.125-0.072 0.007-0.026 0.003-0.054-0.010-0.077l-1.37-2.348c-0.062-0.106-0.198-0.142-0.305-0.080-0.007 0.004-0.014 0.008-0.020 0.014-0.542 0.4-0.959 0.946-1.202 1.573-0.045 0.115 0.013 0.244 0.128 0.289 0.008 0.003 0.015 0.006 0.024 0.008h-0.001z"></path>
<path fill="#7e8fdd" style="fill: var(--color1, #7e8fdd)" d="M20.539 26.725l1.37 2.348c0.062 0.106 0.198 0.142 0.305 0.080 0.007-0.004 0.014-0.008 0.020-0.013 0.542-0.4 0.959-0.946 1.202-1.574 0.045-0.115-0.012-0.243-0.127-0.288-0.008-0.003-0.016-0.006-0.024-0.008l-2.633-0.694c-0.054-0.014-0.11 0.018-0.125 0.072-0.007 0.026-0.003 0.054 0.011 0.078l0.001-0.001z"></path>
<path fill="#7e8fdd" style="fill: var(--color1, #7e8fdd)" d="M20.109 25.664l0.695-2.628c0.031-0.12-0.041-0.242-0.16-0.273-0.008-0.002-0.016-0.003-0.024-0.005-0.667-0.099-1.349-0.007-1.965 0.266-0.112 0.050-0.164 0.181-0.114 0.294 0.003 0.008 0.007 0.014 0.011 0.022l1.37 2.348c0.029 0.048 0.091 0.065 0.139 0.036 0.023-0.013 0.040-0.035 0.046-0.061h0.001z"></path>
<path fill="#7e8fdd" style="fill: var(--color1, #7e8fdd)" d="M20.548 25.852l2.352-1.368c0.106-0.062 0.143-0.198 0.080-0.304-0.004-0.007-0.008-0.013-0.014-0.020-0.401-0.541-0.948-0.956-1.577-1.199-0.115-0.045-0.244 0.012-0.289 0.126-0.003 0.008-0.006 0.016-0.008 0.024l-0.695 2.628c-0.014 0.054 0.018 0.11 0.073 0.125 0.026 0.007 0.054 0.003 0.078-0.011l-0.001-0.001z"></path>
<path fill="#7e8fdd" style="fill: var(--color1, #7e8fdd)" d="M20.72 26.29l2.632 0.693c0.118 0.032 0.241-0.039 0.272-0.157 0.003-0.009 0.004-0.018 0.005-0.026 0.101-0.666 0.008-1.346-0.265-1.961-0.051-0.113-0.183-0.163-0.296-0.112-0.007 0.003-0.014 0.007-0.020 0.011l-2.353 1.367c-0.048 0.029-0.064 0.091-0.035 0.139 0.014 0.023 0.036 0.040 0.062 0.046z"></path>
<path fill="#fdfdff" style="fill: var(--color3, #fdfdff)" opacity="0.3" d="M16.569 25.757c-0.1 0.666-0.008 1.346 0.266 1.962 0.051 0.113 0.183 0.163 0.296 0.112 0.007-0.003 0.014-0.007 0.020-0.010l2.352-1.368c0.050-0.025 0.068-0.087 0.043-0.136-0.014-0.026-0.037-0.045-0.066-0.051l-2.636-0.693c-0.119-0.031-0.241 0.040-0.272 0.159-0.002 0.008-0.003 0.016-0.005 0.024h0.001z"></path>
<path fill="#fdfdff" style="fill: var(--color3, #fdfdff)" opacity="0.3" d="M19.654 26.707l-2.353 1.367c-0.106 0.062-0.142 0.2-0.079 0.306 0.004 0.007 0.008 0.014 0.013 0.019 0.401 0.541 0.948 0.957 1.577 1.199 0.116 0.045 0.245-0.013 0.29-0.128 0.003-0.008 0.005-0.014 0.008-0.022l0.695-2.627c0.015-0.054-0.017-0.109-0.071-0.124-0.027-0.008-0.055-0.003-0.078 0.011v-0.001z"></path>
<path fill="#fdfdff" style="fill: var(--color3, #fdfdff)" opacity="0.3" d="M20.093 26.896l-0.695 2.628c-0.031 0.119 0.039 0.241 0.159 0.272 0.008 0.003 0.017 0.004 0.026 0.005 0.667 0.099 1.348 0.007 1.964-0.265 0.113-0.050 0.165-0.181 0.115-0.293-0.003-0.008-0.008-0.015-0.012-0.023l-1.37-2.348c-0.027-0.049-0.089-0.066-0.138-0.039-0.024 0.014-0.042 0.036-0.049 0.064v-0.001z"></path>
<path fill="#fdfdff" style="fill: var(--color3, #fdfdff)" opacity="0.3" d="M16.925 25.292l2.632 0.693c0.054 0.014 0.11-0.018 0.125-0.072 0.007-0.026 0.003-0.054-0.010-0.077l-1.37-2.348c-0.062-0.106-0.198-0.142-0.305-0.080-0.007 0.004-0.014 0.008-0.020 0.013-0.542 0.4-0.959 0.946-1.202 1.573-0.045 0.115 0.013 0.244 0.128 0.289 0.008 0.003 0.015 0.006 0.024 0.008h-0.001z"></path>
<path fill="#fdfdff" style="fill: var(--color3, #fdfdff)" opacity="0.3" d="M20.518 26.723l1.37 2.348c0.062 0.106 0.198 0.142 0.305 0.080 0.007-0.004 0.014-0.008 0.020-0.013 0.542-0.4 0.959-0.946 1.202-1.574 0.045-0.115-0.012-0.243-0.127-0.288-0.008-0.003-0.016-0.006-0.024-0.007l-2.633-0.694c-0.054-0.014-0.11 0.018-0.125 0.073-0.007 0.026-0.003 0.054 0.011 0.077l0.001-0.001z"></path>
<path fill="#fdfdff" style="fill: var(--color3, #fdfdff)" opacity="0.3" d="M20.117 25.664l0.695-2.628c0.031-0.12-0.041-0.242-0.16-0.273-0.008-0.002-0.016-0.003-0.024-0.005-0.667-0.099-1.349-0.007-1.965 0.266-0.112 0.050-0.164 0.181-0.114 0.294 0.003 0.008 0.007 0.014 0.011 0.022l1.37 2.348c0.029 0.048 0.091 0.065 0.139 0.036 0.023-0.013 0.040-0.035 0.046-0.061h0.001z"></path>
<path fill="#fdfdff" style="fill: var(--color3, #fdfdff)" opacity="0.3" d="M20.545 25.853l2.352-1.368c0.106-0.062 0.143-0.198 0.080-0.304-0.004-0.007-0.008-0.013-0.014-0.020-0.401-0.541-0.948-0.956-1.577-1.199-0.115-0.045-0.244 0.012-0.289 0.126-0.003 0.008-0.006 0.016-0.008 0.024l-0.695 2.628c-0.014 0.054 0.018 0.11 0.073 0.125 0.026 0.007 0.054 0.003 0.078-0.011l-0.001-0.001z"></path>
<path fill="#fdfdff" style="fill: var(--color3, #fdfdff)" opacity="0.3" d="M20.715 26.292l2.632 0.693c0.118 0.032 0.241-0.039 0.272-0.157 0.003-0.008 0.004-0.018 0.005-0.026 0.1-0.666 0.008-1.346-0.265-1.961-0.051-0.113-0.183-0.163-0.296-0.112-0.007 0.003-0.014 0.007-0.020 0.011l-2.353 1.367c-0.048 0.029-0.064 0.091-0.035 0.139 0.014 0.023 0.036 0.040 0.062 0.046z"></path>
<path fill="#7e8fdd" style="fill: var(--color1, #7e8fdd)" d="M18.13 26.469c0.112-0.014 0.209 0.017 0.216 0.071s-0.079 0.109-0.191 0.123-0.209-0.017-0.216-0.071c-0.008-0.054 0.078-0.11 0.191-0.123z"></path>
<path fill="#fdfdff" style="fill: var(--color3, #fdfdff)" opacity="0.6" d="M18.13 26.469c0.112-0.014 0.209 0.017 0.216 0.071s-0.079 0.109-0.191 0.123-0.209-0.017-0.216-0.071c-0.008-0.054 0.078-0.11 0.191-0.123z"></path>
<path fill="#7e8fdd" style="fill: var(--color1, #7e8fdd)" d="M18.823 27.559c0.084-0.075 0.182-0.103 0.218-0.063s-0.003 0.134-0.088 0.209c-0.084 0.074-0.182 0.104-0.219 0.063s0.006-0.131 0.089-0.209z"></path>
<path fill="#fdfdff" style="fill: var(--color3, #fdfdff)" opacity="0.6" d="M18.823 27.559c0.084-0.075 0.182-0.103 0.218-0.063s-0.003 0.134-0.088 0.209c-0.084 0.074-0.182 0.104-0.219 0.063s0.006-0.131 0.089-0.209z"></path>
<path fill="#7e8fdd" style="fill: var(--color1, #7e8fdd)" d="M18.781 28.464c0.067-0.091 0.155-0.14 0.199-0.108s0.025 0.132-0.041 0.223c-0.066 0.092-0.155 0.14-0.199 0.108s-0.026-0.131 0.041-0.223z"></path>
<path fill="#fdfdff" style="fill: var(--color3, #fdfdff)" opacity="0.6" d="M18.781 28.464c0.067-0.091 0.155-0.14 0.199-0.108s0.025 0.132-0.041 0.223c-0.066 0.092-0.155 0.14-0.199 0.108s-0.026-0.131 0.041-0.223z"></path>
<path fill="#7e8fdd" style="fill: var(--color1, #7e8fdd)" d="M21.258 24.013c0.061-0.096 0.146-0.15 0.192-0.122s0.035 0.129-0.025 0.226-0.146 0.15-0.192 0.122c-0.046-0.029-0.033-0.128 0.025-0.226z"></path>
<path fill="#fdfdff" style="fill: var(--color3, #fdfdff)" opacity="0.6" d="M21.258 24.013c0.061-0.096 0.146-0.15 0.192-0.122s0.035 0.129-0.025 0.226-0.146 0.15-0.192 0.122c-0.046-0.029-0.033-0.128 0.025-0.226z"></path>
<path fill="#7e8fdd" style="fill: var(--color1, #7e8fdd)" d="M21.249 24.896c0.066-0.092 0.155-0.14 0.199-0.109s0.025 0.131-0.041 0.223c-0.066 0.092-0.155 0.14-0.199 0.109s-0.026-0.131 0.041-0.223z"></path>
<path fill="#fdfdff" style="fill: var(--color3, #fdfdff)" opacity="0.6" d="M21.249 24.896c0.066-0.092 0.155-0.14 0.199-0.109s0.025 0.131-0.041 0.223c-0.066 0.092-0.155 0.14-0.199 0.109s-0.026-0.131 0.041-0.223z"></path>
<path fill="#fdfdff" style="fill: var(--color3, #fdfdff)" opacity="0.6" d="M22.405 26.1c0.111-0.019 0.209 0.011 0.218 0.064s-0.075 0.11-0.188 0.129c-0.111 0.018-0.209-0.011-0.218-0.064s0.074-0.111 0.188-0.129z"></path>
<path fill="#fdfdff" style="fill: var(--color3, #fdfdff)" opacity="0.6" d="M18.142 24.627c-0.072-0.088-0.095-0.186-0.053-0.22s0.134 0.010 0.205 0.097c0.072 0.088 0.095 0.186 0.053 0.22s-0.133-0.009-0.205-0.097z"></path>
<path fill="#fdfdff" style="fill: var(--color3, #fdfdff)" opacity="0.6" d="M18.413 25.365c-0.113-0.006-0.202-0.056-0.199-0.109s0.098-0.092 0.21-0.086c0.113 0.006 0.202 0.056 0.199 0.11s-0.097 0.093-0.21 0.086v-0.001z"></path>
<path fill="#fdfdff" style="fill: var(--color3, #fdfdff)" opacity="0.6" d="M19.467 23.977c-0.012-0.112 0.024-0.207 0.077-0.213s0.106 0.082 0.117 0.194c0.012 0.112-0.024 0.207-0.077 0.213s-0.106-0.081-0.117-0.194z"></path>
<path fill="#7e8fdd" style="fill: var(--color1, #7e8fdd)" d="M20.62 28.743c-0.012-0.111 0.022-0.207 0.074-0.212s0.106 0.081 0.119 0.194c0.013 0.112-0.022 0.207-0.074 0.212s-0.106-0.081-0.119-0.194z"></path>
<path fill="#fdfdff" style="fill: var(--color3, #fdfdff)" opacity="0.6" d="M20.62 28.743c-0.012-0.111 0.022-0.207 0.074-0.212s0.106 0.081 0.119 0.194c0.013 0.112-0.022 0.207-0.074 0.212s-0.106-0.081-0.119-0.194z"></path>
<path fill="#7e8fdd" style="fill: var(--color1, #7e8fdd)" d="M21.509 27.344c-0.095-0.063-0.146-0.15-0.117-0.195s0.131-0.031 0.226 0.031c0.095 0.062 0.146 0.149 0.117 0.195-0.030 0.045-0.132 0.030-0.226-0.031z"></path>
<path fill="#fdfdff" style="fill: var(--color3, #fdfdff)" opacity="0.6" d="M21.509 27.344c-0.095-0.063-0.146-0.15-0.117-0.195s0.131-0.031 0.226 0.031c0.095 0.062 0.146 0.149 0.117 0.195-0.030 0.045-0.132 0.030-0.226-0.031z"></path>
<path fill="#7e8fdd" style="fill: var(--color1, #7e8fdd)" d="M22.28 10.99h-15.87c0 0 0.091 4.779 5.062 5.826 0 0-0.33 3.32 2.463 3.657v7.951c-2.951 0.189-4.184 1.993-4.184 1.993h9.551c0 0-1.395-1.805-4.364-1.993v-7.975c2.598-0.456 2.281-3.632 2.281-3.632 4.971-1.047 5.062-5.826 5.062-5.826v-0.001z"></path>
<path fill="#fdfdff" style="fill: var(--color3, #fdfdff)" opacity="0.7" d="M22.28 10.99h-15.87c0 0 0.091 4.779 5.062 5.826 0 0-0.33 3.32 2.463 3.657v7.951c-2.951 0.189-4.184 1.993-4.184 1.993h9.551c0 0-1.395-1.805-4.364-1.993v-7.975c2.598-0.456 2.281-3.632 2.281-3.632 4.971-1.047 5.062-5.826 5.062-5.826v-0.001z"></path>
<path fill="#fdfdff" style="fill: var(--color3, #fdfdff)" opacity="0.4" d="M21.446 10.989h-13.792c0 0 0.145 4.248 4.465 5.163 0 0-0.473 3.612 2.349 3.612h0.209c2.258-0.398 2.003-3.706 2.003-3.706 4.561-1.133 4.767-5.068 4.767-5.068h-0.001z"></path>
<path fill="#7e8fdd" style="fill: var(--color1, #7e8fdd)" opacity="0.9" d="M22.282 10.991c0 0.305-3.553 0.553-7.935 0.553s-7.935-0.248-7.935-0.553c0-0.305 3.553-0.553 7.935-0.553s7.935 0.248 7.935 0.553z"></path>
<path fill="#fdfdff" style="fill: var(--color3, #fdfdff)" opacity="0.7" d="M22.282 10.991c0 0.305-3.553 0.553-7.935 0.553s-7.935-0.248-7.935-0.553c0-0.305 3.553-0.553 7.935-0.553s7.935 0.248 7.935 0.553z"></path>
<path fill="#7e8fdd" style="fill: var(--color1, #7e8fdd)" opacity="0.9" d="M20.317 13.813c-0.678 1.098-1.929 1.821-3.639 2.246 0 0 0.255 3.309-2.003 3.706h-0.209c-2.822 0-2.349-3.612-2.349-3.612-1.62-0.343-2.868-1.079-3.564-2.406 0 0 2.253-0.158 4.231 0.156s3.261 0.561 5.285 0.18c1.292-0.244 2.248-0.271 2.248-0.271l0.001 0.001z"></path>
<path fill="#242424" style="fill: var(--color5, #242424)" opacity="0.3" d="M8.552 13.746c0 0 2.874 1.315 6.947 1.064s4.818-0.998 4.818-0.998c0 0-1.227 0.028-2.248 0.271s-2.618 0.191-3.323 0.11c-0.686-0.078-3.649-0.683-6.194-0.446v-0.001z"></path>
<path fill="#7e8fdd" style="fill: var(--color1, #7e8fdd)" d="M11.295 15.542l-8.38-11.024 0.417-0.344 8.438 11.069c0 0 0.007 0.405-0.475 0.299v-0.001z"></path>
<path fill="#242424" style="fill: var(--color5, #242424)" opacity="0.3" d="M11.295 15.542l-8.38-11.024 0.417-0.344 8.438 11.069c0 0 0.007 0.405-0.475 0.299v-0.001z"></path>
<path fill="#7e8fdd" style="fill: var(--color1, #7e8fdd)" d="M10.55 8.277c-0.057-0.102-0.115-0.201-0.182-0.3-1.269-1.901-3.757-2.472-5.555-1.275s-2.227 3.709-0.957 5.608c0.065 0.099 0.135 0.192 0.208 0.284l6.487-4.317z"></path>
<path fill="#242424" style="fill: var(--color5, #242424)" opacity="0.3" d="M10.55 8.277c-0.057-0.102-0.115-0.201-0.182-0.3-1.269-1.901-3.757-2.472-5.555-1.275s-2.227 3.709-0.957 5.608c0.065 0.099 0.135 0.192 0.208 0.284l6.487-4.317z"></path>
<path fill="#7e8fdd" style="fill: var(--color1, #7e8fdd)" d="M10.552 8.27c-0.022-0.035-0.042-0.068-0.064-0.102-1.199-1.795-3.629-2.28-5.427-1.083s-2.284 3.622-1.085 5.416c0.023 0.034 0.046 0.066 0.069 0.099l6.507-4.33z"></path>
<path fill="#fdfdff" style="fill: var(--color3, #fdfdff)" opacity="0.8" d="M10.421 8.354c-0.019-0.032-0.040-0.065-0.060-0.096-1.151-1.723-3.483-2.188-5.209-1.039s-2.192 3.476-1.041 5.199c0.022 0.032 0.044 0.062 0.062 0.092l6.248-4.156z"></path>
<path fill="#7e8fdd" style="fill: var(--color1, #7e8fdd)" d="M7.64 9.906l2.159-1.443c0.098-0.067 0.122-0.2 0.056-0.297-0.003-0.006-0.008-0.011-0.012-0.016-0.414-0.493-0.959-0.857-1.574-1.052-0.112-0.035-0.232 0.027-0.268 0.138-0.003 0.008-0.004 0.015-0.006 0.023l-0.509 2.544c-0.012 0.053 0.022 0.105 0.075 0.117 0.027 0.006 0.056 0 0.079-0.016v0.002z"></path>
<path fill="#7e8fdd" style="fill: var(--color1, #7e8fdd)" d="M7.218 9.751l0.51-2.545c0.023-0.115-0.051-0.228-0.167-0.25-0.008-0.002-0.015-0.003-0.023-0.003-0.642-0.056-1.286 0.072-1.858 0.367-0.105 0.053-0.146 0.18-0.093 0.285 0.004 0.008 0.008 0.015 0.013 0.022l1.446 2.161c0.034 0.043 0.096 0.050 0.138 0.016 0.017-0.013 0.029-0.031 0.034-0.052z"></path>
<path fill="#7e8fdd" style="fill: var(--color1, #7e8fdd)" d="M6.646 10.365l-2.55-0.51c-0.116-0.023-0.229 0.052-0.252 0.169-0.002 0.008-0.003 0.015-0.003 0.023-0.056 0.64 0.072 1.284 0.368 1.854 0.054 0.104 0.182 0.146 0.287 0.092 0.007-0.003 0.013-0.008 0.020-0.012l2.163-1.44c0.044-0.032 0.053-0.094 0.021-0.137-0.013-0.019-0.033-0.032-0.056-0.037l0.001-0.001z"></path>
<path fill="#7e8fdd" style="fill: var(--color1, #7e8fdd)" d="M6.802 9.941l-1.443-2.159c-0.067-0.098-0.2-0.122-0.298-0.056-0.006 0.003-0.011 0.008-0.016 0.012-0.494 0.413-0.859 0.957-1.054 1.571-0.035 0.113 0.027 0.233 0.139 0.268 0.007 0.003 0.014 0.004 0.022 0.006l2.549 0.508c0.054 0.009 0.105-0.027 0.113-0.081 0.004-0.024-0.001-0.049-0.014-0.069h0.002z"></path>
<path fill="#fdfdff" style="fill: var(--color3, #fdfdff)" opacity="0.3" d="M7.65 9.909l2.159-1.443c0.098-0.067 0.122-0.2 0.056-0.297-0.003-0.006-0.008-0.011-0.012-0.016-0.414-0.493-0.959-0.857-1.574-1.052-0.112-0.035-0.232 0.027-0.268 0.138-0.003 0.008-0.004 0.015-0.006 0.023l-0.509 2.544c-0.012 0.053 0.022 0.105 0.075 0.117 0.027 0.006 0.056 0 0.079-0.016v0.002z"></path>
<path fill="#fdfdff" style="fill: var(--color3, #fdfdff)" opacity="0.3" d="M7.214 9.752l0.51-2.545c0.023-0.115-0.051-0.228-0.167-0.25-0.008-0.002-0.015-0.003-0.023-0.003-0.642-0.056-1.286 0.072-1.858 0.367-0.105 0.053-0.146 0.18-0.093 0.285 0.004 0.008 0.008 0.015 0.013 0.022l1.446 2.161c0.034 0.043 0.096 0.050 0.138 0.016 0.017-0.013 0.029-0.031 0.034-0.052z"></path>
<path fill="#fdfdff" style="fill: var(--color3, #fdfdff)" opacity="0.3" d="M6.656 10.367l-2.55-0.51c-0.116-0.023-0.229 0.052-0.252 0.169-0.002 0.008-0.003 0.015-0.003 0.023-0.056 0.64 0.072 1.284 0.368 1.854 0.054 0.104 0.182 0.146 0.287 0.092 0.007-0.003 0.013-0.008 0.020-0.012l2.163-1.44c0.044-0.032 0.053-0.094 0.021-0.137-0.013-0.019-0.033-0.032-0.056-0.037l0.001-0.001z"></path>
<path fill="#fdfdff" style="fill: var(--color3, #fdfdff)" opacity="0.3" d="M6.814 9.943l-1.443-2.159c-0.067-0.098-0.2-0.122-0.298-0.056-0.006 0.003-0.011 0.008-0.016 0.012-0.494 0.413-0.859 0.957-1.054 1.571-0.035 0.113 0.027 0.233 0.139 0.268 0.007 0.003 0.014 0.004 0.022 0.006l2.549 0.508c0.054 0.009 0.105-0.027 0.113-0.081 0.004-0.024-0.001-0.049-0.014-0.069h0.002z"></path>
<path fill="#7e8fdd" style="fill: var(--color1, #7e8fdd)" d="M4.979 11.226c-0.104 0.031-0.199 0.016-0.214-0.033s0.057-0.116 0.16-0.146c0.104-0.031 0.2-0.015 0.215 0.035s-0.058 0.116-0.16 0.145l-0.001-0.001z"></path>
<path fill="#fdfdff" style="fill: var(--color3, #fdfdff)" opacity="0.6" d="M4.979 11.226c-0.104 0.031-0.199 0.016-0.214-0.033s0.057-0.116 0.16-0.146c0.104-0.031 0.2-0.015 0.215 0.035s-0.058 0.116-0.16 0.145l-0.001-0.001z"></path>
<path fill="#7e8fdd" style="fill: var(--color1, #7e8fdd)" d="M5.556 10.609c-0.106 0.024-0.201 0.003-0.211-0.048s0.062-0.112 0.169-0.132c0.107-0.020 0.201-0.003 0.212 0.049s-0.064 0.109-0.17 0.132v-0.001z"></path>
<path fill="#fdfdff" style="fill: var(--color3, #fdfdff)" opacity="0.6" d="M5.556 10.609c-0.106 0.024-0.201 0.003-0.211-0.048s0.062-0.112 0.169-0.132c0.107-0.020 0.201-0.003 0.212 0.049s-0.064 0.109-0.17 0.132v-0.001z"></path>
<path fill="#7e8fdd" style="fill: var(--color1, #7e8fdd)" d="M8.43 8.248c-0.063 0.087-0.149 0.135-0.191 0.105s-0.024-0.126 0.037-0.213 0.148-0.135 0.19-0.105c0.042 0.030 0.025 0.126-0.036 0.214z"></path>
<path fill="#fdfdff" style="fill: var(--color3, #fdfdff)" opacity="0.6" d="M8.43 8.248c-0.063 0.087-0.149 0.135-0.191 0.105s-0.024-0.126 0.037-0.213 0.148-0.135 0.19-0.105c0.042 0.030 0.025 0.126-0.036 0.214z"></path>
<path fill="#fdfdff" style="fill: var(--color3, #fdfdff)" opacity="0.6" d="M5.596 9.090c0.080 0.073 0.118 0.163 0.083 0.201s-0.128 0.011-0.208-0.061c-0.080-0.072-0.117-0.162-0.083-0.201s0.128-0.011 0.208 0.061z"></path>
<path fill="#7e8fdd" style="fill: var(--color1, #7e8fdd)" d="M5.28 6.005c0.046 0.462-0.29 0.873-0.753 0.919s-0.875-0.29-0.921-0.752 0.29-0.873 0.753-0.919c0.463-0.046 0.875 0.29 0.921 0.752z"></path>
<path fill="#fdfdff" style="fill: var(--color3, #fdfdff)" opacity="0.3" d="M3.786 5.764c0 0-0.202 0.328-0.024 0.649s0.437 0.384 0.437 0.384 0.005-0.325-0.020-0.639c-0.025-0.314-0.394-0.394-0.394-0.394h0.001z"></path>
<path fill="#fdfdff" style="fill: var(--color3, #fdfdff)" opacity="0.27" d="M21.428 11.277c-4.461 0.361-9.045 0.348-13.738 0.002 0 0 0.012 2.128 1.871 3.709 0.621 0.528 1.491 0.936 2.573 1.165 0 0-0.473 3.612 2.349 3.612h0.209c2.258-0.398 2.003-3.706 2.003-3.706 1.011-0.251 1.802-0.53 2.43-0.983 2.206-1.591 2.303-3.798 2.303-3.798z"></path>
<path fill="#9cdfdf" style="fill: var(--color4, #9cdfdf)" d="M22.282 10.99c-0.005 0.044-0.052 0.064-0.087 0.082-0.271 0.109-0.567 0.137-0.855 0.18-0.993 0.124-1.994 0.175-2.992 0.22-3.662 0.12-7.347 0.156-10.995-0.22-0.287-0.043-0.583-0.072-0.854-0.18-0.035-0.019-0.081-0.039-0.087-0.082 0.005 0.044 0.052 0.063 0.087 0.082 0.271 0.108 0.567 0.136 0.854 0.178 3.649 0.366 7.332 0.315 10.995 0.212 0.999-0.042 1.999-0.091 2.993-0.212 0.287-0.042 0.583-0.070 0.855-0.178 0.035-0.019 0.081-0.038 0.087-0.082z"></path>
<path fill="#242424" style="fill: var(--color5, #242424)" opacity="0.3" d="M13.935 20.473v0.21c0 0 0.547 0.105 1.003-0.032v-0.203c-0.371 0.091-0.593 0.087-0.98 0.030z"></path>
<path fill="#9cdfdf" style="fill: var(--color4, #9cdfdf)" d="M12.928 28.582c0.921-0.243 1.904-0.267 2.836-0.071-0.938-0.169-1.907-0.146-2.836 0.071z"></path>
<path fill="#fdfdff" style="fill: var(--color3, #fdfdff)" opacity="0.3" d="M14.346 17.235c0.126 0 0.228-0.102 0.228-0.228s-0.102-0.228-0.228-0.228c-0.126 0-0.228 0.102-0.228 0.228s0.102 0.228 0.228 0.228z"></path>
<path fill="#fdfdff" style="fill: var(--color3, #fdfdff)" opacity="0.3" d="M13.708 17.758c0 0.096-0.078 0.174-0.174 0.174s-0.174-0.078-0.174-0.174c0-0.096 0.078-0.174 0.174-0.174s0.174 0.078 0.174 0.174z"></path>
<path fill="#fdfdff" style="fill: var(--color3, #fdfdff)" opacity="0.3" d="M15.868 18.294c0.062 0 0.111-0.050 0.111-0.111s-0.050-0.111-0.111-0.111c-0.062 0-0.111 0.050-0.111 0.111s0.050 0.111 0.111 0.111z"></path>
<path fill="#fdfdff" style="fill: var(--color3, #fdfdff)" opacity="0.3" d="M13.389 16.848c0.062 0 0.111-0.050 0.111-0.111s-0.050-0.111-0.111-0.111c-0.062 0-0.111 0.050-0.111 0.111s0.050 0.111 0.111 0.111z"></path>
<path fill="#fdfdff" style="fill: var(--color3, #fdfdff)" opacity="0.3" d="M15.412 18.711c0 0.155-0.126 0.281-0.281 0.281s-0.281-0.126-0.281-0.281c0-0.155 0.126-0.281 0.281-0.281s0.281 0.126 0.281 0.281z"></path>
</symbol>
<symbol id="icon-youtube-tablet-desktop" viewBox="0 0 32 32">
<path fill="#fdfdff" style="fill: var(--color3, #fdfdff)" d="M20.532 10.5c-0.748-0.044-2.288-0.088-4.62-0.088h-0.308c-2.244 0-3.74 0.044-4.488 0.132-1.012 0.088-1.716 0.352-2.112 0.704-0.352 0.308-0.616 0.88-0.704 1.628-0.044 0.484-0.088 1.496-0.088 3.036v0.22c0 1.452 0.044 2.464 0.132 2.948 0.132 0.704 0.352 1.232 0.792 1.54 0.44 0.352 1.188 0.572 2.244 0.66 0.748 0.044 2.288 0.088 4.62 0.088h0.308c2.244 0 3.74-0.044 4.488-0.132 1.012-0.088 1.716-0.352 2.112-0.704 0.352-0.308 0.616-0.88 0.704-1.628 0.044-0.484 0.088-1.496 0.088-3.036v-0.22c0-1.452-0.044-2.464-0.132-2.948-0.132-0.704-0.352-1.232-0.792-1.54-0.44-0.352-1.188-0.572-2.244-0.66zM18.816 15.912l-4.84 2.904v-5.808l4.84 2.904z"></path>
<path fill="none" stroke="#fdfdff" style="stroke: var(--color3, #fdfdff)" stroke-linejoin="miter" stroke-linecap="butt" stroke-miterlimit="4" stroke-width="0.8" d="M4.8 0.4h22.4c2.43 0 4.4 1.97 4.4 4.4v22.4c0 2.43-1.97 4.4-4.4 4.4h-22.4c-2.43 0-4.4-1.97-4.4-4.4v-22.4c0-2.43 1.97-4.4 4.4-4.4z"></path>
</symbol>
<symbol id="icon-instagram-tablet-desktop" viewBox="0 0 32 32">
<path fill="#fdfdff" style="fill: var(--color3, #fdfdff)" d="M19.991 11.115c-0.177 0-0.35 0.053-0.498 0.151s-0.262 0.238-0.33 0.402c-0.068 0.164-0.086 0.344-0.051 0.518s0.12 0.333 0.245 0.459c0.125 0.125 0.285 0.211 0.459 0.245s0.354 0.017 0.518-0.051c0.164-0.068 0.304-0.183 0.402-0.33s0.151-0.321 0.151-0.498c0-0.238-0.094-0.466-0.262-0.634s-0.396-0.262-0.634-0.262zM23.426 12.922c-0.014-0.62-0.13-1.232-0.343-1.814-0.19-0.498-0.485-0.949-0.866-1.322-0.37-0.383-0.822-0.676-1.322-0.859-0.58-0.219-1.194-0.338-1.814-0.351-0.791-0.045-1.045-0.045-3.076-0.045s-2.285 0-3.076 0.045c-0.62 0.013-1.234 0.132-1.814 0.351-0.499 0.184-0.951 0.478-1.322 0.859-0.383 0.37-0.676 0.822-0.859 1.322-0.219 0.58-0.338 1.194-0.351 1.814-0.045 0.791-0.045 1.045-0.045 3.076s0 2.285 0.045 3.076c0.013 0.62 0.132 1.234 0.351 1.814 0.182 0.5 0.476 0.952 0.859 1.322 0.371 0.381 0.823 0.675 1.322 0.859 0.58 0.219 1.194 0.338 1.814 0.351 0.791 0.045 1.045 0.045 3.076 0.045s2.285 0 3.076-0.045c0.62-0.013 1.234-0.132 1.814-0.351 0.5-0.182 0.952-0.476 1.322-0.859 0.382-0.371 0.678-0.823 0.866-1.322 0.213-0.582 0.329-1.195 0.343-1.814 0-0.791 0.045-1.045 0.045-3.076s0-2.285-0.045-3.076zM22.082 18.985c-0.005 0.474-0.091 0.944-0.254 1.389-0.119 0.325-0.311 0.619-0.56 0.859-0.242 0.247-0.535 0.438-0.859 0.56-0.445 0.163-0.915 0.248-1.389 0.254-0.747 0.037-1.023 0.045-2.987 0.045s-2.24 0-2.987-0.045c-0.492 0.009-0.982-0.067-1.449-0.224-0.309-0.128-0.589-0.319-0.821-0.56-0.248-0.24-0.437-0.534-0.553-0.859-0.182-0.452-0.283-0.932-0.299-1.419 0-0.747-0.045-1.023-0.045-2.987s0-2.24 0.045-2.987c0.003-0.485 0.092-0.965 0.261-1.419 0.132-0.315 0.333-0.596 0.59-0.821 0.227-0.257 0.507-0.461 0.821-0.597 0.455-0.164 0.935-0.25 1.419-0.254 0.747 0 1.023-0.045 2.987-0.045s2.24 0 2.987 0.045c0.474 0.005 0.944 0.091 1.389 0.254 0.339 0.126 0.644 0.331 0.889 0.597 0.245 0.229 0.436 0.51 0.56 0.821 0.166 0.455 0.252 0.935 0.254 1.419 0.037 0.747 0.045 1.023 0.045 2.987s-0.007 2.24-0.045 2.987zM16.004 12.168c-0.757 0.001-1.497 0.227-2.126 0.649s-1.119 1.020-1.408 1.721c-0.289 0.7-0.364 1.47-0.215 2.212s0.514 1.424 1.050 1.959c0.536 0.535 1.219 0.899 1.961 1.046s1.513 0.071 2.212-0.219c0.699-0.29 1.297-0.781 1.718-1.411s0.645-1.37 0.645-2.127c0.001-0.504-0.098-1.003-0.29-1.469s-0.475-0.889-0.832-1.245c-0.357-0.356-0.78-0.638-1.246-0.83s-0.965-0.289-1.469-0.287zM16.004 18.484c-0.492 0-0.972-0.146-1.381-0.419s-0.728-0.662-0.916-1.116c-0.188-0.454-0.237-0.954-0.142-1.437s0.333-0.925 0.68-1.273c0.348-0.348 0.791-0.585 1.273-0.68s0.982-0.047 1.437 0.142c0.454 0.188 0.843 0.507 1.116 0.916s0.419 0.89 0.419 1.381c0 0.326-0.064 0.65-0.189 0.952s-0.308 0.576-0.539 0.807c-0.231 0.231-0.505 0.414-0.807 0.539s-0.625 0.189-0.952 0.189z"></path>
<path fill="none" stroke="#fdfdff" style="stroke: var(--color3, #fdfdff)" stroke-linejoin="miter" stroke-linecap="butt" stroke-miterlimit="4" stroke-width="0.8" d="M4.8 0.4h22.4c2.43 0 4.4 1.97 4.4 4.4v22.4c0 2.43-1.97 4.4-4.4 4.4h-22.4c-2.43 0-4.4-1.97-4.4-4.4v-22.4c0-2.43 1.97-4.4 4.4-4.4z"></path>
</symbol>
<symbol id="icon-facebook-tablet-desktop" viewBox="0 0 32 32">
<path fill="#fdfdff" style="fill: var(--color3, #fdfdff)" d="M18.425 10.801h1.462v-2.473c-0.708-0.074-1.419-0.11-2.131-0.109-2.116 0-3.562 1.291-3.562 3.656v2.038h-2.388v2.769h2.388v7.093h2.862v-7.093h2.38l0.358-2.769h-2.738v-1.766c0-0.817 0.218-1.346 1.369-1.346z"></path>
<path fill="none" stroke="#fdfdff" style="stroke: var(--color3, #fdfdff)" stroke-linejoin="miter" stroke-linecap="butt" stroke-miterlimit="4" stroke-width="0.8" d="M4.8 0.4h22.4c2.43 0 4.4 1.97 4.4 4.4v22.4c0 2.43-1.97 4.4-4.4 4.4h-22.4c-2.43 0-4.4-1.97-4.4-4.4v-22.4c0-2.43 1.97-4.4 4.4-4.4z"></path>
</symbol>
<symbol id="icon-youtube-mobile" viewBox="0 0 32 32">
<path fill="#fdfdff" style="fill: var(--color3, #fdfdff)" d="M20.531 10.5c-0.748-0.044-2.288-0.088-4.62-0.088h-0.308c-2.244 0-3.74 0.044-4.488 0.132-1.012 0.088-1.716 0.352-2.112 0.704-0.352 0.308-0.616 0.88-0.704 1.628-0.044 0.484-0.088 1.496-0.088 3.036v0.22c0 1.452 0.044 2.464 0.132 2.948 0.132 0.704 0.352 1.232 0.792 1.54 0.44 0.352 1.188 0.572 2.244 0.66 0.748 0.044 2.288 0.088 4.62 0.088h0.308c2.244 0 3.74-0.044 4.488-0.132 1.012-0.088 1.716-0.352 2.112-0.704 0.352-0.308 0.616-0.88 0.704-1.628 0.044-0.484 0.088-1.496 0.088-3.036v-0.22c0-1.452-0.044-2.464-0.132-2.948-0.132-0.704-0.352-1.232-0.792-1.54-0.44-0.352-1.188-0.572-2.244-0.66zM18.815 15.912l-4.84 2.904v-5.808l4.84 2.904z"></path>
<path fill="none" stroke="#fdfdff" style="stroke: var(--color3, #fdfdff)" stroke-linejoin="miter" stroke-linecap="butt" stroke-miterlimit="4" stroke-width="1" d="M6 0.5h20c3.038 0 5.5 2.462 5.5 5.5v20c0 3.038-2.462 5.5-5.5 5.5h-20c-3.038 0-5.5-2.462-5.5-5.5v-20c0-3.038 2.462-5.5 5.5-5.5z"></path>
</symbol>
<symbol id="icon-instagram-mobile" viewBox="0 0 32 32">
<path fill="#fdfdff" style="fill: var(--color3, #fdfdff)" d="M19.991 11.115c-0.177 0-0.351 0.053-0.498 0.151s-0.262 0.238-0.33 0.402c-0.068 0.164-0.086 0.344-0.051 0.518s0.12 0.334 0.245 0.459c0.125 0.125 0.285 0.211 0.459 0.245s0.354 0.017 0.518-0.051c0.164-0.068 0.304-0.183 0.402-0.33s0.151-0.321 0.151-0.498c0-0.238-0.094-0.466-0.262-0.634s-0.396-0.262-0.634-0.262zM23.426 12.922c-0.015-0.62-0.131-1.232-0.343-1.815-0.19-0.498-0.485-0.949-0.866-1.322-0.37-0.383-0.822-0.676-1.322-0.859-0.58-0.219-1.194-0.338-1.814-0.351-0.791-0.045-1.045-0.045-3.076-0.045s-2.285 0-3.076 0.045c-0.62 0.013-1.234 0.132-1.814 0.351-0.499 0.184-0.95 0.478-1.322 0.859-0.383 0.37-0.676 0.822-0.859 1.322-0.219 0.581-0.338 1.194-0.351 1.815-0.045 0.791-0.045 1.045-0.045 3.076s0 2.285 0.045 3.076c0.013 0.62 0.132 1.234 0.351 1.814 0.182 0.5 0.476 0.952 0.859 1.322 0.371 0.381 0.823 0.674 1.322 0.859 0.58 0.219 1.194 0.338 1.814 0.351 0.791 0.045 1.045 0.045 3.076 0.045s2.285 0 3.076-0.045c0.62-0.013 1.234-0.131 1.814-0.351 0.5-0.182 0.952-0.476 1.322-0.859 0.383-0.371 0.678-0.823 0.866-1.322 0.213-0.582 0.329-1.195 0.343-1.814 0-0.791 0.045-1.045 0.045-3.076s0-2.285-0.045-3.076zM22.082 18.985c-0.005 0.474-0.091 0.944-0.254 1.389-0.119 0.325-0.311 0.619-0.56 0.859-0.242 0.247-0.535 0.438-0.859 0.56-0.445 0.163-0.915 0.248-1.389 0.254-0.747 0.037-1.023 0.045-2.987 0.045s-2.24 0-2.987-0.045c-0.492 0.009-0.982-0.067-1.449-0.224-0.309-0.128-0.589-0.319-0.821-0.56-0.248-0.24-0.437-0.534-0.553-0.859-0.182-0.452-0.283-0.932-0.299-1.419 0-0.747-0.045-1.023-0.045-2.987s0-2.24 0.045-2.987c0.003-0.485 0.092-0.965 0.261-1.419 0.132-0.315 0.333-0.596 0.59-0.821 0.227-0.257 0.507-0.461 0.821-0.597 0.455-0.164 0.935-0.25 1.419-0.254 0.747 0 1.023-0.045 2.987-0.045s2.24 0 2.987 0.045c0.474 0.005 0.944 0.091 1.389 0.254 0.339 0.126 0.644 0.331 0.889 0.597 0.245 0.229 0.436 0.51 0.56 0.821 0.166 0.455 0.252 0.935 0.254 1.419 0.037 0.747 0.045 1.023 0.045 2.987s-0.007 2.24-0.045 2.987zM16.004 12.168c-0.757 0.002-1.497 0.227-2.126 0.649s-1.119 1.021-1.408 1.721c-0.289 0.7-0.364 1.47-0.215 2.212s0.514 1.424 1.050 1.959c0.536 0.535 1.219 0.899 1.961 1.046s1.513 0.071 2.212-0.219c0.7-0.29 1.297-0.781 1.718-1.411s0.645-1.37 0.645-2.127c0.001-0.504-0.098-1.003-0.29-1.469s-0.475-0.889-0.832-1.245c-0.357-0.356-0.78-0.638-1.246-0.83s-0.965-0.289-1.469-0.287zM16.004 18.484c-0.492 0-0.973-0.146-1.381-0.419s-0.728-0.662-0.916-1.116c-0.188-0.454-0.237-0.954-0.141-1.437s0.333-0.925 0.68-1.273c0.348-0.348 0.791-0.585 1.273-0.681s0.982-0.047 1.437 0.142c0.454 0.188 0.843 0.507 1.116 0.916s0.419 0.89 0.419 1.381c0 0.326-0.064 0.65-0.189 0.951s-0.308 0.576-0.539 0.807-0.505 0.414-0.807 0.539c-0.302 0.125-0.625 0.189-0.951 0.189z"></path>
<path fill="none" stroke="#fdfdff" style="stroke: var(--color3, #fdfdff)" stroke-linejoin="miter" stroke-linecap="butt" stroke-miterlimit="4" stroke-width="1" d="M6 0.5h20c3.038 0 5.5 2.462 5.5 5.5v20c0 3.038-2.462 5.5-5.5 5.5h-20c-3.038 0-5.5-2.462-5.5-5.5v-20c0-3.038 2.462-5.5 5.5-5.5z"></path>
</symbol>
<symbol id="icon-facebook-mobile" viewBox="0 0 32 32">
<path fill="#fdfdff" style="fill: var(--color3, #fdfdff)" d="M18.425 10.801h1.462v-2.473c-0.708-0.074-1.419-0.11-2.131-0.109-2.116 0-3.562 1.291-3.562 3.656v2.038h-2.388v2.769h2.388v7.093h2.862v-7.093h2.38l0.358-2.769h-2.738v-1.765c0-0.817 0.218-1.346 1.369-1.346z"></path>
<path fill="none" stroke="#fdfdff" style="stroke: var(--color3, #fdfdff)" stroke-linejoin="miter" stroke-linecap="butt" stroke-miterlimit="4" stroke-width="1" d="M6 0.5h20c3.038 0 5.5 2.462 5.5 5.5v20c0 3.038-2.462 5.5-5.5 5.5h-20c-3.038 0-5.5-2.462-5.5-5.5v-20c0-3.038 2.462-5.5 5.5-5.5z"></path>
</symbol>
<symbol id="icon-x-close-modal-learn-tablet-desktop-black" viewBox="0 0 32 32">
<path stroke-linejoin="round" stroke-linecap="round" stroke-miterlimit="4" stroke-width="2.6667" d="M24 8l-16 16"></path>
<path stroke-linejoin="round" stroke-linecap="round" stroke-miterlimit="4" stroke-width="2.6667" d="M8 8l16 16"></path>
</symbol>
<symbol id="icon-x-close-modal-learn-tablet-desktop-white" viewBox="0 0 32 32">
<path fill="none" stroke="#fdfdff" style="stroke: var(--color3, #fdfdff)" stroke-linejoin="round" stroke-linecap="round" stroke-miterlimit="4" stroke-width="2.6667" d="M24 8l-16 16"></path>
<path fill="none" stroke="#fdfdff" style="stroke: var(--color3, #fdfdff)" stroke-linejoin="round" stroke-linecap="round" stroke-miterlimit="4" stroke-width="2.6667" d="M8 8l16 16"></path>
</symbol>
<symbol id="icon-x-close-modal-learn-mobile-black" viewBox="0 0 32 32">
<path stroke-linejoin="round" stroke-linecap="round" stroke-miterlimit="4" stroke-width="2.9091" d="M24 8l-16 16"></path>
<path stroke-linejoin="round" stroke-linecap="round" stroke-miterlimit="4" stroke-width="2.9091" d="M8 8l16 16"></path>
</symbol>
<symbol id="icon-x-close-modal-learn-mobile-white" viewBox="0 0 32 32">
<path fill="none" stroke="#fdfdff" style="stroke: var(--color3, #fdfdff)" stroke-linejoin="round" stroke-linecap="round" stroke-miterlimit="4" stroke-width="2.9091" d="M24 8l-16 16"></path>
<path fill="none" stroke="#fdfdff" style="stroke: var(--color3, #fdfdff)" stroke-linejoin="round" stroke-linecap="round" stroke-miterlimit="4" stroke-width="2.9091" d="M8 8l16 16"></path>
</symbol>
<symbol id="icon-search-black" viewBox="0 0 32 32">
<path d="M29.092 31.514l-6.85-6.862c-1.077 0.935-2.334 1.663-3.77 2.185s-2.962 0.782-4.578 0.782c-3.877 0-7.163-1.349-9.855-4.046s-4.039-5.952-4.039-9.764c0-3.812 1.346-7.067 4.039-9.764s5.96-4.046 9.801-4.046c3.806 0 7.046 1.349 9.721 4.046s4.012 5.952 4.012 9.764c0 1.546-0.251 3.039-0.754 4.477s-1.257 2.787-2.262 4.046l6.958 6.862c0.323 0.288 0.485 0.656 0.485 1.106s-0.18 0.854-0.539 1.214c-0.323 0.324-0.718 0.486-1.185 0.486s-0.862-0.162-1.185-0.486zM13.84 24.383c2.908 0 5.385-1.034 7.432-3.102s3.070-4.558 3.070-7.471-1.023-5.403-3.070-7.471c-2.046-2.068-4.524-3.102-7.432-3.102-2.944 0-5.448 1.034-7.513 3.102s-3.097 4.558-3.097 7.471c0 2.913 1.032 5.403 3.097 7.471s4.569 3.102 7.513 3.102z"></path>
</symbol>
<symbol id="icon-search-white" viewBox="0 0 32 32">
<path fill="#fdfdff" style="fill: var(--color3, #fdfdff)" d="M29.092 31.514l-6.85-6.862c-1.077 0.935-2.334 1.663-3.77 2.185s-2.962 0.782-4.578 0.782c-3.877 0-7.163-1.349-9.855-4.046s-4.039-5.952-4.039-9.764c0-3.812 1.346-7.067 4.039-9.764s5.96-4.046 9.801-4.046c3.806 0 7.046 1.349 9.721 4.046s4.012 5.952 4.012 9.764c0 1.546-0.251 3.039-0.754 4.477s-1.257 2.787-2.262 4.046l6.958 6.862c0.323 0.288 0.485 0.656 0.485 1.106s-0.18 0.854-0.539 1.214c-0.323 0.324-0.718 0.486-1.185 0.486s-0.862-0.162-1.185-0.486zM13.84 24.383c2.908 0 5.385-1.034 7.432-3.102s3.070-4.558 3.070-7.471-1.023-5.403-3.070-7.471c-2.046-2.068-4.524-3.102-7.432-3.102-2.944 0-5.448 1.034-7.513 3.102s-3.097 4.558-3.097 7.471c0 2.913 1.032 5.403 3.097 7.471s4.569 3.102 7.513 3.102z"></path>
</symbol>
<symbol id="icon-favorites-fill-tablet-desktop" viewBox="0 0 32 32">
<path fill="#fdfdff" style="fill: var(--color3, #fdfdff); stroke: var(--color3, #fdfdff)" stroke="#fdfdff" stroke-linejoin="round" stroke-linecap="round" stroke-miterlimit="4" stroke-width="2.6667" d="M27.787 6.146c-0.681-0.681-1.49-1.222-2.379-1.591s-1.844-0.559-2.807-0.559-1.917 0.19-2.807 0.559c-0.89 0.369-1.699 0.909-2.38 1.591l-1.413 1.413-1.413-1.413c-1.376-1.376-3.241-2.148-5.187-2.148s-3.811 0.773-5.187 2.148c-1.376 1.376-2.148 3.241-2.148 5.187s0.773 3.811 2.148 5.187l11.787 11.787 11.787-11.787c0.681-0.681 1.222-1.49 1.591-2.38s0.559-1.844 0.559-2.807-0.19-1.917-0.559-2.807c-0.369-0.89-0.909-1.699-1.591-2.38z"></path>
</symbol>
<symbol id="icon-favorites-tablet-desktop-white" viewBox="0 0 32 32">
<path fill="none" stroke="#fdfdff" style="stroke: var(--color3, #fdfdff)" stroke-linejoin="round" stroke-linecap="round" stroke-miterlimit="4" stroke-width="2.6667" d="M27.787 6.146c-0.681-0.681-1.49-1.222-2.379-1.591s-1.844-0.559-2.807-0.559-1.917 0.19-2.807 0.559c-0.89 0.369-1.699 0.909-2.38 1.591l-1.413 1.413-1.413-1.413c-1.376-1.376-3.241-2.148-5.187-2.148s-3.811 0.773-5.187 2.148c-1.376 1.376-2.148 3.241-2.148 5.187s0.773 3.811 2.148 5.187l11.787 11.787 11.787-11.787c0.681-0.681 1.222-1.49 1.591-2.38s0.559-1.844 0.559-2.807-0.19-1.917-0.559-2.807c-0.369-0.89-0.909-1.699-1.591-2.38z"></path>
</symbol>
<symbol id="icon-favorites-fill-mobile" viewBox="0 0 32 32">
<path fill="#fdfdff" style="fill: var(--color3, #fdfdff); stroke: var(--color3, #fdfdff)" stroke="#fdfdff" stroke-linejoin="round" stroke-linecap="round" stroke-miterlimit="4" stroke-width="2.6667" d="M27.788 6.146c-0.681-0.681-1.49-1.222-2.38-1.591s-1.844-0.559-2.807-0.559c-0.963 0-1.917 0.19-2.807 0.559s-1.699 0.909-2.38 1.591l-1.413 1.413-1.413-1.413c-1.376-1.376-3.241-2.148-5.187-2.148s-3.811 0.773-5.187 2.148c-1.376 1.376-2.148 3.241-2.148 5.187s0.773 3.811 2.148 5.187l11.787 11.787 11.787-11.787c0.681-0.681 1.222-1.49 1.591-2.38s0.558-1.844 0.558-2.807-0.19-1.917-0.558-2.807c-0.369-0.89-0.909-1.699-1.591-2.38z"></path>
</symbol>
<symbol id="icon-favorites-mobile-white" viewBox="0 0 32 32">
<path fill="none" stroke="#fdfdff" style="stroke: var(--color3, #fdfdff)" stroke-linejoin="round" stroke-linecap="round" stroke-miterlimit="4" stroke-width="2.6667" d="M27.788 6.146c-0.681-0.681-1.49-1.222-2.38-1.591s-1.844-0.559-2.807-0.559c-0.963 0-1.917 0.19-2.807 0.559s-1.699 0.909-2.38 1.591l-1.413 1.413-1.413-1.413c-1.376-1.376-3.241-2.148-5.187-2.148s-3.811 0.773-5.187 2.148c-1.376 1.376-2.148 3.241-2.148 5.187s0.773 3.811 2.148 5.187l11.787 11.787 11.787-11.787c0.681-0.681 1.222-1.49 1.591-2.38s0.558-1.844 0.558-2.807-0.19-1.917-0.558-2.807c-0.369-0.89-0.909-1.699-1.591-2.38z"></path>
</symbol>
<symbol id="icon-trash-tablet-desktop-white" viewBox="0 0 32 32">
<path fill="none" stroke="#fdfdff" style="stroke: var(--color3, #fdfdff)" stroke-linejoin="round" stroke-linecap="round" stroke-miterlimit="4" stroke-width="2.6667" d="M21.333 8v-1.067c0-1.493 0-2.24-0.291-2.811-0.256-0.502-0.664-0.91-1.165-1.165-0.57-0.291-1.317-0.291-2.811-0.291h-2.133c-1.493 0-2.24 0-2.811 0.291-0.502 0.256-0.91 0.664-1.165 1.165-0.291 0.57-0.291 1.317-0.291 2.811v1.067M13.333 15.333v6.667M18.667 15.333v6.667M4 8h24M25.333 8v14.933c0 2.24 0 3.36-0.436 4.216-0.383 0.753-0.995 1.365-1.748 1.748-0.856 0.436-1.976 0.436-4.216 0.436h-5.867c-2.24 0-3.36 0-4.216-0.436-0.753-0.383-1.365-0.995-1.748-1.748-0.436-0.856-0.436-1.976-0.436-4.216v-14.933"></path>
</symbol>
<symbol id="icon-trash-mobile-white" viewBox="0 0 32 32">
<path fill="none" stroke="#fdfdff" style="stroke: var(--color3, #fdfdff)" stroke-linejoin="round" stroke-linecap="round" stroke-miterlimit="4" stroke-width="2.6667" d="M21.333 8v-1.067c0-1.493 0-2.24-0.291-2.811-0.256-0.502-0.664-0.91-1.165-1.165-0.57-0.291-1.317-0.291-2.811-0.291h-2.133c-1.493 0-2.24 0-2.811 0.291-0.502 0.256-0.91 0.664-1.165 1.165-0.291 0.57-0.291 1.317-0.291 2.811v1.067M13.333 15.333v6.667M18.667 15.333v6.667M4 8h24M25.333 8v14.933c0 2.24 0 3.36-0.436 4.216-0.384 0.753-0.996 1.364-1.748 1.748-0.856 0.436-1.976 0.436-4.216 0.436h-5.867c-2.24 0-3.36 0-4.216-0.436-0.753-0.384-1.365-0.996-1.748-1.748-0.436-0.856-0.436-1.976-0.436-4.216v-14.933"></path>
</symbol>
<symbol id="icon-chevron-up-white" viewBox="0 0 32 32">
<path fill="none" stroke="#fdfdff" style="stroke: var(--color3, #fdfdff)" stroke-linejoin="round" stroke-linecap="round" stroke-miterlimit="4" stroke-width="2.6667" d="M8 20l8-8 8 8"></path>
</symbol>
<symbol id="icon-chevron-down-white" viewBox="0 0 32 32">
<path fill="none" stroke="#fdfdff" style="stroke: var(--color3, #fdfdff)" stroke-linejoin="round" stroke-linecap="round" stroke-miterlimit="4" stroke-width="2.6667" d="M8 12l8 8 8-8"></path>
</symbol>
<symbol id="icon-x-close-tablet-white" viewBox="0 0 32 32">
<path fill="none" stroke="#fdfdff" style="stroke: var(--color3, #fdfdff)" stroke-linejoin="round" stroke-linecap="round" stroke-miterlimit="4" stroke-width="1.6" d="M24 8l-16 16"></path>
<path fill="none" stroke="#fdfdff" style="stroke: var(--color3, #fdfdff)" stroke-linejoin="round" stroke-linecap="round" stroke-miterlimit="4" stroke-width="1.6" d="M8 8l16 16"></path>
</symbol>
<symbol id="icon-x-close-mobile-white" viewBox="0 0 32 32">
<path fill="none" stroke="#fdfdff" style="stroke: var(--color3, #fdfdff)" stroke-linejoin="round" stroke-linecap="round" stroke-miterlimit="4" stroke-width="2" d="M24 8l-16 16"></path>
<path fill="none" stroke="#fdfdff" style="stroke: var(--color3, #fdfdff)" stroke-linejoin="round" stroke-linecap="round" stroke-miterlimit="4" stroke-width="2" d="M8 8l16 16"></path>
</symbol>
<symbol id="icon-burger-tablet-white" viewBox="0 0 32 32">
<path fill="none" stroke="#fdfdff" style="stroke: var(--color3, #fdfdff)" stroke-linejoin="round" stroke-linecap="round" stroke-miterlimit="4" stroke-width="1.6" d="M28 13.333h-24"></path>
<path fill="none" stroke="#fdfdff" style="stroke: var(--color3, #fdfdff)" stroke-linejoin="round" stroke-linecap="round" stroke-miterlimit="4" stroke-width="1.6" d="M28 8h-24"></path>
<path fill="none" stroke="#fdfdff" style="stroke: var(--color3, #fdfdff)" stroke-linejoin="round" stroke-linecap="round" stroke-miterlimit="4" stroke-width="1.6" d="M28 18.667h-24"></path>
<path fill="none" stroke="#fdfdff" style="stroke: var(--color3, #fdfdff)" stroke-linejoin="round" stroke-linecap="round" stroke-miterlimit="4" stroke-width="1.6" d="M28 24h-24"></path>
</symbol>
<symbol id="icon-burger-tablet-black" viewBox="0 0 32 32">
<path stroke-linejoin="round" stroke-linecap="round" stroke-miterlimit="4" stroke-width="1.6" d="M28 13.333h-24"></path>
<path stroke-linejoin="round" stroke-linecap="round" stroke-miterlimit="4" stroke-width="1.6" d="M28 8h-24"></path>
<path stroke-linejoin="round" stroke-linecap="round" stroke-miterlimit="4" stroke-width="1.6" d="M28 18.667h-24"></path>
<path stroke-linejoin="round" stroke-linecap="round" stroke-miterlimit="4" stroke-width="1.6" d="M28 24h-24"></path>
</symbol>
<symbol id="icon-burger-mobile-black" viewBox="0 0 32 32">
<path stroke-linejoin="round" stroke-linecap="round" stroke-miterlimit="4" stroke-width="2" d="M28 13.334h-24"></path>
<path stroke-linejoin="round" stroke-linecap="round" stroke-miterlimit="4" stroke-width="2" d="M28 8h-24"></path>
<path stroke-linejoin="round" stroke-linecap="round" stroke-miterlimit="4" stroke-width="2" d="M28 18.666h-24"></path>
<path stroke-linejoin="round" stroke-linecap="round" stroke-miterlimit="4" stroke-width="2" d="M28 24h-24"></path>
</symbol>
<symbol id="icon-burger-mobile-white" viewBox="0 0 32 32">
<path fill="none" stroke="#fdfdff" style="stroke: var(--color3, #fdfdff)" stroke-linejoin="round" stroke-linecap="round" stroke-miterlimit="4" stroke-width="2" d="M28 13.334h-24"></path>
<path fill="none" stroke="#fdfdff" style="stroke: var(--color3, #fdfdff)" stroke-linejoin="round" stroke-linecap="round" stroke-miterlimit="4" stroke-width="2" d="M28 8h-24"></path>
<path fill="none" stroke="#fdfdff" style="stroke: var(--color3, #fdfdff)" stroke-linejoin="round" stroke-linecap="round" stroke-miterlimit="4" stroke-width="2" d="M28 18.666h-24"></path>
<path fill="none" stroke="#fdfdff" style="stroke: var(--color3, #fdfdff)" stroke-linejoin="round" stroke-linecap="round" stroke-miterlimit="4" stroke-width="2" d="M28 24h-24"></path>
</symbol>
<symbol id="icon-logo-tablet-desktop" viewBox="0 0 32 32">
<path fill="#7e8fdd" style="fill: var(--color1, #7e8fdd)" d="M28.357 2.986c-0.062-0.039-0.122-0.069-0.183-0.1-0.742-0.392-1.568-0.596-2.406-0.593h-0.009c-0.917 0.001-1.817 0.244-2.612 0.703s-1.457 1.12-1.919 1.915l-0.014 0.025c-0.375 0.65-0.602 1.375-0.665 2.123l-0.001 0.020h-10.971l-1.227-2.976c-0.276-0.674-0.781-1.226-1.425-1.559s-1.385-0.423-2.090-0.256l0.021-0.005-3.71 0.848 0.23 1.018 3.71-0.848c0.462-0.106 0.945-0.045 1.366 0.173s0.752 0.578 0.935 1.017l0.005 0.014 1.065 2.575h-6.967l11.649 11.716v8.578c-2.705 0.193-4.571 1.094-4.571 2.213v0.208h11.227v-0.208c0-1.117-1.87-2.023-4.571-2.213v-8.578l7.181-7.222c0.225 0.192 0.477 0.37 0.742 0.526l0.025 0.014c1.201 0.687 2.623 0.868 3.957 0.503s2.469-1.245 3.158-2.449 0.878-2.634 0.523-3.976c-0.355-1.343-1.224-2.49-2.417-3.19l-0.025-0.014-0.008-0.002zM29.499 7.017l-2.85 0.008 1.418-2.483c0.775 0.601 1.287 1.481 1.43 2.454l0.002 0.021zM27.17 4.018l-1.418 2.49-1.433-2.475c0.458-0.19 0.949-0.287 1.445-0.285 0.506 0 0.99 0.099 1.432 0.279l-0.025-0.009zM22.471 5.661c0.249-0.436 0.567-0.802 0.943-1.098l0.008-0.006 1.433 2.475-2.843 0.008c0.064-0.516 0.226-0.983 0.469-1.398l-0.009 0.017v0.001zM4.982 8.536h4.070l0.56 1.364h-3.272l-1.358-1.364zM22.004 9.901h-0.929v0.007h-10.346l-0.56-1.364h13.182l-1.346 1.357zM24.341 11.080l1.418-2.49 1.433 2.475c-0.426 0.182-0.922 0.287-1.442 0.287-0.507 0-0.992-0.1-1.434-0.283l0.025 0.010zM29.039 9.446c-0.241 0.423-0.56 0.796-0.942 1.098l-0.008 0.006-1.433-2.475 2.843-0.007c-0.066 0.491-0.225 0.965-0.47 1.395l0.010-0.018-0.001 0.001z"></path>
</symbol>
<symbol id="icon-logo-tablet-menu" viewBox="0 0 32 32">
<path fill="#9cdfdf" style="fill: var(--color4, #9cdfdf)" d="M28.356 2.986c-0.062-0.039-0.122-0.069-0.183-0.1-0.742-0.392-1.568-0.596-2.406-0.593h-0.009c-0.917 0.001-1.817 0.244-2.612 0.703s-1.456 1.12-1.919 1.915l-0.014 0.025c-0.375 0.65-0.602 1.375-0.665 2.123l-0.001 0.020h-10.971l-1.227-2.976c-0.276-0.674-0.781-1.226-1.425-1.559s-1.385-0.423-2.090-0.256l0.021-0.005-3.71 0.848 0.23 1.018 3.71-0.848c0.462-0.106 0.945-0.045 1.366 0.173s0.752 0.578 0.935 1.017l0.005 0.014 1.065 2.575h-6.967l11.649 11.716v8.578c-2.705 0.193-4.571 1.094-4.571 2.213v0.208h11.227v-0.208c0-1.117-1.87-2.023-4.571-2.213v-8.578l7.181-7.222c0.225 0.192 0.477 0.37 0.742 0.526l0.025 0.014c1.201 0.687 2.623 0.868 3.957 0.503s2.469-1.245 3.158-2.449c0.69-1.204 0.878-2.634 0.523-3.976s-1.224-2.49-2.417-3.19l-0.025-0.014-0.008-0.002zM29.498 7.017l-2.85 0.008 1.418-2.483c0.775 0.601 1.287 1.481 1.43 2.454l0.002 0.021zM27.169 4.018l-1.418 2.49-1.433-2.475c0.458-0.19 0.949-0.287 1.445-0.285 0.506 0 0.99 0.099 1.432 0.279l-0.025-0.009zM22.471 5.661c0.249-0.436 0.567-0.802 0.943-1.098l0.008-0.006 1.433 2.475-2.843 0.008c0.064-0.516 0.226-0.983 0.469-1.398l-0.009 0.017v0.001zM4.982 8.536h4.070l0.56 1.364h-3.272l-1.358-1.364zM22.003 9.901h-0.929v0.007h-10.346l-0.56-1.364h13.182l-1.346 1.357zM24.34 11.080l1.418-2.49 1.433 2.475c-0.426 0.182-0.922 0.287-1.442 0.287-0.507 0-0.992-0.1-1.434-0.283l0.025 0.010zM29.039 9.446c-0.241 0.423-0.56 0.796-0.942 1.098l-0.008 0.006-1.433-2.475 2.843-0.007c-0.066 0.491-0.225 0.965-0.47 1.395l0.010-0.018-0.001 0.001z"></path>
</symbol>
<symbol id="icon-logo-mobile-menu" viewBox="0 0 32 32">
<path fill="#9cdfdf" style="fill: var(--color4, #9cdfdf)" d="M28.355 3.060c-0.062-0.039-0.122-0.069-0.183-0.099-0.742-0.39-1.568-0.592-2.406-0.59h-0.009c-0.917 0.001-1.817 0.242-2.612 0.699s-1.457 1.113-1.919 1.904l-0.014 0.025c-0.375 0.646-0.602 1.367-0.665 2.111l-0.001 0.019h-10.971l-1.227-2.959c-0.276-0.67-0.781-1.219-1.425-1.55s-1.385-0.421-2.090-0.255l0.021-0.005-3.71 0.843 0.23 1.013 3.71-0.843c0.462-0.105 0.945-0.044 1.366 0.172s0.752 0.574 0.935 1.011l0.005 0.014 1.065 2.56h-6.967l11.649 11.649v8.529c-2.705 0.192-4.571 1.088-4.571 2.2v0.207h11.227v-0.207c0-1.111-1.87-2.011-4.571-2.2v-8.529l7.181-7.181c0.225 0.191 0.477 0.368 0.742 0.523l0.025 0.014c1.201 0.683 2.623 0.863 3.957 0.5s2.469-1.238 3.158-2.435c0.69-1.197 0.878-2.618 0.523-3.954s-1.224-2.476-2.417-3.172l-0.025-0.014-0.008-0.002zM29.497 7.068l-2.85 0.008 1.418-2.469c0.775 0.598 1.287 1.472 1.43 2.44l0.002 0.021zM27.168 4.087l-1.418 2.475-1.433-2.461c0.458-0.189 0.949-0.285 1.445-0.283 0.506 0 0.99 0.098 1.432 0.278l-0.025-0.009zM22.47 5.72c0.249-0.433 0.567-0.798 0.943-1.091l0.008-0.006 1.433 2.461-2.843 0.008c0.064-0.513 0.226-0.977 0.469-1.39l-0.009 0.017v0.001zM4.981 8.578h4.070l0.56 1.357h-3.272l-1.358-1.357zM22.002 9.936h-0.929v0.007h-10.346l-0.56-1.357h13.182l-1.346 1.35zM24.34 11.108l1.418-2.475 1.433 2.461c-0.426 0.181-0.922 0.286-1.442 0.286-0.507 0-0.992-0.099-1.434-0.281l0.025 0.010zM29.038 9.483c-0.241 0.421-0.56 0.792-0.942 1.091l-0.008 0.006-1.433-2.461 2.843-0.007c-0.066 0.488-0.225 0.96-0.47 1.387l0.010-0.018-0.001 0.001z"></path>
</symbol>
<symbol id="icon-logo-mobile" viewBox="0 0 32 32">
<path fill="#7e8fdd" style="fill: var(--color1, #7e8fdd)" d="M28.355 3.060c-0.062-0.039-0.122-0.069-0.183-0.099-0.742-0.39-1.568-0.592-2.406-0.59h-0.009c-0.917 0.001-1.817 0.242-2.612 0.699s-1.457 1.113-1.919 1.904l-0.014 0.025c-0.375 0.646-0.602 1.367-0.665 2.111l-0.001 0.019h-10.971l-1.227-2.959c-0.276-0.67-0.781-1.219-1.425-1.55s-1.385-0.421-2.090-0.255l0.021-0.005-3.71 0.843 0.23 1.013 3.71-0.843c0.462-0.105 0.945-0.044 1.366 0.172s0.752 0.574 0.935 1.011l0.005 0.014 1.065 2.56h-6.967l11.649 11.649v8.529c-2.705 0.192-4.571 1.088-4.571 2.2v0.207h11.227v-0.207c0-1.111-1.87-2.011-4.571-2.2v-8.529l7.181-7.181c0.225 0.191 0.477 0.368 0.742 0.523l0.025 0.014c1.201 0.683 2.623 0.863 3.957 0.5s2.469-1.238 3.158-2.435c0.69-1.197 0.878-2.618 0.523-3.954s-1.224-2.476-2.417-3.172l-0.025-0.014-0.008-0.002zM29.497 7.068l-2.85 0.008 1.418-2.469c0.775 0.598 1.287 1.472 1.43 2.44l0.002 0.021zM27.168 4.087l-1.418 2.475-1.433-2.461c0.458-0.189 0.949-0.285 1.445-0.283 0.506 0 0.99 0.098 1.432 0.278l-0.025-0.009zM22.47 5.72c0.249-0.433 0.567-0.798 0.943-1.091l0.008-0.006 1.433 2.461-2.843 0.008c0.064-0.513 0.226-0.977 0.469-1.39l-0.009 0.017v0.001zM4.981 8.578h4.070l0.56 1.357h-3.272l-1.358-1.357zM22.002 9.936h-0.929v0.007h-10.346l-0.56-1.357h13.182l-1.346 1.35zM24.34 11.108l1.418-2.475 1.433 2.461c-0.426 0.181-0.922 0.286-1.442 0.286-0.507 0-0.992-0.099-1.434-0.281l0.025 0.010zM29.038 9.483c-0.241 0.421-0.56 0.792-0.942 1.091l-0.008 0.006-1.433-2.461 2.843-0.007c-0.066 0.488-0.225 0.96-0.47 1.387l0.010-0.018-0.001 0.001z"></path>
</symbol>
</defs>
</svg>
